<svg width="259" height="415" viewBox="0 0 259 415" fill="none" xmlns="http://www.w3.org/2000/svg">
  <g opacity=".3" fill="#622977">
    <path
      d="M216.632 218.937c-.081 1.81.289 3.462.624 5.219.239-1.191-.115-2.534-.28-3.668a21.192 21.192 0 00-.344-1.551zM343.911 214.359c-.258 1.211-.485 2.511-.702 3.46.31-.536.457-1.142.482-1.75.01-.601.126-1.152.22-1.71zM233.462 153.147c-.063-.035-.109.028-.18.016.677.195 1.344.348 2.076.457-.635-.102-1.289-.184-1.896-.473zM181.484 161.282c-.228.013-.432.1-.648.117 2.247.463 4.36 1.169 6.228 2.224-1.648-1.438-3.566-2.457-5.58-2.341zM207.587 161.265c1.337 1.514 2.513 2.381 3.828 2.955-1.464-1.61-3.087-3.591-4.821-4.888.167.662.44 1.308.993 1.933zM369.884 234.469c2.632.82 4.885 2.664 6.277 5.13-1.381-2.462-3.645-4.31-6.277-5.13z" />
    <path
      d="M377.236 248.454c.285-1.109.409-2.183.408-3.22a11.537 11.537 0 00-1.473-5.633c-1.392-2.465-3.649-4.297-6.277-5.129a10.37 10.37 0 00-5.612-.172c-3.936-.891-8.594 2.131-11.288 5.465-1.237 1.528-2.002 3.128-2.357 4.725-.546 2.398-.177 4.771.883 6.833a11.09 11.09 0 002.994 3.611c.63.507 1.323.944 2.073 1.322a17.74 17.74 0 002.936 1.162 16.87 16.87 0 002.706.57c5.481.731 11.178-1.169 13.919-6.536.439-.912.807-1.9 1.088-2.998zm-22.186 4.289c-3.51-2.622-2.672-8.91-.141-12.38 2.352-3.243 8.116-4.87 11.701-4.902 8.259 1.772 10.66 6.268 8.995 13.045-2.087 8.456-12.119 10.548-20.555 4.237zM314.971 372.658a18.984 18.984 0 00-2.549-.765 15.93 15.93 0 012.549.765zM291.613 394.623c-1.023-2.6-1.648-5.417-2.024-8.199.38 2.771 1.001 5.599 2.024 8.199z" />
    <path
      d="M291.613 394.623c1.022 2.6 2.441 4.957 4.398 6.83 3.664 3.502 8.709 4.593 13.501 3.693a19.02 19.02 0 003.539-1.045c3.442-1.408 6.525-3.859 8.582-7.217a19.095 19.095 0 001.633-3.387c.437-1.188.751-2.419.958-3.66.414-2.484.371-5.046-.132-7.427a12.123 12.123 0 00-3.332-6.144c-1.519-1.525-3.416-2.641-5.466-3.457-.111-.038-.212-.113-.323-.151a18.984 18.984 0 00-2.549-.765 19.54 19.54 0 00-2.663-.411 22.254 22.254 0 00-5.428.194c-1.195.19-2.382.462-3.53.839-3 .956-6.864 3.084-8.748 6.122-2.153 1.342-2.805 5.226-2.464 7.787.38 2.771 1.001 5.599 2.024 8.199zm3.754-16.453c4.594-4.2 12.243-5.357 17.301-3.907 9.752 2.801 11.061 11.988 8.099 19.103-4.075 9.79-14.828 11.382-21.105 8.117-3.374-1.76-5.297-5.88-6.47-9.517-.713-2.203-1.31-5.207-1.351-7.598-.034-1.798 2.775-4.712 3.526-6.198z" />
    <path
      d="M315.306 372.813c2.046.828 3.943 1.944 5.466 3.457-1.523-1.513-3.431-2.633-5.466-3.457zM300.729 242.272c1.229 1.647 3.333 3.992 5.033 5.067 3.045 1.922 3.894 1.835 6.351 3.054-2.461-1.207-4.398-3.284-6.885-4.487-1.802-.887-3.274-1.975-4.499-3.634zM308.869 191.068c.309-.248.492-.526.675-.804-2.007.815-3.973 2.117-5.386 3.833-.17.204-.329.412-.473.611-1.933 1.891-3.162 5.116-3.75 8.602.121-.457.136-.859.318-1.347 1.591-4.413 5.104-8.068 8.616-10.895zM344.428 211.045c.097-.925-.758-1.825-1.65-1.543-2.797.908-6.805 1.516-9.87.834 0-1.431-2.155-1.981-2.75-.336a40.592 40.592 0 01-1.159 2.843c-.313.653-.637 1.302-.962 1.951-1.284 2.418-2.893 4.697-4.849 6.186-.59.452-.725 1.627-.206 2.135 1.278 1.257 2.517 1.87 4.179.726 1.301-.889 2.375-2.053 3.741-2.88 1.852-1.118 3.979-1.812 6.029-2.284 1.674-.392 4.571.954 5.988-.341.15-.145.204-.337.302-.513.217-.949.455-2.245.702-3.46.169-1.097.394-2.175.505-3.318zm-4.316 6.331c-3.939-.669-7.365.482-10.732 2.926-.677.488-2.301 1.987-3.123 3.462a10.763 10.763 0 00-3.039-1.723c1.885-1.356 3.543-3.132 4.736-4.715a20.185 20.185 0 003.358-7.004 5.296 5.296 0 002.601 1.807c3.122 1.016 6.264.437 9.13-1.314-1.329 2.152-1.937 4.66-1.215 6.946a24.236 24.236 0 00-1.716-.385zM303.254 218.236c.048-.64-.056-1.307-.489-1.956-1.512-2.296-2.636-4.354-3.156-6.543.223 3.334 1.079 6.27 2.565 7.783 2.052 2.103 3.633 2.625 5.65 4.361-.034.028-.019.02-.079.051a6.682 6.682 0 011.865-1.087c-1.804-1.597-4.327-1.407-6.356-2.609z" />
    <path
      d="M365.237 210.835c-1.751-2.432-5.057-3.459-7.609-4.58-2.587-1.132-5.621-1.186-8.388-.398a8.848 8.848 0 00-1.199.451c2.754-3.615 3.859-8.13.467-11.985-1.539-1.754-2.473-3.286-3.277-5.587-.589-1.701-1.528-3.038-2.762-4.24-2.236-2.18-5.3-3.045-8.35-3.051-5.099-.007-10.125 3.754-10.712 8.816-4.044-1.94-8.86-1.796-13.179-.325-.238.076-.459.248-.693.351-.183.278-.381.564-.675.804-3.512 2.827-7.021 6.471-8.616 10.895-.181.488-.181.882-.318 1.347-.351 2.124-.478 4.352-.339 6.423.52 2.189 1.644 4.246 3.156 6.543.429.661.522 1.323.489 1.955 2.033 1.191 4.567 1.005 6.356 2.61-.64.237-1.262.6-1.866 1.087-1.737 1.433-2.95 3.285-4.256 5.157-1.31 1.883-2.774 3.241-3.704 5.387-1.357 3.128-.973 7.214.938 9.794 1.229 1.647 2.697 2.746 4.504 3.622 2.476 1.199 4.412 3.275 6.884 4.486 3.476 1.717 6.828 1.355 10.044-1.194 1.847-1.462 3.347-3.319 4.444-5.447.56-1.079.762-2.126.866-3.18.541.516 1.177.973 1.845 1.375 3.019 1.781 6.984 2.945 10.353 3.824 7.656 2.009 13.277-4.185 14.381-12.063.09-.691.128-1.373.099-2.04 3.496.725 7.924-.879 10.149-3.43 4.243-4.833 4.474-12.554.968-17.407zm-36.889-25.415c1.545-1.342 5.23-2.022 7.091-2.02 5.031.022 6.883 4.67 9.249 8.444 1.199 1.912 3.508 4.669 3.452 7.302-.049 2.36-1.557 4.779-2.85 6.433-2.221 2.828-5.22 4.428-7.346 4.546-1.707.091-4.362-.593-5.875-1.813.101-5.27-2.785-14.097-6.796-17.312.714-1.631 1.629-4.308 3.075-5.58zm-26.608 25.751c-.934-3.107-.471-6.519.479-9.656.058-.847 1.034-2.912 1.386-3.604 4.184-5.878 10.318-8.073 16.753-5.765 9.264 3.315 10.733 15.157 7.2 21.484-.2.364-.463.693-.764 1.022-3.02 5.638-10.267 7.749-16.483 4.913-3.947-1.788-7.235-3.939-8.571-8.394zm15.092 37.64c-6.527.141-15.277-5.767-15.534-13.118-.133-3.88 3.576-7.848 6.21-10.258 1.796-1.636 3.783-2.392 5.752-2.13 2.149-.293 4.342-.032 6.311.768 4.23 1.046 7.772 3.718 7.887 8.971.113 6.264-3.311 15.609-10.626 15.767zm22.476-5.121c-2.075-.496-5.068-1.494-7.072-2.227-1.816-.669-2.751-1.518-3.95-2.892.605-1.997 1.593-5.673 1.51-7.868-.077-1.892-.703-3.343-1.675-4.836-.578-1.198.406-2.104.947-2.626 2.554-2.464 5.193-3.992 8.509-3.71 3.229.279 7.69 1.194 9.949 3.448 3.678 3.677 4.666 8.025 4.464 10.936-.478 6.715-7.203 11.082-12.682 9.775zm13.647-16.821c-1.72-3.669-6.157-7.268-9.784-8.906a.777.777 0 00.026-.148c-.098.176-.141.371-.301.512-1.417 1.295-4.314-.05-5.989.342-2.038.475-4.177 1.166-6.028 2.284-1.367.826-2.44 1.991-3.741 2.88-1.662 1.144-2.902.531-4.179-.726-.519-.508-.385-1.683.206-2.135 1.956-1.489 3.564-3.768 4.849-6.186.324-.649.649-1.298.962-1.952.434-.965.826-1.919 1.158-2.842.606-1.641 2.75-1.095 2.751.336 3.069.67 7.073.074 9.87-.835.892-.282 1.735.615 1.649 1.544-.115 1.155-.335 2.221-.515 3.314.151-.722.309-1.429.474-1.976.788-2.563 3.609-4.436 5.872-5.057 3.665-1.015 9.78 1.432 12.224 4.013 2.636 2.778 2.903 9.673 1.701 13.248-1.175 3.572-9.209 6.737-11.205 2.29zM296.338 300.909c.203-.981.57-1.969 1.113-2.963-.547 1.005-.914 1.994-1.113 2.963z" />
    <path
      d="M297.685 297.699a.742.742 0 00-.25.254c-.543.994-.91 1.983-1.113 2.963-.406 1.961-.158 3.859.574 5.649.737 1.779 1.961 3.438 3.516 4.896 1.555 1.458 3.456 2.707 5.528 3.675 4.145 1.935 9.004 2.739 13.316 1.79a15.662 15.662 0 003.118-1.047c2.979-1.397 5.477-3.88 6.962-7.699a21.065 21.065 0 001.136-4.282c.581-3.646.091-7.138-1.207-10.162a17.814 17.814 0 00-1.556-2.85 16.407 16.407 0 00-2.808-3.179 15.553 15.553 0 00-5.895-3.225 15.114 15.114 0 00-3.441-.562 14.552 14.552 0 00-3.428.257c-2.272.434-4.496 1.371-6.523 2.638a23.498 23.498 0 00-2.884 2.126 14.976 14.976 0 00-3.334 4.071c-.787 1.448-1.332 3.019-1.711 4.687zm1.415 1.002c2.524-6.388 8.829-12.371 15.365-12.575 11.132-.358 13.85 9.133 13.493 16.612-.392 8.295-6.26 13.695-16.617 11.853-3.169-.56-7.461-3.216-9.808-5.434-4.14-3.917-4.094-7.276-2.433-10.456zM359.344 351.303c-6.913-3.223-16.428 1.031-19.936 8.325 3.496-7.298 13.012-11.551 19.936-8.325z" />
    <path
      d="M367.25 359.046c-2.035-3.476-4.968-6.371-7.906-7.743-6.913-3.223-16.428 1.031-19.936 8.325-.131.27-.315.521-.428.811-.226.223-.346.497-.521.752-1.375 1.926-1.552 4.623-1.182 7.101a13.434 13.434 0 002.215 5.64c1.106 1.644 2.547 3.036 4.146 4.155 2.45 1.703 5.541 2.668 8.746 2.873a19.32 19.32 0 003.224-.065 19.45 19.45 0 004.211-.905c3.261-1.102 6.183-3.123 8.136-6.11 1.341-2.044 1.897-4.294 1.872-6.548-.049-2.867-1.083-5.72-2.577-8.286zm-20.204 18.41c-6.127-2.124-8.862-10.635-6.59-16.69 4.146-6.416 10.879-9.835 16.31-8.176 10.694 3.272 11.524 12.371 9.691 18.486-1.963 6.49-9.705 9.743-19.411 6.38zM138.564 351.874c-2.62-1.25-4.977-2.828-7.652-3.991-1.422-.624-2.956-1.353-4.152-2.45 1.118 1.32 2.312 2.639 3.745 3.267 2.675 1.164 4.77 2.782 7.494 3.766 9.783 3.534 19.124-2.146 20.521-12.732-1.393 10.574-10.966 16.424-19.956 12.14zM125.699 344.173c-.768-1.186-1.283-2.493-1.588-3.833.011-2.505.313-4.987 1.153-7.519 1.291-3.834 4.248-6.565 7.212-9.137-.942.567-1.873 1.177-2.739 1.888-2.253 1.846-9.145 12.852-4.038 18.601z" />
    <path
      d="M124.106 340.338c.305 1.34.816 2.659 1.589 3.833.357.4.707.823 1.068 1.25 1.196 1.097 2.726 1.838 4.152 2.45 2.675 1.163 5.032 2.742 7.652 3.991 8.99 4.284 18.57-1.55 19.971-12.148 1.391-10.496-6.317-18.552-15.607-18.999-1.072-.057-2.134.035-3.183.197-.315.048-.637.12-.945.184-.75.161-1.491.364-2.222.609-.323.111-.632.215-.949.341-.894.36-1.775.79-2.629 1.282-.17.099-.331.24-.506.35-2.959 2.56-5.916 5.291-7.211 9.137-.882 2.544-1.168 5.018-1.18 7.523zm8.474-14.714c3.069-1.799 7.944-3.406 11.235-2.66 6.474 1.482 12.851 8.577 12.577 15.494-.341 8.72-9.379 14.282-15.951 11.506-3.084-1.306-8.313-3.695-11.183-5.438-4.081-2.478-2.945-6.904-2.488-11.053 1.16-3.025 3.644-6.577 5.81-7.849z" />
    <path
      d="M132.702 323.488c-.073.067-.162.142-.235.21.176-.111.337-.253.509-.353-.08.052-.179.084-.274.143zM227.616 385.266a11.073 11.073 0 00-3.114 1.967 11.29 11.29 0 013.114-1.967zM234.915 413.77zM231.29 383.439c3.397-1.317 7.309-2.077 10.842-1.351-3.533-.726-7.449.045-10.842 1.351z" />
    <path
      d="M225.407 409.411c1.772 1.546 3.76 2.616 5.868 3.373.077.027.158.081.235.108 1.097.38 2.238.67 3.392.886 1.153.216 2.343.365 3.53.448 2.107.152 4.514.225 6.792-.26 2.273-.473 4.391-1.498 5.911-3.52 1.561-2.072 2.485-4.522 2.857-7.099.382-2.573.224-5.267-.382-7.854-1.199-5.169-4.165-9.861-8.129-12.14a11.227 11.227 0 00-3.362-1.257c-3.534-.726-7.46.041-10.843 1.351-1.177.459-2.492 1.067-3.674 1.826a11.09 11.09 0 00-3.114 1.968 11.04 11.04 0 00-2.191 2.707c-3.498 6.011-1.81 15.145 3.11 19.463zm-2.478-14.555c.029-.227.026-.504.066-.726.029-.121.117-.196.172-.282 2.361-8.282 14.515-12.2 21.255-8.012 1.193.426 2.302 1.02 3.185 1.983 5.168 5.717 6.272 20.151-1.475 22.917-5.508 1.965-14.426 1.554-20.38-4.291-2.159-2.114-3.119-6.4-2.957-10.02.005-.55.045-1.062.134-1.569z" />
    <path
      d="M231.278 412.772c-2.109-.757-4.096-1.826-5.868-3.373 1.768 1.558 3.755 2.628 5.868 3.373zM150.067 278.131c-2.124.472-4.368.43-6.551-.182-4.929-1.392-10.48-6.468-11.345-12.138.865 5.67 6.427 10.749 11.345 12.138 2.183.612 4.431.643 6.551.182z" />
    <path
      d="M143.516 277.949c2.183.612 4.427.654 6.551.182.714-.16 1.396-.37 2.071-.635a13.115 13.115 0 001.944-.955 13.138 13.138 0 003.328-2.799c.479-.557.914-1.168 1.297-1.81a13.688 13.688 0 001.861-6.013c.678-9.049-4.731-16.505-13.069-17.332-7.175-.713-13.541 4.514-14.435 11.466a9.518 9.518 0 00-.893 5.758c.865 5.67 6.416 10.746 11.345 12.138zm3.747-27.645c6.248.523 11.382 8.448 11.328 14.549-.059 7.334-9.174 12.58-14.869 11.145-2.955-.748-6.728-4.616-8.569-7.04-1.607-2.133-.499-5.4-.684-7.946 1.157-6.887 6.934-11.202 12.794-10.708zM268.815 248.431c-1.571.559-3.236.743-5.025.57 1.774.181 3.454-.011 5.025-.57zM267.111 159.789a15.632 15.632 0 013.907-4.687 15.425 15.425 0 00-3.907 4.687zM272.373 135.546c-.983 2.194-2.445 4.156-4.55 5.252 2.105-1.096 3.582-3.066 4.55-5.252zM277.809 231.14a13.95 13.95 0 00-1.83-4.784c.921 1.461 1.524 3.089 1.83 4.784zM195.49 236.01a13.841 13.841 0 004.077-.662 13.48 13.48 0 01-4.077.662zM244.175 98.434a8.869 8.869 0 002.749.979 9.218 9.218 0 01-2.749-.979zM79.92 208.007c-2.45 2.697-3.957 6.154-4.342 6.835.6-1.053 1.347-1.989 2.24-2.704.459-1.575 1.162-2.959 2.101-4.131zM235.257 260.388l-.102-.351c.162.069.348.068.511.138-.167-.058-.349-.069-.522-.142.049.109.094.23.113.355zM51.343 201.086c-1.512 1.604-2.697 3.557-3.475 5.874-.248.715-.427 1.77-.537 2.874.11-1.104.3-2.155.537-2.874.778-2.317 1.952-4.274 3.475-5.874zM74.242 217.99a19.18 19.18 0 00-.672 3.299c.123-1.073.35-2.19.672-3.299zM156.31 231.68c3.964 1.885 8.532 2.418 12.882 1.219-4.345 1.187-8.929.662-12.882-1.219zM215.631 216.423c-1.105-1.683-2.64-1.624-3.811-.572-.611-1.603-3.18-.957-2.724.842.712 2.781.646 6.554-1.294 8.928-.607.749-.26 1.538.347 1.972a18.634 18.634 0 001.817-9.075 14.51 14.51 0 00-.289-2.175c1.525.397 3.289.391 5.063.073-.314 1.441-.397 2.936-.27 4.503.141 1.599.416 3.598 1.069 5.295-2.408-.178-4.886.277-7.086 1.432-.085-.004-.175.005-.25.005.293.194.633.324.973.272 2.525-.373 7.014-.078 8.049-3.423.037-.105-.008-.226.017-.335-.338-1.746-.705-3.409-.624-5.22-.216-.915-.504-1.803-.987-2.522zM207.292 92.89c-2.814.706-5.764 2.165-7.443 4.538 1.69-2.37 4.625-3.82 7.443-4.538zM133.429 129.581a20.985 20.985 0 00-1.15-4.417c-1.468-3.857-4.15-5.929-7.3-6.653 3.15.724 5.843 2.799 7.3 6.653a21.61 21.61 0 011.15 4.417zM131.738 205.069a17.322 17.322 0 002.77-1.548 16.144 16.144 0 003.459-3.214 15.66 15.66 0 01-3.47 3.21 16.498 16.498 0 01-2.759 1.552zM171.342 189.193c-.303.196-.555.385-.757.538-.48.384-.983.906-1.465 1.473.459-.536.935-1.053 1.465-1.473.187-.145.449-.33.757-.538zM149.476 218.451c.019 1.307.128 2.605.468 3.879-.016.047-.017.086-.033.133.005-.051.017-.086.033-.133-.336-1.285-.445-2.584-.468-3.879zM167.332 193.923c-1.173 2.311-1.852 5.096-1.173 7.827a5.366 5.366 0 01.295-3.036c-.213-1.571.156-3.243.878-4.791zM88.963 204.154c-.978-1.941-.685-4.361.281-6.613-.97 2.264-1.259 4.672-.28 6.613zM235.355 153.619a15.726 15.726 0 01-2.073-.456c-.296-.076-.608-.08-.878.09-.697-.387-1.676-.213-2.004.842-.916 2.965-2.159 5.621-4.136 7.995-.698.835-.076 1.904.641 2.271 2.871 1.455 5.486 2.505 6.896 5.778 1.469 3.424.734 7.516.354 11.192-.083.812.526 1.562 1.279 1.573 1.64.03 3.195.201 4.801.508.582.11 1.281-.475 1.454-1.046.534-1.719 1.03-3.688 1.63-5.633.143-.45.264-.907.418-1.352 1.36-3.994 3.352-7.703 7.312-8.852 1.076-.311 1.734-2.105.593-2.75-1.998-1.112-3.519-2.847-4.84-4.763-.885-1.278-1.56-3.272-2.909-4.107-1.942-1.198-4.079-1.085-6.219-1.104-.038 0-.064.004-.097-.008a16.183 16.183 0 01-2.222-.178zm8.09 1.581c.026 1.323.305 2.667.849 3.998 1.078 2.619 3.792 5.28 6.716 6.227a14.256 14.256 0 00-3.893 2.171c-4.028 3.174-8.044 10.358-6.297 15.559-.199-.069-.41-.142-.613-.199-1.436-.406-3.168-.494-4.883-.235 2.476-5.498 2.264-12.479-1.955-16.422-1.678-1.567-3.66-2.582-5.766-3.128a16.352 16.352 0 001.961-3.155 19.039 19.039 0 001.642-5.419c3.277 2.291 8.69 2.25 12.239.603zM117.004 203.772c-.017 1.911-.366 3.852-1.146 5.709a14.796 14.796 0 001.146-5.709zM176.923 149.8c1.692.56 3.631.05 5.456-1.025-.857-.966-1.935-1.471-3.341-.816a3.84 3.84 0 00-1.281.974 1.695 1.695 0 00-1.734 1.816c.183 2.768-1.074 6.968.474 9.054.621-1.899.959-3.948.965-6.008a14.95 14.95 0 00-.539-3.995zM206.594 159.332c-1.312-.979-2.681-1.572-4.117-1.19-5.772 1.545-14.232 2.357-17.406-4.206-.606-1.26-1.396-3.635-2.635-5.076-.029.266-.07.527-.085.785-.262 3.836 2.23 6.708 4.823 8.788 4.799 3.843 11.75 4.019 16.933.628.364 1.492 1.15 2.841 1.988 4.077 1.78 2.6 4.021 3.941 6.445 4.216a11.794 11.794 0 00-2.287 3.949 14.16 14.16 0 00-3.83-2.772c-4.899-2.407-9.461.084-12.371 4.184a21.332 21.332 0 00-1.265-5.482c-2.68-7.166-9.851-9.572-16.254-7.352.45.563 1.072.989 2.064 1.135.742.113 1.477.25 2.208.398.216-.017.42-.104.648-.117 2.01-.105 3.932.903 5.58 2.341 2.988 1.692 5.302 4.292 6.221 8.551.26 1.219 1.789 1.644 2.533.497 3.016-4.655 10.923-4.016 13.817-.046.581.793 1.681.556 2.246-.18 1.054-1.394 1.595-2.848 2.146-4.509.208-.637.032-1.381-.492-1.733-.666-.441-1.369-1.171-2.107-1.978-1.315-.574-2.491-1.441-3.828-2.955a4.779 4.779 0 01-.975-1.953zM194.888 194.698a1.696 1.696 0 01-.096-.19c-.92-1.606-3.507-.23-2.579 1.391 1.506 2.636.688 6.358-.246 9.199-.408 1.212.769 2.473 1.906 1.803 2.011-1.181 4.456-.859 6.526-.352.849.202 1.852-.33 1.908-1.387.143-2.525 1.082-5.771-.069-8.074-1.239-2.478-5.075-2.153-7.35-2.39zm-1.94 11.857c1.296-3.202 2.035-7.7 1.038-11.053 1.623.76 3.386 1.187 5.023 1.19a12.206 12.206 0 002.349-.224c-1.015 3.036-1.02 6.383.013 9.276-2.616-1.012-5.546-.937-8.423.811zM59.841 196.401c3.028-.644 6.083-.361 8.728.779-2.635-1.136-5.689-1.42-8.728-.779zM241.545 209.788c1.061-.591 2.005-1.275 2.649-1.879a15.397 15.397 0 002.326-2.845c-.675 1.053-1.445 2.021-2.326 2.845-.64.593-1.588 1.288-2.649 1.879z" />
    <path
      d="M263.807 163.07c4.085-3.049 6.822-8.943 5.816-14.78 1.002 5.849-1.724 11.746-5.816 14.78zM265.156 169.039a11.128 11.128 0 00-2.624-2.484c.987.657 1.877 1.49 2.624 2.484zM238.445 229.594c1.121-1.227 1.901-2.69 2.366-4.249-.47 1.571-1.245 3.022-2.366 4.249z" />
    <path
      d="M82.624 205.727a11.13 11.13 0 00-1.542 1.12c-.41.357-.793.749-1.16 1.161-.943 1.183-1.642 2.556-2.097 4.119-.897.727-1.643 1.663-2.24 2.704.753-2.602.851-5.536.213-8.528-.47-2.264-1.4-4.162-2.648-5.684a12.183 12.183 0 00-4.568-3.435c-2.63-1.148-5.688-1.419-8.728-.778a16.688 16.688 0 00-3.007.941c-2.136.901-3.982 2.139-5.504 3.739-1.512 1.604-2.697 3.557-3.475 5.874-.248.715-.427 1.77-.537 2.874a14.66 14.66 0 00-.075 1.405c-.012.929.078 1.853.332 2.623.127.386.292.732.5 1.027.302 1.313 1.024 2.561 1.895 3.664.872 1.103 1.886 2.046 2.768 2.758 1.546 1.232 3.43 2.029 5.408 2.479 1.98.449 4.05.562 5.975.415 4.675-.35 8.123-2.74 10.111-6.188a19.186 19.186 0 00-.671 3.3c-.29 2.592.232 5.097 1.238 7.35 1.007 2.253 2.516 4.273 4.204 5.882 3.301 3.153 8.376 5.017 13.26 4.857 4.871-.163 9.54-2.354 11.982-7.325 2.169-4.397 2.402-9.726 1.162-14.529 1.188.189 2.503-.025 3.67-.527 2.5-1.091 4.243-2.824 5.575-5.094.447-.752.839-1.561 1.203-2.433a14.816 14.816 0 001.147-5.709c1.768 1.164 3.873 1.894 5.761 2.285 2.028.414 4.069.399 6.047-.045.994-.22 1.973-.538 2.925-.956a17.208 17.208 0 002.77-1.549 16.535 16.535 0 003.471-3.21 16.176 16.176 0 002.323-3.948c1.158-2.803 1.495-5.891.908-8.852 3.043 1.462 6.691 1.465 10.441-.44 5.105-2.591 9.053-8.327 10.024-14.137.238-1.44.212-2.763-.021-3.986a7.844 7.844 0 002.32.502c.365.021.716.012 1.067.002-1.887 4.192-1.951 9.462-.029 13.621 1.279 2.755 3.571 4.809 6.316 6.128-.304.197-.556.385-.758.539-.53.42-.996.941-1.466 1.474-.17.204-.343.381-.506.6a12.491 12.491 0 00-1.118 1.793c-.062.109-.114.223-.162.324-.718 1.537-1.087 3.209-.878 4.791a5.37 5.37 0 00-.295 3.037c.029.167.073.327.117.487-2.393-.186-4.838.136-7.033.99-2.809 1.088-5.093 2.989-6.749 5.331a16.637 16.637 0 00-2.452 5.178c-.427 1.519-.584 3.12-.562 4.703.019 1.307.128 2.605.468 3.879-.016.047-.017.086-.033.133-.008.023-.017.046-.01.062-.095.991.064 1.965.399 2.896.335.93.862 1.809 1.499 2.621 1.268 1.607 2.966 2.905 4.511 3.638 3.964 1.885 8.532 2.418 12.882 1.219 3.729-1.019 6.465-3.511 8.199-6.653a17.1 17.1 0 001.119-2.475c.458-1.286.787-2.63.968-4.012a20.43 20.43 0 00.109-4.151c1.294.383 2.809.343 4.205.039a23.31 23.31 0 00-.907 2.338 17.777 17.777 0 00-.568 2.141 14.836 14.836 0 00-.258 3.286 12.762 12.762 0 001.191 4.943c.7 1.49 1.674 2.799 2.84 3.912 1.093 1.036 2.305 1.942 3.694 2.554a13.826 13.826 0 005.695 1.186 13.869 13.869 0 004.077-.663c-1.158 3.486-1.358 7.501-.686 10.649a14.45 14.45 0 001.835 4.589 14.058 14.058 0 003.118 3.536 14.292 14.292 0 004.019 2.299c1.45.542 2.986.837 4.552.868-2.387 2.732-3.88 6.718-3.464 10.316a15.583 15.583 0 001.876 5.798c.007.016.008.042.026.062.984 1.746 2.284 3.26 3.806 4.417 1.523 1.158 3.265 1.972 5.139 2.333 1.873.36 3.867.263 5.896-.4 2.745-.9 5.048-2.82 6.74-5.268 2.839-4.072 4-9.579 2.844-14.155l-.102-.351c.162.069.35.069.523.142 4.908 1.845 10.981 1.152 15.349-2.036.827-.593 1.511-1.315 2.18-2.028 1.912-2.043 3.278-4.446 3.945-7.051.305-1.168.478-2.382.523-3.588.386.462.795.893 1.228 1.292 1.302 1.187 2.848 2.025 4.875 2.228 1.774.181 3.45 0 5.025-.57 1.571-.559 3.037-1.495 4.429-2.825a14.781 14.781 0 001.75-2.007 16.104 16.104 0 002.353-4.713c.267-.84.451-1.696.576-2.558.251-1.726.23-3.493-.091-5.18a13.977 13.977 0 00-1.83-4.784c-.542-.87-1.291-1.576-2-2.321-1.409-1.486-3.006-2.788-4.859-3.601a9.068 9.068 0 002.518-1.714c.41-.397.789-.843 1.104-1.325 2.255-3.355 2.338-8.501 1.747-12.133-.374-2.323-1.257-4.323-2.505-5.95a12.37 12.37 0 00-4.646-3.711 13.028 13.028 0 00-5.83-1.193c-2.03.058-4.111.585-6.066 1.641-8.718 4.674-8.09 17.473-2.056 23.411a13.908 13.908 0 002.76 2.099c-3.161 2.319-6.101 6.357-5.922 10.03-1.407-.632-2.934-.951-4.492-1.005-3.137-.115-6.436.816-9.332 2.439a20.393 20.393 0 00-3.964 2.881c-2.985 2.814-4.676 6.548-5.332 10.589-.244 1.491-.178 3.523.418 5.135-1.061-.486-2.148-.823-3.233-.95 2.905-4.338 4.169-10.098 3.029-14.866-.093-.413-.216-.81-.354-1.2.231.015.462.029.685.028.981-.002 1.97-.132 2.942-.36 2.922-.695 5.729-2.349 7.834-4.665 1.121-1.228 1.901-2.691 2.366-4.25 1.175-3.926.471-8.556-1.388-12.181a14.411 14.411 0 00-1.251-2.049c1.133-.225 2.314-.735 3.376-1.325 1.061-.591 2.005-1.275 2.649-1.88a15.39 15.39 0 002.326-2.844 16.86 16.86 0 001.667-3.415c.87-2.404 1.246-4.992.982-7.381-.024-.219-.063-.429-.087-.647 4.38 1.937 9.925 1.048 13.545-3.095 3.331-3.809 5.412-9.457 5.006-14.627 1.63 2.101 3.965 3.566 6.688 3.801 8.216.68 18.12-6.341 17.863-15.807-.248-9.134-7.927-14.158-15.917-11.621a15.772 15.772 0 00-5.25 2.829 15.968 15.968 0 00-3.907 4.687c-1.011 1.843-1.892 4.492-1.768 6.82a11.415 11.415 0 00-.184 2.431 10.83 10.83 0 00-2.626-2.485 11.476 11.476 0 00-3.184-1.484c1.574-.282 3.093-.977 4.45-1.991 4.085-3.049 6.822-8.943 5.816-14.78-.442-2.557-1.677-4.902-3.385-6.741.562-.226 1.103-.498 1.599-.747 2.104-1.096 3.566-3.058 4.55-5.252.326-.727.601-1.485.813-2.239a13.86 13.86 0 00.542-4.645 13.201 13.201 0 00-1.989-6.257 12.664 12.664 0 00-4.671-4.429 12.33 12.33 0 00-2.792-1.112c.875-.839 1.631-1.877 2.213-2.91 1.974-3.479 1.896-7.551.654-11.093-1.101-3.126-3.395-5.353-6.143-6.554 4.59-3.4 5.286-10.027 3.654-15.202-1.485-4.704-5.885-7.515-10.34-8.126a10.478 10.478 0 00-4.02.248c-1.307.335-2.569.896-3.753 1.628-1.773 1.106-3.382 2.597-4.698 4.282-.441.556-.842 1.14-1.225 1.742-.676 1.092-1.279 2.512-1.665 4.02-.386 1.507-.566 3.1-.393 4.499-.403 1.2.068 2.597.8 3.888s1.728 2.464 2.4 3.209a9.349 9.349 0 002.4 1.921c.874.487 1.804.81 2.751.98a18.038 18.038 0 00-2.344 3.469 20.324 20.324 0 00-1.565 4.014c-.746 2.762-.875 5.607-.186 7.986.66 2.251 2.566 4.487 4.842 5.906a10.51 10.51 0 002.381 1.114c-2.236 2.692-3.58 6.179-3.389 9.962a12.297 12.297 0 00-2.172-.897c-1.512-.472-3.139-.681-4.732-.668-.795 0-1.587.067-2.359.181-3.086.453-6.604 2.583-8.87 5.435 1.187-2.674 1.308-6.033.407-8.696-.024-.074-.052-.137-.076-.211 10.762 2.285 18.036-20.067 7.183-26.532-4.064-2.42-8.874-1.539-12.778 1.061.02-1.884-.75-3.818-1.814-5.474-.572-.894-1.335-1.592-2.23-2.125-.895-.534-1.906-.91-2.962-1.158-1.582-.377-3.272-.477-4.799-.442-.511.007-.997.049-1.468.083-.86.082-1.793.232-2.732.471-2.814.706-5.764 2.166-7.443 4.539a7.113 7.113 0 00-.617 1.1c-.898-1.849-2.199-3.468-3.675-4.794-3.154-2.826-7.581-3.624-11.827-2.903-1.701.29-3.361.819-4.908 1.557-.775.374-1.514.788-2.214 1.268-1.555 1.05-2.884 2.415-3.958 3.973a16.497 16.497 0 00-2.335 5.127c-.939 3.64-.579 7.547 1.527 10.745 2.263 3.424 5.683 5.266 9.629 5.556a14.11 14.11 0 00-.811 3.199l-.011-.004c-1.835-1.187-3.776-1.675-5.701-1.634-1.93.054-3.849.65-5.641 1.631a7.93 7.93 0 00-.001-1.143c-.424-4.651-3.372-7.747-6.72-10.299a15.468 15.468 0 00-2.539-1.59 13.948 13.948 0 00-2.679-1.007 13.319 13.319 0 00-2.745-.425 12.211 12.211 0 00-6.634 1.562c-2.066 1.162-3.911 2.978-5.351 5.486a14.767 14.767 0 00-1.298 2.991 14.453 14.453 0 00-.487 6.135 14.697 14.697 0 001.982 5.598c1.536 2.515 3.833 4.519 6.662 5.486 2.431.83 7.104.453 10.957-1.141-.491 1.918-.62 3.83-.057 5.286a14.152 14.152 0 00-5.523 2.223 12.873 12.873 0 00-2.348 2.01 18.725 18.725 0 00-2.13-4.954 11.695 11.695 0 00-2.477-2.88c-.955-.791-2-1.429-3.128-1.898-2.244-.936-4.776-1.222-7.262-.888-.614.089-1.264.244-1.927.474-.663.23-1.324.526-1.961.897a23.545 23.545 0 00-.227-4.61 20.987 20.987 0 00-1.151-4.417c-1.457-3.853-4.15-5.929-7.3-6.653-1.575-.361-3.267-.383-4.968-.132-1.232.19-2.466.564-3.68 1.023-.875.34-1.729.727-2.57 1.184a21.812 21.812 0 00-2.507 1.613c-2.5 1.879-4.567 4.262-5.677 6.963-.97 2.369-1.214 4.937-.415 7.539-1.583 6.07 3.902 11.516 9.741 13.434-4.312 2.485-7.432 7.051-8.082 12.722-.876 7.615 3.042 17.114 9.874 19.14-2.337 2.053-4.11 4.84-5.146 7.83-.13.375-.25.793-.352 1.231l-.087-.07a11.15 11.15 0 00-4.153-2.162 12.737 12.737 0 00-4.581-.392c-.781.071-1.557.196-2.326.376-1.544.371-3.046.98-4.463 1.776-.709.398-1.385.846-2.037 1.33-.868.644-1.705 1.484-2.453 2.459a14.625 14.625 0 00-1.88 3.17c-.967 2.252-1.255 4.66-.281 6.613-1.427.07-2.832.293-4.174.655-.733.219-1.417.546-2.077.909zm-21.927 16.289c-2.547-.278-6.084-1.78-7.918-3.938-1.62-1.914-3.552-3.753-3.321-6.496-.324-3.829 1.734-7.475 3.14-9.063 1.915-2.16 5.44-3.63 8.056-4.195 6.882-1.489 13.163 4.955 13.393 11.955.22 6.958-6.397 12.518-13.35 11.737zM163.5 127.762c-2.134 3.187-5.525 7.028-12.731 5.188-5.906-1.508-8.61-10.036-6.75-15.655 2.341-7.042 10.74-8.36 15.165-5.658 1.998 1.218 5.588 4.431 6.695 6.575 1.336 2.59-1.461 6.9-2.379 9.55zm-30.018 73.525c-2.541 1.746-7.04 3.339-10.666 2.201-2.987-.943-6.215-2.587-6.913-5.731a16.737 16.737 0 00-2.313-4.177c.083-4.501 2.659-8.533 4.94-10.461 4.792-4.052 14.246-4.151 18.275.554 3.953 4.6 1.233 14.492-3.323 17.614zm33.472 29.616c-3.031.617-8.356-.742-11.001-2.171-1.976-1.065-3.98-2.876-3.767-5.783-.665-6.245-.139-13.889 6.096-16.982 5.773-2.871 15.515-.901 17.99 4.921 2.752 6.456 1.006 17.906-9.318 20.015zm17.706-18.974c-2.008 1.248-4.549 1.812-5.99-.906-1.434-4.135-4.815-6.843-8.744-8.073l-.123-.397c-.233-.475-.543-.976-.685-1.498a3.841 3.841 0 01-.099-.468c-.189-2.534.451-6.672 2.903-9.093.79-.776 3.196-.52 4.055-.814 3.332.59 6.835.294 9.724-.951.056-.02 3.574-1.611 2.538-.985 4.583 2.927 4.13 11.004 2.587 16.064-.742 2.5-3.987 5.775-6.166 7.121zm9.312-33.963c.108-.133.212-.255.32-.388 1.132-4.519 5.566-7.934 10.105-6.991 5.465 1.132 9.342 6.992 7.556 12.611-1.85 5.768-7.567 11.023-13.447 10.837-2.322-.069-6.071-2.393-6.736-4.987-.252-.993-.795-1.287-.725-2.063-.178-.311.174-1.148-.018-1.451 1.598-2.178 2.556-4.8 2.945-7.568zm12.659 14.826c4.773-5.109 14.28-5.111 17.438 1.249 2.822 5.68 1.157 16.252-4.909 18.93-5.201 2.295-11.235.69-13.202-3.59-.098-.073-.381-1.012-.473-.925-.114-.21-1.895-4.058-2.016-5.86-.205-3.669.592-7.043 3.162-9.804zm-6.232 13.757c-2.074-.495-4.526-.833-6.526.352-1.137.67-2.314-.591-1.906-1.803.934-2.841 1.756-6.574.246-9.199-.928-1.621 1.659-2.997 2.579-1.391.039.066.067.128.096.19 2.264.234 6.115-.1 7.35 2.39 1.151 2.303.208 5.561.069 8.074-.056 1.057-1.059 1.589-1.908 1.387zm21.17-18.797c-2.528-1.336-5.523-1.573-8.457-.987.131-.27.247-.532.366-.806 1.618-3.917 1.116-7.912-.648-11.202-.003-.028-.501-1.238-.504-1.265-.533-3.442 4.277-6.686 6.849-7.555 3.698-1.253 10.122.014 12.851 2.812 3.2 3.301 2.251 10.983.084 14.658-2.076 3.483-6.915 7.098-10.541 4.345zm-24.948 45.354c-6.17 1.329-12.282-5.529-12.095-11.834.158-5.329 5.239-10.752 9.814-12.528 1.603-.758 3.148-1.063 4.145-.967 3.827.38 7.244 4.952 8.682 8.576 2.67 6.69-3.836 15.296-10.546 16.753zm60.722-35.059c5.483-1.856 13.577 1.145 14.285 6.696.313 2.498.595 8.991-1.117 10.959-1.384 1.595-5.279 3.633-8.39 2.976-.137-.035-2.747.335-2.814.456-8.474-.795-11.691-17.8-1.964-21.087zm3.674 23.637c4.346-1.187 11.197 3.288 13.439 7.059 2.393 4.02.916 10.862-2.177 14.308-1.652 1.831-6.089 3.892-9.063 3.518-1.746-.224-4.319-1.825-5.73-4.415-.399-2.502-1.348-4.919-2.889-7.028-.452-.63-2.036-2.216-2.575-2.705.055-4.275 5.402-9.75 8.995-10.737zm-26.477 15.382c4.946-4.498 15.112-5.112 18.608.775 3.286 5.524 1.312 15.517-4.063 18.566-2.612 1.485-7.829 2.106-10.653 1.876-2.936-.229-5.402-2.856-7.499-5.29-.219-2.164-1.415-4.837-1.076-7.175.492-3.389 2.282-6.551 4.683-8.752zm-10.745 16.146c3.227.251 7.925 4.098 9.222 7.017 2.224 4.972-1.814 14.762-8.706 17.39-5.49 2.09-12.238-5.619-13.278-10.497-1.149-5.388 4.108-9.279 7.663-12.302 1.391-1.042 3.745-1.71 5.099-1.608zm-6.707.302c-5.477 2.948-13.505-1.567-15.462-6.881-1.038-2.842-.624-7.045.161-9.99.246-.926.951-1.851 1.755-2.701 3.057-4.562 8.586-6.73 13.073-5.031l.023.008.011.004c.295.115.582.254.865.405 2.771 1.17 6.195 4.471 7.279 7 2.285 5.296-2.898 14.597-7.705 17.186zm21.502-28.137c-.874 2.953-6.185 5.315-8.611 6.405-1.998.897-3.94.053-5.717-1.587-1.34-1.396-4.83-2.894-6.631-3.571a23.677 23.677 0 00-.384-2.471c-.026.109.019.23-.017.336-1.035 3.344-5.529 3.061-8.049 3.422-.341.053-.681-.078-.974-.271a.156.156 0 01-.085-.004l.02-.058c-.607-.434-.954-1.224-.347-1.972 1.94-2.375 2.01-6.159 1.294-8.928-.46-1.788 2.125-2.442 2.725-.842 1.171-1.052 2.705-1.111 3.81.572.479.73.767 1.618.999 2.526.042-.839.171-1.714.459-2.651.139-.438 2.138-.941 2.335-1.332.707-.32 1.362-.67 1.973-1.037 1.424-.885 3.749-3.979 4.72-5.206 2.006-.487 4.924-.132 6.712.579 4.297 1.712 7.122 11.503 5.768 16.09zm4.556-19.38c-1.163 1.566-4 2.947-5.797 3.336-.938.2-1.738-.931-3.062-1.731-2.044-1.155-4.422-1.743-6.806-1.702 1.459-4.786.706-10.313-1.936-14.472-.007-.016-.014-.031-.025-.035 2.668-.284 6.979-3.951 9.061-6.487 5.528-1.052 12.239 3.611 12.359 10.179.044 3.023-2.037 8.526-3.794 10.912zm25.32-44.491c1.1-2.494 3.839-4.92 6.069-6.196 5.547-3.187 14.601.266 15.237 6.921 1.023 10.729-10.219 14.949-15.508 14.705-5.461-.25-7.398-5.728-7.318-11.045.156-.629 1.233-3.736 1.52-4.385zm-1.711-14.118c.723 3.179.259 8.743-1.897 11.135-2.904 3.222-5.227 5.201-8.828 5.24-.037.001-4.13-.472-4.171-.46-1.122-.56-3.262-2.693-4.165-3.741-1.426-1.65-2.643-3.976-.523-7.194 2.228-2.419 3.717-5.606 4.262-8.898.569-2.285 4.192-4.47 6.814-3.942 3.505.702 7.685 4.291 8.508 7.86zm-3.342-27.567c4.534 1.242 8.575 7.2 7.222 11.892-.832 2.903-3.395 9.513-7.878 7.158a11.747 11.747 0 00-3.224-1.156c-2.5-.485-5.652.051-7.954 1.682-.015-.136-.015-.28-.029-.417-.258-2.23-1.141-3.98-2.42-5.303-1.017-9.886 6.419-16.017 14.283-13.856zm-18.296-23.7c-1.171-.669-2.941-3.081-3.821-4.16-1.91-3.513.219-9.301 2.942-12.074 3.005-2.833 7.396-5.37 10.598-4.404 2.734.816 6.559 3.888 7.249 6.766.913 3.85 1.321 9.296-3.017 13.4a12.483 12.483 0 00-6.998.28c-2.574.947-5.06 1.281-6.953.192zm-.15 17.085c-.925-3.669 1.558-10.478 4.18-12.958 3.599-3.401 11.396-4.022 15.369 2.384 1.17 1.89.919 6.662.335 8.849-.652 2.453-2.688 5.07-5.938 4.995-.075 0 .042-.157-.099.215-.874.157-1.743.407-2.576.736-5.528 2.129-10.178.111-11.271-4.221zm-14.688 23.945c1.95-2.082 5.596-4.797 8.203-4.905 3.816-.162 11.215 3.269 10.94 7.717-.29 4.706-2.674 9.041-5.026 11.246-2.015 1.876-4.384 2.552-6.701 2.577 2.125.027 4.277-.094 6.219 1.104 1.349.835 2.028 2.817 2.909 4.107 1.333 1.92 2.842 3.651 4.84 4.763 1.141.645.487 2.428-.593 2.75-3.971 1.145-5.952 4.858-7.311 8.852.997-2.413 2.775-4.357 4.655-5.951 4.262-3.632 13.136-3.131 15.318 2.247 1.638 4.048 2.347 10.203-1.338 15.466-3.993 5.721-11.894 6.03-16.237-.347a12.179 12.179 0 00-1.968-1.877c-1.371-3.206-1.448-5.886-.838-8.183-.604 1.958-1.096 3.915-1.63 5.634-.177.582-.861 1.159-1.454 1.046a29.273 29.273 0 00-4.801-.508c-.753-.012-1.362-.761-1.279-1.573.38-3.676 1.109-7.784-.354-11.193-1.399-3.268-4.013-4.319-6.896-5.777-.717-.367-1.339-1.436-.64-2.271 1.973-2.363 3.219-5.03 4.135-7.996.329-1.055 1.307-1.228 2.005-.842.265-.157.575-.155.875-.09-.529-.157-1.107-.279-1.591-.46-.253-1.991-1.274-7.283-2.175-9.053-.839-2.234-.817-4.84.733-6.483zm-2.167 9.834c.826 3.097.983 8.483-.266 11.477-1.516 3.625-6.587 3.824-9.702 5.293-.184.067-2.954 1.327-3.128 1.398-1.412-.187-2.541-.474-3.587-.928.738.807 1.452 1.54 2.107 1.977.523.352.7 1.097.491 1.733-.554 1.673-1.106 3.123-2.145 4.51-.559.752-1.669.984-2.247.18-2.893-3.97-10.801-4.609-13.816.045-.745 1.147-2.277.734-2.533-.497-.909-4.254-3.23-6.87-6.222-8.55 1.398 1.233 2.608 2.754 3.378 4.256 2.785 5.324 1.992 15.096-4.941 19.023-4.912 2.789-13.49 1.432-17.563-3.788-2.912-3.74-.991-10.179 1.335-14.599 1.999-.897 4.948-4.287 6.253-6.12 1.735-.528 3.478-.83 5.306-.985a45.88 45.88 0 00-2.208-.397c-.992-.147-1.614-.572-2.064-1.136-.03.016-.067.016-.094.021.012-.036.01-.063.022-.098-1.553-2.074-.292-6.286-.474-9.055a1.69 1.69 0 011.733-1.815 3.885 3.885 0 011.281-.975c1.406-.655 2.481-.138 3.341.816.031-.015.057-.019.076-.039a.43.43 0 01-.019.125c1.239 1.44 2.014 3.823 2.635 5.076 3.185 6.566 11.638 5.739 17.406 4.206 1.436-.383 2.807.21 4.118 1.19-.188-.748-.229-1.524-.318-2.343.151-.184 1.535-1.385 1.679-1.585 1.961-2.721 2.262-8.75 1.96-11.888.533-1.325 1.636-2.072 2.846-3.164 1.721-1.53 4.957-1.341 7.007-1.169 3.766.306 7.362 4.113 8.353 7.805zm-39.342-7.053c2.897-5.208 11.267-5.078 15.257-1.516 5.765 5.176 4.123 16.61-3.443 19.464-6.65 2.502-15.333-1.058-15.347-9.218-.019-3.421 1.395-6.569 3.533-8.73zm-5.358-15.409c-.736-2.999 1.432-7.212 3.51-8.409 2.073-1.186 4.486-2.346 6.725-2.148 2.277.198 8.051 2.448 9.167 4.49 1.642 2.998-2.378 8.224-1.667 11.438-.179 1.448-.126 2.871.249 4.117-3.752-1.208-8.775-.716-12.355 1.629-.548-4.182-2.82-8.265-5.629-11.117zm37.783-18.031c2.654-4.044 9.856-6.67 13.672-4.323 4.12 2.543 5.296 11.973 3.364 15.899-1.967 3.994-7.768 9.311-11.372 5.029-1.59-2.219-5.875-4.859-8.309-5.965-.875-3.599.356-7.152 2.645-10.64zm-4.13 13.422c2.862 1.017 8.097 5.143 9.283 8.023 1.288 3.125 1.197 6.967-.651 11.12-2.206-.869-7.318-2.483-9.785-2.169-2.478.31-5.355 2.058-7.013 4.372-.895-1.965-3.524-4.727-5.072-6.065.001-.039-.188-2.967-.198-3.01-1.339-8.133 5.505-15.098 13.436-12.271zm-13.147-23.663c.031-.016.079-.012.12-.024 2.533-1.972 6.269-2.477 9.161-1.868 3.541.74 7.302 2.28 7.935 6.399.224 1.431-.381 2.639-1.255 3.729l.007.015a18.39 18.39 0 00-.919 1.113c-2.004 2.667-3.3 6.657-2.92 9.967.048.397.133.834.255 1.27a12.704 12.704 0 00-2.143-.047c-.083-.12-4.281-.183-6.029.708-3.659 1.858-2.592-.254-3.87-.434-1.472-2.559-3.81-4.157-6.45-4.954 1.785-2.178 2.604-5.296 2.66-8.178a9.844 9.844 0 00-.054-1.241c.063-.004.192.054.19-.012-.007-.265.007-.379.014-.468-.755-1.798 2.346-5.517 3.298-5.975zm-21.985 20.865c-3.039-.186-6.6-3.337-8.519-5.788-3.415-4.361-.457-12.542 3.783-15.393 3.658-2.462 10.757-4.112 14.437-2.089 1.99 1.097 5.277 5.256 6.08 7.452 1.305 3.577-.498 8.888-4.217 10.2-3.141.041-6.35 1.279-8.865 3.415-.536.077-2.141 2.239-2.699 2.203zm-16.403 11.021c2.696-4.056 8.967-6.86 13.151-4.61 3.663 1.966 7.354 8.721 7.907 12.891.411 3.111-3.728 8.61-6.208 10.18-1.767 1.122-3.637 1.577-5.136-.65-2.257-3.658-6.038-6.216-10.284-6.82a16.19 16.19 0 00-1.368-.133c-2.621-4.257.558-8.776 1.938-10.858zm-.387 13.615c4.853 1.182 9.698 6.827 9.61 12.168-.107 6.253-5.902 14.094-11.881 12.259-2.521-.782-5.763-2.851-7.646-4.725-1.501-1.505-4.711-3.379-3.362-7.416a16.044 16.044 0 001.234-5.889c1.885-5.334 7.401-7.534 12.045-6.397zm-10.437 21.492c3.423 2.118 5.682 6.88 4.463 10.936-1.045 3.446-5.715 8.722-8.609 10.556-4.74 3.006-9.936.379-13.401-4.591-.59-.52-1.208-.957-1.876-1.32a8.681 8.681 0 001.199-.845c2.864-2.501 3.939-6.856 3.953-10.515a22.51 22.51 0 00-.267-3.454c3.578-3.343 10.862-3.052 14.538-.767zm-21.67-24.817c.925-2.24 2.606-3.115 4.888-3.257 3.771-.243 8.783 1.336 10.565 4.646 1.854 3.426 2.68 9.28 1.18 12.963-1.503 3.694-2.588 5.105-6.757 6.392-.474.15-3.218 1.156-3.2 1.176a8.785 8.785 0 00-.383.248c-2.062-6.086-6.833-10.654-12.865-12.048 3.374-2.324 5.571-6.015 6.572-10.12zm-26.456-1.8c.022-.386.624-4.774.355-4.893 2.117-8.223 15.555-14.519 21.305-7.904 4.63 5.334 1.996 19.274-4.083 22.814-8.062 4.679-17.933-1.683-17.577-10.017zm5.696 38.323c-1.922-2.583-2.208-6.556-2.574-9.834-.807-7.161 5.624-13.653 12.057-14.273 6.713-.642 13.176 4.631 15.351 10.782 1.039 2.947.755 8.101-.442 11.088-1.095 2.733-2.989 3.219-5.093 4.565-.27.169-2.123-.25-2.146.031-2.907-.062-8.025 1.277-10.729 2.599-2.272-1.287-4.714-2.658-6.424-4.958zm-17.36 18.87c3.573-2.504 9.581-4.191 13.106-2.116 3.889 2.28 7.185 9.423 6.616 13.966-.299 2.366-2.795 5.953-4.398 7.643-1.484 1.56-4.792 1.938-6.465-.218-1.345-2.672-3.193-4.967-5.454-6.538-1.982-1.37-5.344-2.233-7.78-2.473-.976-3.595 1.688-8.384 4.375-10.264zm-3.8 12.433c7.37 1.188 17.099 12.438 12.256 22.369-.062.32-.479.451-.57.748-2.396 8.349-12.92 9.312-21.377 4.53-1.59-.892-3.44-3.897-4.01-5.907-4.354-9.244 1.795-23.659 13.702-21.74z" />
    <path
      d="M267.362 195.595a12.426 12.426 0 014.646 3.711 12.577 12.577 0 00-4.646-3.711zM150.043 213.736zM182.059 223.412a12.762 12.762 0 001.191 4.943 12.948 12.948 0 01-1.191-4.943zM210.816 273.402a15.925 15.925 0 01-1.876-5.797c.25 2.108.91 4.071 1.876 5.797zM245.553 348.468l.027-.078a1.785 1.785 0 01-.027.078zM246.392 338.534a15.61 15.61 0 00-.989-3.127c-.879-2.012-2.316-3.56-4.019-4.768 1.714 1.211 3.14 2.756 4.019 4.768.427.988.759 2.036.989 3.127z" />
    <path
      d="M213.601 345.096c1.637 5.019 5.068 9.622 9.415 12.192 6.433 3.818 13.697 2.553 18.582-2.517a17.688 17.688 0 002.229-2.852 21.057 21.057 0 001.743-3.454l.028-.082a17.506 17.506 0 001.111-4.855c.138-1.686.04-3.374-.301-5.003a15.624 15.624 0 00-.99-3.126c-.879-2.012-2.315-3.56-4.019-4.768-2.848-2.024-6.468-3.147-9.559-4.074-4.309-1.283-8.632-.732-12.224 2.541-1.83 1.664-3.666 4.35-4.326 7.076-1.949 2.437-2.835 5.426-1.689 8.922zm4.352-10.626c.727-1.022 2.518-3.435 3.55-4.298 3.174-2.643 7.902-2.213 11.149-1.232 6.897 2.087 13.766 9.34 11.113 17.534-2.391 7.366-12.384 11.599-18.402 9.054-3.158-1.344-7.176-6.295-8.869-9.324-2.186-3.936.048-7.876 1.459-11.734zM249.634 259.841c-1.027.813-1.808 1.671-2.429 2.638.621-.967 1.409-1.81 2.429-2.638zM268.291 284.151a13.45 13.45 0 005.678-3.994 14.123 14.123 0 001.927-2.983 14.68 14.68 0 01-1.927 2.983c-1.576 1.897-3.541 3.199-5.678 3.994z" />
    <path
      d="M249.772 279.206c3.454 4.217 9.566 6.492 15.218 5.759a15.329 15.329 0 003.309-.811 13.458 13.458 0 005.678-3.994 13.965 13.965 0 001.927-2.983 13.25 13.25 0 001.06-3.165c.322-1.609.357-3.252.141-4.85-.531-4.018-2.619-7.841-5.519-10.54a16.32 16.32 0 00-1.834-1.476c-3.522-2.442-8.182-2.783-12.289-1.461-1.633.524-3.36 1.423-4.729 2.616-1.027.314-2.048.683-3.113 1.535-1.026.813-1.808 1.672-2.428 2.638-.621.967-1.073 2.058-1.423 3.355a10.416 10.416 0 00-.32 3.645c.1 1.217.379 2.416.782 3.58.815 2.305 2.145 4.447 3.54 6.152zm10.358-21.546c.239-.009.442.048.677.051 3.69-.298 7.132.908 9.916 3.869 7.017 7.434 4.048 20.694-7.305 20.686-4.516-.002-8.893-1.125-12.14-4.469-2.743-2.828-4.323-8.117-2.841-12.107 1.621-4.429 7.316-7.827 11.693-8.03z" />
    <path
      d="M277.105 269.162c.212 1.61.181 3.241-.141 4.85.333-1.605.368-3.248.141-4.85zM1.316 218.315c-3.13 6.742 2.436 11.954 8.386 14.948a31.578 31.578 0 003.223 1.406c1.583.588 3.078 1.001 4.33 1.224 2.712.48 5.483.219 8.066-.645.859-.294 1.7-.645 2.503-1.063 4.285-2.232 7.659-6.237 8.568-11.332.23-1.273.31-2.612.207-4a23.294 23.294 0 00-.405-2.95 24.507 24.507 0 00-.772-2.894 23.433 23.433 0 00-2.553-5.31c-3.528-5.399-9.247-8.772-15.977-6.757-6.165 1.855-15.226 9.668-15.576 17.373zm3.29-3.443c2.141-4.064 5.484-8.553 9.776-10.23.506-.35 1.006-.755 1.52-.984 8.43-3.842 17.395 7.354 18.416 15.009.172 1.294.007 2.524-.303 3.703-.679 3.679-3.649 7.128-6.868 9.256-5.512 3.658-12.52 2.109-17.595-1.12-5.165-3.287-8.222-9.402-4.945-15.634zM308.667 117.445a11.506 11.506 0 010 0zM340.446 97.938a12.578 12.578 0 00-2.742-5.126 12.702 12.702 0 012.742 5.126zM331.17 89.064c-3.69-.596-7.638.806-10.31 4.004 2.672-3.198 6.624-4.612 10.31-4.004zM326.755 129.018c-1.036.626-1.975.865-3.127.821-.749-.023-1.348.058-1.963.58-.661.546-.74 1.635-.922 2.412a48.994 48.994 0 00-.816 4.537c-.104.804.538 1.565 1.28 1.573 1.35.008 2.573-.514 3.154-1.941.75-1.841 1.086-3.563 2.788-4.786.114-.078.206-.165.287-.255.167-.087.325-.15.485-.252 1.616-.976.455-3.677-1.166-2.689zm-3.41 8.3a10.881 10.881 0 00-2.643.213c.931-2.185 1.378-4.512 1.298-6.825 1.783.513 3.667.128 5.394-.81-2.245 2.072-4.158 4.836-4.049 7.422zM284.798 86.784a17.057 17.057 0 00-1.992 4.247c-.268.88-.45 1.762-.53 2.64.096-.886.266-1.772.541-2.636a16.194 16.194 0 011.981-4.251zM296.693 139.704c-1.152-2.907-1.493-6.256-.927-9.395-.577 3.135-.225 6.488.927 9.395zM313.508 106.555c-.622.507-1.581 1.698-2.473 3.162.907-1.472 1.851-2.655 2.473-3.162zM333.065 113.148c.883 2.643 1.196 5.536.608 8.273.588-2.737.29-5.638-.608-8.273zM343.129 165.722a13.165 13.165 0 01.781-5.048c-.607 1.681-.864 3.391-.781 5.048zM332.784 124.081c-.628 1.345-1.545 2.63-2.631 3.724a13.163 13.163 0 002.631-3.724z" />
    <path
      d="M308.595 88.24c-2.035-5.3-7.422-8.165-12.696-8.023-4.546.119-8.581 2.7-11.101 6.567a17.057 17.057 0 00-1.992 4.247c-.268.88-.448 1.763-.54 2.637a14.17 14.17 0 00-.023 2.645 14.444 14.444 0 001.368 5.004c.401.849.91 1.458 1.485 1.841-1.172 1.341-2.111 2.867-2.671 4.485-.572 1.614-.773 3.304-.485 4.98-.38 2.744-.104 5.493 1.279 7.915.959 1.672 2.509 2.643 4.235 3.214 1.732.587 3.651.78 5.348.934 1.7.143 4.042.153 6.207-.292-1.633 1.417-2.768 3.296-3.248 5.9-.578 3.136-.226 6.488.926 9.396.383.973.86 1.887 1.422 2.738 1.785 2.693 4.067 4.272 6.542 4.867-.31.641-.549 1.333-.742 2.067a12.647 12.647 0 00-.356 2.319c-.104 1.698.294 3.95 1.142 5.872.288.638.614 1.237.998 1.777-2.055.628-3.953 1.809-5.394 3.568-2.015 1.482-3.255 3.521-3.943 6.579-.841 3.753.095 7.426 2.115 10.372 3.922 5.731 13.138 6.102 18.054.976 1.48-1.549 2.53-3.47 3.129-5.521a15.45 15.45 0 00.62-4.224 14.776 14.776 0 00-.557-4.159 12.702 12.702 0 00-.725-1.919c2.165-.195 4.412-1.701 6.257-3.085a17.11 17.11 0 004.218-4.618 16.666 16.666 0 001.405-2.836c.379-.985.654-2.032.822-3.09.014-.074.012-.14.021-.203 3.159 1.056 7.421.182 10.435-1.282.132-.059.246-.138.383-.209.379 1.878 1.652 3.685 2.863 4.774.484.43 1.1.801 1.77 1.086-.872.906-1.603 1.835-2.085 2.653a14.641 14.641 0 00-1.167 2.471 13.165 13.165 0 00-.781 5.048 11.882 11.882 0 001.176 4.702 11.235 11.235 0 005.093 5.179c7.103 3.604 16.423.096 18.986-8.484 2.199-7.314-2.001-14.246-8.143-15.862 5.889-3.422 7.999-14.273 2.512-18.853-3.188-2.655-7.5-3.177-11.52-2.39a7.783 7.783 0 00-1.926.685 9.205 9.205 0 00-1.93 1.275c-1.147-2.315-2.753-3.948-4.653-4.948a10.21 10.21 0 00-1.98-.804c-.688-.199-1.4-.328-2.122-.394-2.18-.191-4.511.197-6.79 1.114a10.47 10.47 0 00-1.661.856 13.259 13.259 0 002.63-3.724 12.43 12.43 0 00.885-2.661c.589-2.738.28-5.642-.608-8.274.911-.302 1.783-.775 2.598-1.372 1.63-1.195 3.009-2.884 3.936-4.769.463-.943.808-1.939 1.004-2.935.437-2.12.355-4.21-.158-6.135a12.565 12.565 0 00-2.741-5.126 12.5 12.5 0 00-2.999-2.483 10.114 10.114 0 00-3.54-1.28c-3.691-.595-7.639.807-10.311 4.005-2.332 2.79-4.496 8.068-3.248 11.166a14.222 14.222 0 00-4.106 2.32c-.622.507-1.581 1.698-2.473 3.162a21.941 21.941 0 00-1.623 3.18c-.669 1.646-1.034 3.306-.729 4.54-.666.059-1.31.164-1.964.331 1.005-2.042 1.61-4.288 1.867-6.641.201-1.835.043-3.492-.397-4.944a10.35 10.35 0 00-2.107-3.803c3.433-3.21 4.125-9.864 2.504-14.103zm-23.849 6.327c-.096-2.765 1.891-5.49 3.41-7.762 2.157-3.218 5.724-4.7 9.142-4.357 3.314.322 7.565 3.489 8.837 6.66 1.559 3.916.108 8.535-1.634 11.556-2.569-1.324-7.548-2.787-10.537-2.47-2.166.235-5.572 1.576-7.488 2.987-1.149-1.055-1.683-5.35-1.73-6.614zM316.065 178c-2.663 3.923-8.473 6.007-14.964.921-4.305-3.369-3.871-12.359 1.509-15.958 5.312-3.727 10.389-.615 12.701 1.131 3.348 2.513 2.976 10.644.754 13.906zm1.526-15.401c-.011-.003-.651-.593-.662-.597-1.685-1.726-6.761-3.196-9.052-3.53-2.344-1.797-2.33-5.167-1.369-8.551.376-1.301.897-2.302 2.683-2.55 2.809-.55 5.607-2.141 7.993-4.585.403-.411 2.084-2.613 2.447-3.052 2.704.254 5.981.326 7.868 2.293 1.869 1.948 2.939 7.099 2.518 9.711-.862 5.282-7.723 9.431-12.426 10.861zm41.816-8.754c4.703.251 8.409 4.779 7.117 10.083-1.582 6.464-8.173 12.27-14.799 10.617-6.51-1.625-8.594-10.62-4.162-16.281 1.977-2.519 7.371-5.194 9.306-4.222.011.004.305-.629.316-.625.509.071 1.764.138 2.222.428zm-6.783-22.114c2.291-.454 5.835.459 7.826 1.517 3.241 1.714 4.071 7.307 2.962 11.401-.783 2.906-5.257 6.254-8.31 6.326-1.215.104-4.505 1.971-5.741 2.672-1.133-.169-1.39-.573-2.381-1.153-1.071-.634-2.738-3.129-1.882-4.631 3.391-3.198 4.163-9.615 3.128-14.15 1.009-.583 3.077-1.717 4.398-1.982zm-20.565-2.543c4.445-2.439 10.886-.863 13.235 3.496 2.292 4.274 2.111 10.883-3.8 14.836-1.875 1.255-6.432 2.157-8.555 2.052-.819-.034-1.017-1.219-1.092-2.794-.235-2.367-1.014-4.594-2.501-6.501-.805-1.041-3.14-2.756-4.238-3.241.821-3.012 4.485-6.496 6.951-7.848zm-4.138 2.519c-.156.09-.318.165-.485.252-.081.09-.173.177-.287.255-1.713 1.219-2.038 2.945-2.788 4.786-.585 1.439-1.793 1.953-3.154 1.941-.742-.008-1.384-.769-1.28-1.573.204-1.518.482-3.037.816-4.537.182-.777.261-1.866.922-2.412.626-.518 1.214-.603 1.963-.58 1.152.044 2.091-.195 3.127-.821 1.621-.988 2.782 1.713 1.166 2.689zm-3.667-38.946c2.635-2.304 7.844-1.865 10.357-.128 2.601 1.807 4.761 7.034 4.044 10.357-.722 3.375-4.406 8.848-7.45 6.244a14.722 14.722 0 00-1.821-2.338c-2.249-2.356-6.289-3.375-9.189-3.316-.563-1.206-.802-2.878-.112-4.727.663-1.806 2.783-4.88 4.171-6.092zm-9.754 15.937c3.448-3.611 10.142-3.196 13.174.087.272.291 2.603 3.843 2.769 3.901 1.216 2.614 1.024 7.682.171 10.539-1.269 4.235-6.259 6.459-9.116 3.958a15.79 15.79 0 00-1.869-4.311c-1.845-2.95-6.084-4.971-9.153-5.535-.479-1.624 3.032-7.604 4.024-8.639zm-11.137 13.659c.276-.259.534-.537.792-.815 3.782-2.787 9.894-2.087 12.633 1.147 4.832 5.719 1.679 12.847-.792 16.863-3.105 5.056-11.541 6.48-15.337 2-4.269-5.051-3.087-11.615.502-16.635.303-.447 2.512-2.308 2.202-2.56zm2.295-12.245c-.224 2.365-.969 7.846-3.653 9.647-2.437 1.625-6.915 2.87-9.502 2.709-3.34-.211-7.407-2.369-8.384-6.175-.245-.978-.111-3.334-.247-4.34.275-2.045 1.037-4.71 2.207-6.655 1.539-2.579 5.283-4.144 7.913-4.678 5.755-1.17 12.243 3.349 11.666 9.492zM214.156 90.304a2.734 2.734 0 00-1.077-.688c-4.583-1.496-7.979-3.907-9.65-8.754-.066-.168-.168-.269-.242-.412-.188-2.574.197-5.225 1.148-7.22-2.633 5.523-1.934 13.106 5.554 16.029 1.311.586 2.768.894 4.267 1.045z" />
    <path
      d="M203.431 80.862c1.676 4.835 5.068 7.258 9.65 8.754.47.15.802.41 1.077.689 1.176.118 2.368.15 3.551-.004.195-.025.394-.061.577-.09 1.106-.181 2.206-.456 3.241-.899.015-.008.026-.004.041-.012 1.019-.434 1.957-1.029 2.827-1.712.206-.165.401-.334.596-.503.842-.746 1.611-1.569 2.222-2.579 3.959-6.52 2.167-16.281-4.415-19.206-6.671-2.954-15.103.821-18.497 7.931-.948 1.983-1.322 4.638-1.149 7.22.108.155.224.248.279.411zm3.842-8.006c2.511-4.382 9.954-7.345 14.118-5.036 4.623 2.56 5.983 11.529 3.522 15.732-2.395 4.081-9.064 5.92-14.08 3.42-2.601-1.124-4.039-2.384-4.929-4.544-1.006-2.502.042-7.247 1.369-9.572z" />
    <path
      d="M214.282 90.374c1.131.103 2.288.058 3.441-.081-1.183.154-2.387.118-3.551.004.014.03.07.05.11.077zM97.41 253.568a18.328 18.328 0 01.735-6.35 18.056 18.056 0 00-.736 6.35zM127.256 291.776c-.925 2.241-2.009 4.294-3.478 5.847 1.458-1.556 2.553-3.606 3.478-5.847zM116.277 266.881a15.07 15.07 0 002.942-.87c-.954.391-1.946.677-2.942.87zM110.551 299.922c-2.426-.736-4.618-2.073-6.147-4.179 1.525 2.117 3.721 3.443 6.147 4.179zM114.297 300.602c1.269.099 2.534.064 3.735-.071a8.861 8.861 0 003.228-.97 9.006 9.006 0 01-3.228.97 20.459 20.459 0 01-3.735.071zM104.999 269.619c-4.354 3.075-6.492 7.705-7.223 10.997.572-2.402 1.921-4.863 3.826-6.133.598-1.907 1.716-3.555 3.397-4.864z" />
    <path
      d="M104.999 269.619c-1.681 1.309-2.785 2.962-3.399 4.876-1.905 1.271-3.254 3.732-3.826 6.134a9.714 9.714 0 00-.163.902c-.1.648-.186 1.288-.154 1.877l-.004.011c.034.511.146 1.01.327 1.493.356.977.941 1.902 1.533 2.737.302.42.596.824.861 1.205 1.549 2.191 2.651 4.713 4.23 6.889 1.529 2.106 3.726 3.431 6.147 4.179 1.213.367 2.477.582 3.746.68 1.269.099 2.534.064 3.735-.071a8.861 8.861 0 003.228-.97c.954-.496 1.778-1.157 2.505-1.929 1.469-1.553 2.553-3.607 3.478-5.847a22.468 22.468 0 001.125-3.497c.839-3.531.813-7.112-.106-10.332-.61-2.142-1.609-4.13-3.009-5.823a15.133 15.133 0 00-5.373-4.12 14.776 14.776 0 00-3.615-1.135 15.024 15.024 0 008.195-4.488c.78-.82 1.5-1.752 2.142-2.817a14.07 14.07 0 001.518-3.413c.339-1.157.499-2.336.528-3.494.051-2.333-.468-4.667-1.395-6.826-1.85-4.332-5.322-8.03-9.031-9.932-4.952-2.543-14.175.078-16.894 5.847-1.496 1.451-2.546 3.372-3.183 5.463a18.056 18.056 0 00-.736 6.35c.305 4.886 2.29 8.253 6.175 10.689a18.736 18.736 0 007.43 2.732 17.995 17.995 0 00-3.868 1.313c-.79.382-1.477.853-2.147 1.317zm.219-7.107c-6.012-3.134-6.178-10.427-4.706-16.181.103-.083 1.258-2.02 1.296-2.164 1.826-6.236 10.929-8.833 15.925-6.275 8.757 4.492 10.347 14.551 6.727 20.664-3.711 6.304-10.042 8.746-19.242 3.956zm4.173 7.408c3.013-1.031 6.998-1.108 9.621.418 5.981 3.478 9.594 10.888 7.231 17.634-1.298 3.713-5.055 9.397-8.881 10.16-3.987.798-9.793-2.29-12.114-5.511-1.694-2.347-2.721-4.791-4.384-7.192-1.068-1.539-.423-4.546.083-5.789.793-2.325 3.894-8.158 8.444-9.72zM253.655 173.614l.091-.047c1.132-.618.885-2.554-.412-2.57-.037 0-.063.004-.096-.007-.831.001-1.539.792-1.39 1.683.128.884 1.042 1.359 1.807.941zM256.064 174.767c.575.632 1.127.758 1.943.66.726-.09 1.313-.924 1.367-1.654.088-1.007-.603-1.732-1.499-1.833.632.075-.056-.019-.264-.026-.258-.01-.371.03-.588.086-1.094.29-1.81 1.855-.959 2.767zM255.616 180.888c-.786-.272-1.613.36-1.709 1.245-.008.024-.005.051-.013.075-.153 1.337 1.546 1.873 2.259.782.019-.02.027-.043.046-.063.484-.751.203-1.766-.583-2.039zM231.067 198.515c-.83-.038-1.588.683-1.662 1.576-.085 1.033.81 1.921 1.779 1.666a1.708 1.708 0 001.175-1.101c.354-1.02-.301-2.099-1.292-2.141zM233.192 205.132c.722.25 1.527-.182 1.798-.965.271-.782-.094-1.62-.815-1.87-.722-.25-1.527.182-1.798.965-.271.783.094 1.62.815 1.87zM237.638 199.505c-.686-.238-1.466.188-1.721.926-.256.738.093 1.554.78 1.792.686.238 1.466-.187 1.722-.925.255-.739-.105-1.559-.781-1.793zM258.361 212.057c.849-.73.896-2.408-.076-2.968-.022-.008-.04-.027-.074-.039-.66-.386-1.38-.386-2.018.167-.02.02-.039.04-.054.048-.952.812-.777 2.278.076 2.968.018.019.04.027.048.042.59.481 1.452.32 2.029-.163a.246.246 0 00.069-.055zM259.793 216.359c.405-.345.586-.939.504-1.453-.114-.708-.629-1.083-1.267-1.173-.212-.034-.426.01-.646.038-.625.086-1.129.79-1.177 1.429-.059.741.345 1.222.914 1.511.552.27 1.203.037 1.672-.352z" />
    <path
      d="M261.804 216.53c.404-.057.765-.456.914-.851.045-.129.083-.273.079-.406.013-.861-.679-1.403-1.378-1.212l.015-.008c-.056.02-.109.028-.165.048-.818.176-1.242 1.328-.686 1.98.335.391.701.518 1.221.449zM268.845 236.583c.052.28.362.388.576.199.688-.588 1.076-1.098 1.274-2.027.152-.762-.024-1.65-.486-2.217-.184-.221-.513-.309-.768-.148-.641.382-.662 1.123-.726 1.81-.099.859-.029 1.553.13 2.383zM266.806 241.244c.027-.004.057-.02.098-.032.026-.004.053-.008.072-.027l.06-.032c.295-.134.543-.35.753-.671.515-.805.215-1.907-.627-2.198-.852-.295-1.758.388-1.852 1.339-.022.242-.029.476.028.706a1.111 1.111 0 001.468.915zM234.748 251.505c.458.29.667.796 1.01 1.203.506.583 1.207.957 1.941 1.132 1.056.248 3.335-.026 3.555-1.591-.091-.202-.202-.385-.184-.615.002-.078.082-.13.095-.204-.324-.677-1.174-.945-1.865-1.171-.658-.215-1.289-.329-1.941-.594-.597-.247-1.185-.45-1.846-.403-1.021.079-1.821 1.601-.765 2.243z" />
    <path
      d="M241.249 252.258c.183.404.472.714.911.735.406.01.752-.093 1.077-.388.673-.619.542-1.885-.327-2.133a2.418 2.418 0 00-.531-.079c-.588-.02-1.075.454-1.229 1.043.095.191.156.408.148.681.006.055-.039.078-.049.141z" />
    <path
      d="M241.251 252.262c.005-.051.055-.087.06-.137a1.454 1.454 0 00-.149-.682c-.013.074-.093.125-.095.203-.029.227.093.413.184.616zM245.59 251.844c.764.265 1.618-.197 1.907-1.031.29-.835-.096-1.726-.86-1.991-.764-.265-1.618.197-1.907 1.032-.289.834.096 1.725.86 1.99zM217.806 272.568c.566.551 1.379 1.108 2.213.885.176-.044.532-.104.779-.242.276-.154.436-.401.669-.57.411-.291.297-.894-.015-1.174-.088-.214-.124-.252-.12-.12-.081-.159-.19-.276-.287-.388-.336-.537-.835-.959-1.27-1.386-.185-.182-.361-.427-.538-.633a1.262 1.262 0 00-.249-.283c-.084-.082-.16-.147-.244-.229-.011-.004-.022-.008-.04-.027-.467-.621-1.508-.339-1.746.419-.217.661-.321 1.176-.181 1.881.163.713.535 1.394 1.029 1.867zM224.069 271.939c.642.222 1.377-.179 1.616-.87.244-.703-.089-1.462-.731-1.684-.642-.223-1.376.179-1.616.87-.243.703.1 1.465.731 1.684zM255.635 275.787c.977.51 2.769.461 3.517-.659 1.185-1.809-3.247-3.2-4.228-3.592-.786-.312-1.395.514-1.361 1.275.056 1.45.914 2.378 2.072 2.976zM263.307 276.174c.622.425 1.356.312 1.948-.179.446-.357.626-.912.668-1.462.041-.512-.164-1.174-.612-1.421-.364-.204-.707-.323-1.139-.224a1.67 1.67 0 00-.701.375c-.027.043-.061.07-.1.11a.262.262 0 00-.053.047c-.763.733-.871 2.154-.011 2.754zM208.203 246.167c-.712-.667-1.063-1.589-2.138-1.673-.596-.036-1.062.486-1.146 1.087-.215 1.514.545 2.868 1.525 3.798 1.028.974 2.888.765 3.652-.546.149-.251.123-.496-.02-.73-.401-.598-1.15-1.265-1.873-1.936zM213.755 246.869c-.164-.135-.719-.393-.198-.108-.463-.239-.816-.295-1.326-.183-.765.168-1.22.981-1.13 1.76.069.588.446 1.217 1.005 1.358.584.137 1.269.165 1.743-.38.412-.473.739-1.2.391-1.806-.149-.288-.234-.435-.485-.641zM218.532 244.914c-.477-.165-1.026.13-1.209.658-.179.516.066 1.1.543 1.265.476.166 1.026-.13 1.208-.658.179-.516-.065-1.1-.542-1.265zM228.313 226.057c-.502-.305-.741-.296-1.186-.371.33.049-.459-.146-.481-.154-.247-.111-.287-.139-.125-.069-.087-.07-.16-.148-.251-.206a3.098 3.098 0 00-.842-.436c-.089-.03-.868-.287-.425-.134-.454-.157-.841.063-1.153.428-.846 1.007-.25 2.474.304 3.349.424.672 1.355.995 2.076 1.1.813.124 1.702-.329 2.154-.737.548-.507.824-1.304.568-1.997a1.502 1.502 0 00-.639-.773zM230.135 224.167l-.03.016c-.953.496-1.207 1.838-.582 2.645.007.016.018.02.025.035.762.986 2.346.603 2.776-.639.503-1.452-.892-2.723-2.189-2.057zM193.757 226.69c-1.131-.497-2.509-1.355-3.328-2.322-.563-.667-1.735-.115-1.557.84.298 1.574.91 2.889 2.032 3.948.938.876 3.542 2.028 4.461.272.859-1.62-.404-2.202-1.608-2.738zM198.786 226.489c-.044-.015-.088-.03-.128-.057-.394-.189-.887-.019-1.263.244-.574.405-.916 1.14-.607 1.824a.526.526 0 00.053.097c.429.765 1.102.972 1.904.66.042-.012.087-.036.132-.059 1.049-.595 1.058-2.337-.091-2.709z" />
    <path
      d="M197.244 226.756c.038-.039.101-.044.151-.08.019-.019.028-.042.047-.061-.065.043-.134.098-.198.141zM208.165 208.715c.131.373.362.637.669.862.658.464 1.372.41 1.988-.152a.63.63 0 00-.021-.94c-.365-.31-.712-.417-1.14-.578-.178-.062-.349-.213-.498-.317-.198-.148-.38-.158-.59-.27a.384.384 0 00-.563.409c.018.163-.028.331.001.499.017.164.094.335.154.487zM212.25 208.804c.272.147.478.232.801.16.421-.104.785-.582.675-1.054-.062-.284-.186-.537-.412-.707-.198-.148-.399-.139-.615-.161-.324-.033-.573.222-.712.515-.06.137-.094.27-.094.414-.016.297.074.683.357.833z" />
    <path
      d="M214.742 209.848c.797.276 1.713-.22 2.013-1.087.301-.867-.112-1.823-.909-2.099-.797-.276-1.713.22-2.013 1.087-.301.867.112 1.823.909 2.099zM164.354 225.826c-.415-.091-.74-.191-1.118-.138-.474.007-.982.29-1.116.821-.042.157-.223.751-.035.172-.147.461-.074.894.104 1.31.379.841 1.24 1.152 2.079 1.023.509-.074.993-.575 1.157-1.083.306-.919-.196-1.907-1.071-2.105zM167.965 224.726c-.664-.23-1.425.176-1.677.902-.251.726.095 1.516.76 1.746.664.23 1.424-.176 1.676-.902.248-.715-.095-1.516-.759-1.746zM171.901 215.125c-.224-.143-.627-.125-.781.176-.51 1.006-.509 2.148-.596 3.261-.056.663-.301 1.261-.571 1.863-.275.614-.213 1.187-.224 1.683-.001.327.183.549.48.586 3.354.493 4.055-6.08 1.692-7.569zm-1.197 6.427a.792.792 0 01.283-.138c.335-.107.608.289.494.618-.114.328-.573.471-.77.18-.068-.09-.099-.179-.137-.284-.03-.129.031-.305.13-.376z" />
    <path
      d="M171.481 222.032c.114-.329-.159-.725-.494-.618-.109.028-.188.079-.283.138a.377.377 0 00-.127.363.768.768 0 00.138.284c.192.304.656.149.766-.167zM189.526 199.604c.03-.804-.711-4.79-2.193-3.557-.84.706-.491 2.456-.597 3.443-.142 1.448-.861 2.736-.881 4.226 0 .249.156.553.425.528 2.18-.203 3.176-2.577 3.246-4.64zM182.099 205.277c-.22-.01-.416.053-.619.14-.042.012-.031.016-.098.032-.129.086-.315.193-.394.349-.051.113-.098.176-.158.313.162-.325.139-.294-.051.113-.126.363-.095.702.033 1.048.207.584.74.978 1.348.979 1.091-.003 1.827-1.375 1.115-2.29-.295-.365-.7-.663-1.176-.684zM177.137 204.346c-.476-.165-.903.067-1.224.455-.023.031-.061.07-.084.102-.461.614-.137 1.54.494 1.758.642.223 1.454-.296 1.476-1.076.031-.553-.13-1.055-.662-1.239zM201.931 190.1c2.931 2.106 6.431-3.983 5.19-6.527-.172-.362-.578-.516-.942-.326-1.453.756-1.423 2.96-2.798 3.849-.589.374-1.289.355-1.734 1.028-.463.693-.363 1.515.284 1.976zM197.798 190.478c1.406.487 2.226-1.879.82-2.366-1.406-.487-2.226 1.879-.82 2.366zM222.413 183.409c-.544-.294-1.226-.438-1.845-.443-.38-.013-.786-.023-1.149-.122-.466-.122-.795-.499-1.238-.652-.809-.281-2.075-.496-2.01.892.006.055.016.098.052.136.184 1.154 1.347 2.095 2.197 2.508 1.357.667 3.29-.147 4.111-1.478.175-.254.165-.691-.118-.841zM225.344 182.729c-.185.46-.108 1.169.233 1.51.413.419.882.674 1.487.503 1.082-.295 1.514-1.614.869-2.507-.717-1.009-2.14-.624-2.589.494zM172.724 179.507c-.331-.154-.848.192-.841.601.075 2.325 1.072 3.997 3.093 4.828 2.064.847 4.248-.406 5.634-2.079.251-.294.044-.734-.24-.845-1.228-.504-2.429-.513-3.749-.498-1.47.016-2.612-1.417-3.897-2.007zM181.837 183.792c.576.2 1.246-.159 1.465-.791.219-.633-.085-1.329-.661-1.528-.576-.2-1.246.159-1.465.791-.23.629.074 1.325.661 1.528zM123.677 196.314c-.821-.39-1.533-1.057-2.474-1.133-.339-.026-.605.276-.648.616-.349 2.439 3.413 5.227 5.446 3.909.787-.515.848-1.479.201-2.084-.669-.613-1.716-.923-2.525-1.308zM128.494 196.092c-.056.02-.109.028-.165.048-1.243.33-1.574 2-.601 2.77.146.117.315.201.485.247.914.225 1.907-.349 2.002-1.445.099-1.002-.77-1.894-1.721-1.62zM132.544 195.04c-1.473-.511-2.329 1.961-.857 2.471 1.473.511 2.329-1.961.857-2.471zM149.261 180.701c.186-.251.007-.628-.277-.634-2.382-.038-5.141.083-7.024-1.647-.244-.228-.645.105-.579.417.318 1.804 1.692 3.068 3.32 3.527 1.816.525 3.332-.053 4.56-1.663zM150.599 180.243c.302-.014.545-.035.814-.204.436-.255.735-.69.78-1.212.058-.597-.299-1.285-.862-1.414a.23.23 0 01-.121-.042c-.678-.301-1.52.234-1.772.96-.307.852.258 1.94 1.161 1.912zM152.967 176.454c.454.158.806-.035 1.19-.322.256-.2.418-.669.341-.984-.09-.346-.164-.634-.46-.855-.595-.429-1.465-.101-1.725.649-.215.621.078 1.313.654 1.512zM161.43 162.632c1.658.838 4.169.933 5.227-1.117.19-.368.039-.722-.336-.786-2.542-.434-5.794-.721-7.269-3.267-.342-.592-1.322-.34-1.173.447.383 2.26 1.646 3.774 3.551 4.723zM167.733 160.414c.676.234 1.451-.179 1.707-.917s-.098-1.543-.773-1.777c-.675-.234-1.451.18-1.707.918s.098 1.542.773 1.776zM169.393 157.024c.764.265 1.646-.204 1.938-1.048.288-.831-.11-1.757-.874-2.021-.764-.265-1.646.204-1.938 1.047-.292.844.11 1.757.874 2.022zM181.521 137.578c-.101-.14-.272-.147-.431-.084-.505.206-.805.641-1.072 1.126-.28.52-.582.783-1.082 1.043-.942.501-2.051 1.049-2.445 2.187-.11.316-.016.69.244.872 2.729 1.865 6.948-2.215 4.786-5.144zM199.935 151.195c1.003.794 2.219-.243 2.691-1.248.607-1.286.009-2.531-.323-3.723-.119-.409-.678-.301-.623.152.195 1.801-1.444 2.769-1.88 4.312-.058.204-.022.387.135.507zM197.492 154.523c.377.131.921.136 1.283-.12.342-.236.559-.397.808-.757.607-.893.229-2.166-.701-2.489-.067-.023-.133-.046-.193-.053-.908-.21-1.788.181-2.166 1.166-.166.442-.173.965.036 1.365.211.428.49.735.933.888zM191.999 151.882c.587.204 1.256-.155 1.48-.799.223-.644-.082-1.34-.668-1.544-.587-.203-1.257.156-1.48.8-.219.632.081 1.34.668 1.543zM219.618 158.921c1.869.621 3.543-.125 4.546-2.089 1.118-2.187.749-4.56-.42-6.488-.136-.218-.503-.161-.628.058-.829 1.354-.944 3.008-1.752 4.409-.709 1.225-1.569 2.057-2.04 3.417-.112.289.035.616.294.693zM215.663 160.463c.131 1.305 1.71 1.721 2.602.901a1.848 1.848 0 00.572-1.651 1.565 1.565 0 00-.964-1.227c-.774-.412-1.771.03-2.109.936-.126.363-.142.659-.101 1.041zM214.234 157.383c-1.219-.422-1.93 1.63-.711 2.053 1.219.422 1.931-1.63.711-2.053zM86.273 228.974c.163-.219.123-.64-.109-.76-1.131-.602-1.915-1.885-2.486-3.068-.254-.521-.801-1.341-1.39-1.466-.431-.084-1.179-.146-1.339.495-.766 3.07 2.55 8.434 5.324 4.799zM88.243 223.85c.487.168 1.104-.038 1.398-.526.168-.27.253-.516.284-.82.114-1.26-1.483-1.84-2.17-.752a1.676 1.676 0 00-.284.82c-.039.577.252 1.097.772 1.278zM87.576 228.256c-.23.484-.151.971-.004 1.442.2.673 1.22 1.026 1.793.621.411-.291.77-.612.89-1.135.14-.621.086-1.322-.44-1.701a2.453 2.453 0 01-.142-.128.957.957 0 00-.7-.163c-.647-.028-1.109.481-1.397 1.064zM90.674 235.106c.328.021.65-.051.935-.228.508-.322.816-.78.888-1.345.099-.465.015-.94-.273-1.289a1.19 1.19 0 00-.692-.436l-.022-.008c-.503-.266-1.104.037-1.534.348a1.354 1.354 0 00-.393.454c-.284.531-.389 1.085-.158 1.638.23.513.714.838 1.25.866zM95.858 230.782c.157-.024.304-.091.451-.158.74-.308.993-1.362.71-2.05a1.32 1.32 0 00-.252-.416c-.384-.395-.84-.619-1.406-.487a1.664 1.664 0 00-1.152 1.071c-.187.538-.096 1.134.242 1.553.364.454.853.545 1.407.487zM97.91 230.774c-.29-.1-.457.383-.167.484.285.112.457-.383.167-.484zM104.542 250.879c.155-.839-1.046-1.242-1.451-.503-3.033 5.528 5.086 10.823 9.323 7.656.301-.224.249-.754-.022-.94-2.339-1.559-8.636-1.902-7.85-6.213zM116.826 257.959c-.019-.02-.037-.039-.059-.047-.942-.826-2.489-.088-2.895 1.085-.406 1.172.352 2.709 1.603 2.643.027-.004.053-.008.075 0 .848-.048 1.606-.481 1.923-1.395.317-.915-.011-1.724-.647-2.286zM116.66 253.738c.071-.527-.253-1.059-.718-1.22-.653-.226-1.47.304-1.503 1.08-.014.507.137.966.546 1.252.391.267.921.24 1.289-.105.31-.286.424-.653.386-1.007zM121.056 255.761a1.16 1.16 0 00-1.384.058 1.338 1.338 0 00-.761.799c-.174.504-.05 1.255.424 1.498.462.239.862.339 1.379.098a1.49 1.49 0 00.758-.971c.14-.581.063-1.146-.416-1.482zM121.228 249.754c-.376-.275-.882-.424-1.319-.129-.452.302-.752.776-.657 1.36.092.556.518.901 1.031.96.048.004.089-.008.127-.008-.026.004 0 0 .07.011 1.088.01 1.65-1.541.748-2.194zM142.319 272.701c1.937 1.144 5.465 1.277 6.376-1.638.127-.403-.114-.748-.481-.797-2.547-.278-6.863-.395-7.164-4.111-.084-.974-1.481-.775-1.578.15-.272 2.755.528 5.028 2.847 6.396zM148.572 269.836c.237.213.591.336.919.318.893-.071 1.527-.612 1.677-1.584.171-1.135-.991-1.97-1.958-1.649-.53.171-.957.508-1.156 1.082-.255.738.017 1.384.518 1.833zM152.867 264.485c-.031.055-.101.082-.128.125-.019.019-.016.046-.035.066.046-.062.103-.121.163-.191zM151.909 265.046c-.037.001-.071.028-.105.017.259-.029.247-.033.105-.017z" />
    <path
      d="M150.993 264.818c.208.151.441.231.698.241.131-.02.157-.024.22-.028.299-.002.616-.167.828-.421.169-.165.302-.369.39-.587.113-.328.116-.695.059-1.03-.177-.992-1.194-1.529-2.076-1.06-.881.469-1.132 1.694-.543 2.462.126.175.267.303.424.423zM111.579 294.04c1.72 1.449 4.892 1.498 4.942-1.44.011-.534-.385-.895-.846-.818l-.144-.05c-.281-.084-.571-.106-.853-.151-.141-.023-.708-.18-1.002-.334-.419-.224-2.189-1.166-2.009-1.865.243-.953-.994-1.789-1.526-.791-1.071 2.018-.059 4.181 1.438 5.449zM103.108 282.921c.387.383.828.615 1.395.483.514-.124.954-.536 1.136-1.063.187-.539.117-.944-.044-1.445-.256-.837-1.337-1.08-2.037-.706-.776.413-1.095 1.405-.767 2.214.073.183.168.373.317.517zM104.031 284.307c-.139.043-.575.155-.165.047a1.184 1.184 0 00-.808.757c-.179.515.009.974.369 1.296.396.36 1.005.322 1.442.027.402-.267.759-.761.621-1.294.004-.011-.011-.109-.014-.031.002-.327-.144-.549-.38-.656a.953.953 0 00-.785-.168 3.334 3.334 0 01-.28.022z" />
    <path
      d="M104.175 284.292c.115-.013.151-.014.136-.007-.026.005-.043-.014-.069-.01-.026.004-.041.012-.067.017zM119.295 280.903c.218.482.65.882 1.139 1.012.526.129 1.078.005 1.478-.434.281-.309.408-.462.584-.861-.299.684.046-.063.139-.293.457-1.142-.38-2.522-1.525-2.512-.064.004-.138.005-.202.009a1.898 1.898 0 00-1.786 1.286c-.17.492-.135.964.054 1.384.026.14.067.273.119.409zM120.896 284.162a2.1 2.1 0 00-.516.057c-.414.12-.799.301-1.063.669a1.355 1.355 0 00-.35.797c-.038.394.113.747.355 1.015.284.361.685.526 1.172.59.627.086 1.205-.33 1.57-.847.606-.853.084-2.175-.882-2.248-.079.012-.123-.003-.286-.033z" />
    <path
      d="M121.013 284.19c.106.024.106.024.155.027-.038.001-.064-.035-.102-.035-.015.008-.038 0-.053.008zM129.842 341.629c1.325 1.405 3.256 1.313 4.941.57.396-.178.43-.705.226-1.012-.575-.882-1.602-1.251-2.532-1.573-1.419-.492-1.692-2.031-1.92-3.449-.173-1.006-1.532-.846-1.657.161-.226 1.905-.405 3.891.942 5.303zM145.732 346.978c1.131.996 2.831-.004 3.806-.848 1.044-.899 1.984-2.359 2.195-3.757.283-1.819-.406-3.056-.648-4.755-.108-.799-1.339-.937-1.55-.077-.359 1.503-.646 3.584-1.672 4.791-.417.486-.85.914-1.379 1.256-.224.145-.433.283-.657.429-.004.011-.015.008-.015.008a.662.662 0 00-.232-.12c-.217-.089-.505.061-.579.311-.321 1.071-.041 2.087.731 2.762zM141.098 344.988c.631.219 1.35-.175 1.586-.854.235-.68-.086-1.434-.718-1.652-.631-.219-1.35.175-1.585.854-.236.679.086 1.434.717 1.652zM138.867 343.875c.027-.043.043-.09.071-.133.354-.665.214-1.513-.495-1.759-.719-.249-1.354.331-1.476 1.076-.005.051-.021.098-.027.148-.195 1.101 1.399 1.653 1.927.668zM65.695 214.753c-1.511.028-3.316.545-4.752.139-1.028-.291-1.875-.965-2.537-1.811-.478-.626-.963-1.017-1.737-1.075-.398-.033-.622.362-.618.744.107 2.52 2.255 4.524 4.366 5.164 2.282.686 4.162-.514 5.593-2.422.22-.278.02-.741-.315-.739zM68.49 210.481c-1.041-.361-2.169.889-1.652 1.974l.035.077c.303.63.99.868 1.617.56l.075-.039c1.066-.536.954-2.215-.076-2.572zM67.037 208.414a.748.748 0 00.286.177c.306.264.694.359 1.088.154.393-.205.668-.713.566-1.168-.082-.409-.249-.821-.574-1.065-.467-.333-.973-.232-1.438.105-.315.232-.384.681-.36 1.043.024.323.203.556.432.754zM24.396 227.455c.2-.219.22-.672-.113-.748-4.564-.977-8.974-1.429-13.251-3.449-.478-.232-.81.402-.68.815 1.45 4.914 10.534 7.208 14.044 3.382zM27.278 221.402c-.396-.505-.934-.6-1.54-.534-1.216.143-1.779 1.695-1.304 2.726.372.825 1.284 1.128 2.083.722.178-.083.348-.181.49-.342a1.89 1.89 0 00.512-.795c.01-.062.016-.047.021-.097.177-.583.105-1.199-.262-1.68z" />
    <path
      d="M27.533 223.107c.096-.455.108-.491 0 0zM25.564 219.98c.34.236.706.324 1.106.318 1.35.008 1.983-1.677 1.14-2.612-.228-.486-.68-.827-1.232-.848-.756-.038-1.702.685-1.675 1.574.02.624.137 1.216.66 1.568zM309.153 309.63c2.124 1.249 4.368 1.435 6.022-.723.271-.353.044-.773-.261-.931-.625-.309-1.119-.782-1.805-1.059-1.121-.454-2.202-.737-3.241-1.425-1.523-1.014-2.475-2.709-4.475-2.667-.563.015-.907.684-.562 1.158 1.487 2.012 2.074 4.33 4.322 5.647zM319.819 306.996c-.088-.319-.269-.513-.592-.546-.141-.023-.265.013-.404.057-.243.02-.454.092-.71.187-.301.118-.444.423-.641.67-.712.908.204 2.13 1.145 1.919.916-.208 1.38-1.084 1.2-1.96a.683.683 0 00.002-.327zM319.671 303.084c-.74.741-.602 2.061.361 2.395.963.334 1.888-.619 1.765-1.659l-.019-.124c-.11-.97-1.339-1.396-2.037-.706l-.07.094zM319.328 299.706c.228.775 1.232.991 1.871.649.337-.185.607-.499.741-.885.195-.563.044-1.022-.223-1.468l-.096-.152c-.335-.536-1.127-.613-1.661-.326-.745.398-.941 1.249-.694 2.003.028.063.045.121.062.179zM103.94 208.609c1.231.636 3.008-.087 3.85-1.227.512-.689.797-1.405.825-2.275.019-.913-.523-1.284-.925-1.949-.182-.299-.669-.074-.686.261-.046.812-1.017 1.644-1.593 2.088-.701.519-1.524 1.429-1.832 2.281-.148.355.067.666.361.821zM144.548 147.892c.074-1.287-.851-3.131-2.035-3.476-.644-.183-1.434.738-.85 1.308.453.446.344 1.55.185 2.152-.299 1.078-.969 1.831-1.581 2.735-1.086 1.594-.476 3.131 1.396 2.349 1.846-.779 2.778-3.148 2.885-5.068zM131.642 164.156c-.281-.084-.589.124-.628.452-.184 2.037-.633 3.51-1.785 5.225-.799 1.194-2.479 2.819-3.732 3.356-.438.19-.376.763-.097 1.03 4.982 4.642 11.331-8.418 6.242-10.063zM115.628 167.353c-.578-.266-1.219.116-1.598.602-.384.497-.586 1.189-.615 1.809-.034.96.259 1.797 1.004 2.331.377.275.856.362 1.313.258.65-.156 1.063-.63 1.342-1.256.361-.794.193-1.561-.069-2.309-.234-.685-.766-1.158-1.377-1.435zM118.647 172.457a1.921 1.921 0 00-.448-.103c-.026.004-.037.001-.063.005-.438-.06-.829.172-1.141.536-.038.039-.062.07-.104.121a1.645 1.645 0 00-.248.715c-.034.277.017.596.118.841.168.373.488.668.864.798.41.142.756.039 1.148-.127.705-.281 1-1.346.69-1.991-.168-.374-.417-.657-.816-.795z" />
    <path
      d="M117.006 172.91c.182-.209.178-.198 0 0zM123.838 139.154c-1.077.638-2.058 1.677-3.252 2.116-1.139.42-2.857.363-3.924-.138-.674-.312-1.3.745-.842 1.284.642.761 1.169 1.64 2.151 1.993 1.02.353 2.054.449 3.125.151 2.03-.558 3.897-2.721 3.437-5.047-.04-.316-.395-.544-.695-.359zM125.704 134.337c1.241.431 1.964-1.657.723-2.087-1.241-.43-1.965 1.657-.723 2.087zM125.169 130.499c.026-.005.056-.02.083-.024.092.019.177.061.265.092.726.304 1.341-.612 1.08-1.292-.156-.409-.404-.731-.644-1.076-.591-.835-1.898-.461-2.235.511-.33.988.474 2.067 1.451 1.789zM152.129 126.12c-.476-.31-.665-1.018-.946-1.497-.341-.591-.817-.9-1.468-.955-.57-.04-.914.524-.881 1.074.12 1.801.233 3.232 1.746 4.308 1.221.882 3.115.751 4.162-.515.143-.16.12-.418.058-.597-.472-1.253-1.752-1.211-2.671-1.818zM156.074 125.976c-.706.714-.633 1.789.281 2.158.346.146.786.023 1.077-.244.015-.007.019-.019.034-.027.287-.255.433-.677.365-1.054a1.137 1.137 0 00-.357-.688c-.315-.451-.978-.576-1.4-.145zM185.215 109.967c-1.167-.43-2.534-.497-3.76-.791-1.679-.384-1.214-2.298-2.23-3.307-.584-.57-1.545-.483-1.884.424-.911 2.521-.328 5.245 1.993 6.39 1.994.98 4.892.461 6.127-1.816.204-.337.115-.762-.246-.9zM187.876 110.637c.24.201.594.324.912.303.638-.054 1.066-.287 1.451-.862.405-.594.316-1.412-.129-1.882-.018-.019-.083-.081-.167-.162a1.22 1.22 0 00-.595-.43c-.664-.23-1.236.097-1.68.625l-.127.153c-.605.709-.229 1.771.335 2.255zM190.499 107.043c.576.199 1.246-.159 1.465-.792.219-.632-.085-1.328-.661-1.528-.576-.199-1.246.159-1.465.792-.23.629.074 1.324.661 1.528zM204.253 115.343c1.047.165 1.953-.085 2.931-.508.555-.241 1.223-.522 1.574-1.07a.481.481 0 00-.332-.759c-.88-.147-1.745-.302-2.624-.449-.565-.091-1.142-.107-1.696-.194-.048-.003-.351-.095-.34-.091-.04-.027-.074-.039-.096-.047.026-.004.057-.02.073-.066.392-1.348-1.279-1.862-1.862-.645-.995 2.084.549 3.538 2.372 3.829zM232.422 114.952c.012.254.291.521.534.5 1.776-.146 2.704-1.676 2.803-3.467.107-1.92-.829-3.767-2.254-4.813-.435-.321-1.258.011-1.235.662.032 1.233.32 2.409.352 3.642.056 1.162-.263 2.299-.2 3.476zM229.958 119.27c.627-.019 1.07-.259 1.469-.803.302-.407.331-1.027.134-1.463-.178-.416-.566-.799-1.032-.777-.828.028-1.299.455-1.678 1.229-.377.801.32 1.83 1.107 1.814zM221.477 133.471c.825-.699.918-1.757.783-2.762-.081-.554-.158-1.263-.453-1.772-.132-.624-.839-.948-1.365-.539-1.54.504-1.434 3.6-.905 4.69.362.782 1.26.948 1.94.383zM216.823 135.693a2.357 2.357 0 001.083-1.87c.021-.886-.715-1.876-1.65-1.543-.071.027-.124.035-.191.051a1.55 1.55 0 00-.621.179c-.544.245-.818.715-1.064 1.247-.211.465-.094 1.202.231 1.551.566.59 1.43.889 2.212.385zM195.83 128.656c-.359.033-.713-.09-1.075-.084-.377.014-.756.067-1.136.053-.272-.002-1.654-.061-1.671-.513-.024-.862-1.178-1.578-1.695-.588-1.888 3.588 3.453 5.793 5.75 3.569.755-.711 1.414-2.61-.173-2.437zM197.327 125.444a1.053 1.053 0 00-.54.128c-.8.34-1.157 1.62-.553 2.275.018.02.025.035.043.055.477.519 1.366.709 1.935.106.565-.592.731-1.715.056-2.238a1.17 1.17 0 00-.941-.326zM240.093 147.656a.47.47 0 00-.263-.603c-.953-.33-1.962-.246-2.934-.452-.704-.152-.876-1.196-1.287-1.798-.013-.071-.011-.149-.024-.219-.018-.163-.185-.326-.349-.318-.112.001-.217.017-.333.03-.529.131.509-.073-.275.114-.447.108-.758.539-.912.984-.44 1.306-.098 2.54.622 3.578 1.504 2.176 4.867 1.069 5.755-1.316zM240.878 146.731c.609.211 1.324-.171 1.556-.838.231-.668-.083-1.407-.703-1.622-.62-.214-1.324.171-1.556.839-.22.672.094 1.41.703 1.621zM242.888 143.018c.876.304 1.388-1.174.512-1.477-.887-.308-1.399 1.17-.512 1.477zM250.543 154.627c.04 2.036.965 3.446 2.65 4.28 1.883.941 3.922-.073 4.962-2.037.146-.277.05-.679-.297-.681-1.146.011-2.118.094-3.25-.22-.925-.268-2.021-1.081-2.549-1.92-.388-.634-1.531-.202-1.516.578zM261.841 153.905c.019.082.016.056.025.097-.006-.015.008-.022-.002-.026l-.023-.071z" />
    <path
      d="M260.111 156.707c.433.006.936-.122 1.271-.479.596-.647.782-1.397.495-2.218-.024-.074-.027-.101-.078-.277-.098-.218-.188-.315-.296-.47-.523-.746-1.544-.666-2.216-.124-.66.546-.775 1.307-.742 2.106.029.812.861 1.454 1.566 1.462zM260.519 151.344c.026.035.033.051.04.066.101.245.255.443.532.539.554.192 1.026-.169 1.279-.685.056-.125.085-.246.093-.375.32-.637-.07-1.481-.657-1.684-.764-.265-1.838.544-1.577 1.474.071.261.148.432.29.665zM273.901 172.78c1.14.578 2.535.707 3.772.217.766-.313 1.953-1.123 2.176-2.017.077-.328-.079-.632-.402-.665-.544-.044-1.032.22-1.563-.003-.697-.281-1.518-.277-2.247-.464-1.418-.386-2.939-1.044-3.477-2.609-.117-.343-.553-.231-.68.066-1.046 2.408.48 4.487 2.421 5.475zM283.143 165.173c-.584.074-1.059.657-1.105 1.257-.077.866.652 1.552 1.452 1.356.675-.159 1.139-.891 1.025-1.599-.125-.713-.71-1.099-1.372-1.014zM284.946 162.684a1.578 1.578 0 00.45-2.232c-.189-.275-.442-.442-.732-.569-1.054-.43-2.179.741-1.999 1.867.154 1.024 1.444 1.668 2.281.934zM309.205 173.981c-1.335-.161-3.903-.197-3.531-2.274.181-.988-1.123-1.059-1.48-.277-.41.896-.777 1.596-.615 2.598.154 1.025.847 1.711 1.685 2.12.795.393 1.669.342 2.503.013.286-.11.451-.263.648-.51-.336.396.143-.056.238-.115.332-.239.634-.502.856-.859.196-.313.019-.663-.304-.696zM312.098 170.072c-.676-.234-1.44.183-1.696.921-.252.727.098 1.543.762 1.773.675.234 1.44-.183 1.696-.921.255-.738-.087-1.539-.762-1.773zM322.35 156.027c-3.18.619-6.133-.601-8.135-3.239-.424-.567-1.468-.062-1.28.686.628 2.555 2.108 4.408 4.349 5.499 2.031.98 4.907.453 5.694-2.177.132-.453-.189-.853-.628-.769zM324.903 150.058a.586.586 0 01.044.015c-.007-.016-.022-.008-.044-.015zM325.336 150.273c.011.004.01.042.031.049-.08-.079-.098-.098-.031-.049z" />
    <path
      d="M325.367 150.322a1.541 1.541 0 00-.456-.262c-.126-.03-.263-.065-.397-.072-.446-.036-.941.173-1.26.522-.447.502-.717 1.065-.606 1.747.106.627.513 1.136 1.078 1.332.565.196 1.199.048 1.67-.38.51-.467.635-1.08.606-1.747-.028-.456-.303-.881-.635-1.14zM323.689 148.232c.388.134.777.085 1.122-.085.563-.12 1.084-.622 1.11-1.27a2.573 2.573 0 00-.009-.331c.031-.304-.006-.593-.17-.873-.306-.513-.676-.878-1.298-.909-.503-.017-1.156.256-1.42.768-.182.344-.347.642-.351 1.047.001.749.329 1.415 1.016 1.653zM311.565 138.16c.139-.438-.251-.744-.629-.586-2.438 1.02-5.721.001-6.404-2.862-.194-.803-1.04-.938-1.547-.3-3.256 4.059 6.243 11.067 8.58 3.748zM312.357 133.077c-.287.005-.496.038-.754.172-.646.327-.963 1.24-.653 1.886.13.268.275.423.486.601.681.577 1.772.076 2.068-.779.288-.832-.255-1.912-1.147-1.88zM312.854 130.36c.932.034 1.726-.755 1.839-1.727.054-.441-.037-.932-.299-1.285-.007-.016-.018-.019-.025-.035-.029-.023-.039-.066-.057-.086l-.004.012c-.364-.454-.919-.607-1.514-.538-.857.111-1.318.975-1.46 1.779-.188.973.674 1.849 1.52 1.88zM289.848 114.982c-.018-.269-.391-.411-.576-.2-1.58 1.803.154 4.033 1.725 4.945 2.817 1.646 7.208 1.867 9.415-1.242a.51.51 0 00-.354-.806c-2.277-.198-4.566.033-6.809-.442-1.004-.217-3.284-.98-3.401-2.255zM299.783 114.248c-.247.714.095 1.515.759 1.745.665.23 1.425-.175 1.677-.901.247-.715-.095-1.516-.759-1.746-.665-.23-1.429.187-1.677.902zM300.33 112.741c.328.232.743.324 1.137.224.128-.048.245-.099.369-.135.403-.267.441-.306.111-.105.66-.402.928-1.175.662-1.91.135.362.129.307-.022-.152a1.448 1.448 0 00-.842-.79c-.764-.265-1.649.215-1.938 1.047-.242.664-.025 1.435.523 1.821zM306.912 208.893c-.463-.778-.922-1.423-1.154-2.33-.274-1.107-1.935-1.472-2.32-.109-.363 1.333-.299 2.51.157 3.771a3.993 3.993 0 001.068 1.539c.193.159.371.326.584.465.326.205.609.211.957.319.403.126.927-.099 1.053-.568.165-.586.269-.957.208-1.569-.044-.554-.365-1.203-.553-1.518zM310.136 212.872c-.109-.615-.469-1.186-1.043-1.319-.574-.134-1.155.006-1.525.573-.39.587-.324 1.541.266 1.916.195.225.399.388.689.515.696.319 1.387-.281 1.627-.972-.02-.23-.103-.455-.022-.69-.003-.027.008-.023.008-.023z" />
    <path
      d="M313.078 213.903c.288-.832-.11-1.757-.874-2.022l-.133-.046c-.764-.264-1.635.209-1.935 1.037.022.152.123.291.108.443-.007.089-.062.176-.094.27.054.596.3 1.139.853 1.331l.133.046c.768.253 1.654-.227 1.942-1.059z" />
    <path
      d="M310.14 212.874c-.004.012-.016.008-.016.008-.081.235.002.46.022.69.033-.093.083-.168.093-.269.027-.149-.073-.289-.099-.429zM314.153 216.075c.576.199 1.231-.151 1.45-.784.215-.621-.078-1.313-.654-1.512-.576-.2-1.23.151-1.45.783-.215.621.079 1.313.654 1.513zM322.175 210.124a1.993 1.993 0 00-.83.461c-.062.07-.2.219-.3.329-.491.592-.731 1.323-.413 2.05.298.681 1.061 1.129 1.784.907.541-.167 1.027-.458 1.326-.998.382-.708.505-1.637-.052-2.251-.398-.426-.933-.638-1.515-.498zM321.031 210.91c.019-.02.043-.052.062-.071-.287.323-.205.232-.062.071zM323.305 207.639c.119.015.235.003.355-.021 1.193.137 1.932-1.458 1.453-2.439-.027-.101-.05-.214-.103-.311a1.655 1.655 0 00-1.426-1.006c-1.457-.059-2.536 1.944-1.513 3.113.346.396.728.62 1.234.664zM308.456 235.56c-.258-.221-.533-.395-.658-.714-.522-1.323-2.369-.505-2.206.851.057.48.04.96.101 1.427.062.573.279 1.095.465 1.632.266.736 1.165 2.045 2.232 2.047.325.1.692.043.893-.321.122-.102.233-.208.319-.349.196-.352.404-.7.434-1.11.047-.706-.104-1.31-.374-1.929-.252-.56-.75-1.166-1.206-1.534zM312.656 242.268c.008-.023.045-.024.069-.055-.049-.253-.052-.53-.2-.712-.543-.687-1.762-.676-2.234.184-.196.352-.246.531-.32.925-.134.636.373 1.284.882 1.461.521.18 1.066.002 1.447-.417l.03-.016c.019-.02.02-.059.04-.078-.014-.425.054-.874.285-1.253-.003-.027.001-.039.001-.039z" />
    <path
      d="M315.624 242.062a1.647 1.647 0 00-.796-.604c-.675-.234-1.675.037-2.098.757.086.503.012 1.002-.367 1.344.019.768.371 1.507 1.137 1.733.551.165.993.108 1.533-.125.884-.403 1.355-1.763.906-2.615a1.953 1.953 0 00-.315-.49z" />
    <path
      d="M312.73 242.215c-.009.023-.046.024-.069.055l-.012.035c-.235.392-.3.829-.286 1.254.368-.346.442-.845.367-1.344zM318.712 243.815c-.269-.369-.79-.549-1.218-.422-.015.008-.041.012-.057.02-1.329.366-1.577 2.405-.26 2.862 1.318.456 2.385-1.3 1.567-2.41-.007-.015-.025-.035-.032-.05zM343.478 239.357c-1.155-.321-2.111-.679-3.338-.789-.614-.055-1.206-.103-1.804-.205-.434-.071-1.464-.034-1.791-.345-.573-.566-1.815.081-1.317.936.899 1.559 2.067 2.45 3.772 2.975 1.83.555 4.031.293 4.765-1.934.079-.262-.035-.577-.287-.638zM346.144 237.142a1.569 1.569 0 00-.14-.705c-.005-.094-.017-.203-.009-.227-.039-.21-.163-.424-.324-.532-.267-.198-.548-.138-.799.012-.052.008-.131.02-.229.052-.38.131-.426.155-.147.067-.437.151-.748.332-1.046.728-.45.579-.698 1.439-.317 2.096.32.544.895 1.033 1.569.807.746-.254 1.174-.736 1.387-1.529.097-.282.12-.563.083-.851-.033-.156-.045-.121-.028.082zM347.898 232.301c-.211-.717-.639-1.417-1.456-1.385-.739.02-1.436.382-1.712 1.18a1.63 1.63 0 00.029 1.205c.003.027.021.047.024.074l.042.093c.098.218.242.412.359.611.371.614 1.29.683 1.87.372.579-.312 1.111-1.165.907-1.866-.012-.109-.043-.199-.063-.284zM359.494 221.255c-.085-.147-.311-.212-.477-.165a1.23 1.23 0 00-.614.378 1.446 1.446 0 01-.266.158 1.992 1.992 0 00-.687.3c-.269.13-.505.311-.768.496a1.165 1.165 0 00-.252.227.654.654 0 00-.073.067l-.015.008c-.063-.035-.136-.073-.195-.12.13-1.163-1.371-1.342-1.791-.345-.724 1.732.084 3.877 1.925 4.042.856.073 1.626-.395 2.32-.929.374-.291.771-.863.933-1.332.031-.16.069-.304.099-.464-.034.277-.001.183.076-.29.034-.171.028-.331.01-.495.045-.523.014-1.151-.225-1.536zM358.754 219.197c.82.284 1.751-.22 2.059-1.11.309-.89-.122-1.866-.93-2.146-.808-.28-1.75.22-2.059 1.11-.304.879.111 1.862.93 2.146zM335.688 205.219c.523.497 1.217.356 1.825.107a1.79 1.79 0 00.384-.287c.324-.36.37-.423.121-.168.285-.322.451-.658.474-1.083.108-.383-.016-.741-.294-.943-.025-.035-.054-.058-.079-.093-.413-.563-1.075-.766-1.75-.645-.554.096-1.043.61-1.23 1.149-.276.798.03 1.455.549 1.963zM339.67 203.894c.897.31 1.775-.252 2.151-1.159.088-.219.139-.438.172-.676.229-1.733-2.109-2.543-3.002-1.04-.122.207-.217.41-.283.637-.266.945.075 1.93.962 2.238zM360.429 246.885l-.187-.104c-.054-.058-.098-.113-.156-.159a5.688 5.688 0 00-.412-.209c-.033-.011-.07-.011-.104-.022a1.424 1.424 0 00-1.481.3c-.157.13-.284.283-.405.451-.101.149-.18.305-.241.481-.012.035-.009.063-.021.098-.322.821-.13 1.807.584 2.29.38.263.769.359 1.215.395.194.015.38.014.572-.038l.43-.166c.183-.134.263-.185.312-.22.786-.477 1.021-1.8.466-2.492-.138-.245-.311-.462-.572-.605zM362.902 250.956c.801.278 1.694-.2 1.994-1.067.301-.867-.105-1.794-.906-2.072-.801-.277-1.694.2-1.994 1.067-.301.867.105 1.795.906 2.072zM365.818 247.229c-.24.442-.369.778-.454 1.274-.303 1.733 2.201 2.601 3.036 1.052.24-.442.346-.786.431-1.282.277-1.729-2.172-2.578-3.013-1.044zM351.542 165.263a1.195 1.195 0 00-.18-.089c-.011-.004-.029-.023-.081-.054-.234-.147-.474-.243-.758-.211-.296.029-.555.097-.773.297-.015.008-.024.032-.039.04-.057.058-.111.105-.161.18l-.009.023c-.956 1.363-.294 3.786 1.41 3.811.641.012 1.347-.413 1.543-1.12a2.65 2.65 0 00-.216-1.992 2.913 2.913 0 00-.736-.885zM355.48 169.397c.132-.164.193-.34.22-.527.082-.235.278-.442.32-.743.018-.124-.051-.319-.158-.369-.304-.158-.548-.098-.831.001-.033-.012-.07-.012-.13-.019-.129-.019-.265.013-.403.018-.662.085-.996.98-.744 1.539.329.77 1.25.722 1.726.1zM358.559 167.721c.589.02 1.183-.3 1.526-.824.32-.493.481-1.317.175-1.831-.177-.311-.333-.614-.656-.792-.39-.2-.736-.347-1.198-.231-.394.1-.782.359-1.009.727a2.35 2.35 0 00-.274.575c-.33 1.133.289 2.319 1.436 2.376zM358.12 141.094c.436.388 1.061.197 1.495-.125-.419.314.076-.039.213-.149.283-.244.416-.592.56-.936.243-.559.114-1.26-.065-1.782-.238-.673-1.016-1.008-1.665-.853-.744.176-1.134.802-1.283 1.552-.065.332-.073.749.004 1.065.121.58.337.852.741 1.228zM357.414 144.657l-.015.008c-.14.083-.249.111-.375.224a1.708 1.708 0 00-.354.521 1.252 1.252 0 00-.172.281c-.116.262.019.519.189.67a.577.577 0 00.324.138c.398.177.884.136 1.233-.229.211-.215.369-.528.411-.828.037-.25-.046-.475-.075-.643-.108-.654-.88-.646-1.166-.142zM353.402 150.004c.431-.06.842-.351 1.185-.626.466-.377.67-1.108.581-1.677a1.646 1.646 0 00-.736-1.135c-.433-1.148-2.093-1.408-2.813-.226l-.008.023c-.717.816-.673 2.157-.081 2.993.43.621 1.194.742 1.872.648zM338.987 138.246c.017.059.034.117.055.164.001-.039-.009-.082-.004-.133-.001.039.009.082.004.133.014.031.017.058.031.089-.014-.031-.021-.046-.024-.074a1.9 1.9 0 00.138.784c.154.342.354.517.62.753.425.384 1.113.333 1.609.085.719-.355 1.155-1.15 1.137-1.957-.014-.819-.297-1.508-.941-1.941-.633-.43-1.47-.378-2.071.175a1.973 1.973 0 00-.568 1.891c.011.004.007.016.014.031z" />
    <path
      d="M339.035 138.29c-.001.039.008.082.003.133-.006-.055-.004-.094-.003-.133zM338.997 138.355c-.002.079.033.157.042.24l-.001-.172c-.021-.047-.033-.091-.047-.122.003.027.01.043.006.054zM338.973 138.215c-.014-.03-.024-.008.012.094-.002-.026-.009-.041-.012-.068.004-.011.01-.022 0-.026zM339.461 142.429a1.797 1.797 0 00-.516.057c-.404.162-.461.182-.17.06-.057.02-.109.028-.165.047a1.497 1.497 0 00-1.086 1.305c-.052.652.307 1.157.845 1.396.946.42 1.992-.019 2.603-.923.744-1.108-.381-2.588-1.511-1.942zM325.98 119.702c-.089.258-.141.516-.197.785.073-.355-.221.278-.253.372-.057.164-.046.418.085.542 1.158 1.136 2.868-.254 3.084-1.702.275-1.796-.712-3.281-.622-5.009.028-.476-.657-.504-.685-.028-.064 1.186-.328 2.342-.733 3.476-.183.527-.492 1.025-.679 1.564zM333.071 100.727c-.174.609-.54 1.165-.777 1.74-.347.825-.694 2.648.629 2.7 1.467.062 2.718-1.541 3.056-2.947.19-.8.284-1.608-.011-2.367-.31-.79-.773-1.03-1.431-1.35-.608-.289-1.248.448-1.153 1.072-.069-.484-.093.374-.116.511-.047.207-.139.438-.197.641zM321.172 121.817c.552.27 1.146.24 1.736.326 1.245.169 1.964-1.906.882-2.544-.525-.313-.965-.689-1.566-.818-.782-.179-1.615.149-1.924 1.04-.309.891.136 1.649.872 1.996zM298.606 94.746c.016.348-.077.617 0 1.182.041.277.308.58.593.547 3.477-.292 4.958-6.502 1.551-7.736-.539-.2-1.31.269-1.306.94-.001 1.076-.119 2.099-.521 3.115-.234.602-.336 1.329-.317 1.953zM261.09 135.405c.175.139.362.244.588.309.148.038.304.053.445.075.176-.005.921.03.921.03.632-.07 1.316-.397 1.817-.841.521-.463 1.089-1.277 1.143-2.007.036-.605-.207-1.122-.299-1.574-.259-1.259-1.76-1.188-2.186-.101-.145.094-.293.2-.412.33-.004.011-.004.011-.019.019l-.046.024c-.125.075-.26.107-.385.181-.076.04-.521.214-.095.06-.355.126-.539.194-.787.371a1.989 1.989 0 00-.663.374c-.37.173-.69.273-1.139.459-.491.197-.495.853-.27 1.206.365.56.853.834 1.387 1.085zM260.3 112.793c.83-1.393.804-2.965.915-4.502.076-1.116-1.315-1.651-1.939-.672-.762 1.194-1.229 2.542-1.997 3.72-.503.772-1.653 2.264-.652 2.992 1.243.89 2.991-.395 3.673-1.538zM254.425 90.206c-.008.417.292.731.694.647.187-.04.372-.107.55-.19a.794.794 0 01.269-.17c.852-.059 1.45-1.139 1.757-1.846.295-.673.406-1.567.229-2.272-.067-.272-.17-.728-.384-.934-.102-.1-.203-.201-.316-.306l-.532-.184c-.315-.057-.683.038-.89.348-.027.043-.065.082-.166.192-.102.188-.193.38-.266.59-.119.38-.313.759-.487 1.118-.321.677-.618 1.533-.422 2.257-.011.246-.031.45-.036.75zM248.859 89.328c-.537.366-.841.707-1.109 1.336-.416.985.185 2.152 1.061 2.456.886.307 2.076-.227 2.352-1.273.179-.66.151-1.117-.044-1.736-.274-.857-1.504-1.283-2.26-.783zM215.252 86.074c.616-.167 1.414-.679 1.698-1.355a5.52 5.52 0 00.355-.415 2.92 2.92 0 00.426-.799c.101-.293-.131-.518-.389-.489-.195.024-.36.072-.569.066h-.187c-.037 0-.059-.007-.096-.007-.406-.298-1.118-.426-1.568-.49-.895-.14-2.324-.635-2.845.76-.781 2.041 1.664 3.15 3.175 2.729zM218.223 83.043c1.516.526 2.401-2.028.884-2.554-1.512-.537-2.401 2.029-.884 2.554zM353.254 372.646c-1.509-.194-2.769-.749-3.903-1.772-1.128-1.008-1.621-2.558-2.768-3.546-.393-.334-1.083-.061-1.229.467-.788 2.668.349 5.045 2.197 6.697 2.156 1.942 4.434 1.707 6.081-.966.234-.392.012-.823-.378-.88zM357.207 370.838c.018.02.025.036.032.051.036.039.085.043.121.082.117.133.069.09-.153-.133z" />
    <path
      d="M357.248 370.892c-.185-.182-.363-.349-.644-.433a2.728 2.728 0 01-.284-.112c-.335-.142-.77-.07-1.088.096-.504.272-.715.737-.835 1.3-.237 1.113.674 2.282 1.735 2.19.718-.066 1.35-.386 1.622-1.171.26-.751-.016-1.385-.506-1.87zM362.132 369.262a1.43 1.43 0 00-.344-.474c-.11-.222-.265-.42-.486-.497-.222-.077-.477-.021-.704.098-.315.048-.557.174-.839.379a1.977 1.977 0 00-.567.526c-.189.367-.354.665-.4 1.082-.03.41.057.768.199 1.146.308.829 1.383 1.202 2.138.741.676-.409 1.041-.926 1.194-1.727.07-.343.016-.69-.109-1.009-.031-.09-.045-.121-.082-.265zM359.707 368.774c.019-.019.041-.012.056-.02.049-.035.079-.089.124-.112-.063.043-.127.085-.18.132zM303.155 398.636c2.237.959 4.73-.541 5.327-3.053.094-.414-.093-.912-.545-.898-1.071.01-2.352.197-3.396-.047-1.138-.263-2.123-1.287-2.863-2.161-.744-.862-2.234-.143-2.03 1.096.389 2.315 1.433 4.173 3.507 5.063zM312.664 392.621c-.567-.407-1.231-.388-1.795-.084-.6.225-1.097.907-1.126 1.566-.027.543.077 1.065.416 1.484.742.94 2.211.819 2.912-.238.589-.912.408-2.144-.407-2.728zM312.725 387.887c.073.827.48 1.48 1.02 2.035.223.287.505.477.837.592-.734-.281.264.17.282.189.059.008.115.027.163.031.04.027.107.05.169.085.023.007.049.003.071.011.414.275 1.055.142 1.419-.191.329-.306.484-.752.443-1.173.005-.012.013-.035.006-.051.001-.039-.002-.066-.005-.093.05-.18.066-.371.057-.558a2.2 2.2 0 00.017-.73c-.093-1.056-.447-1.862-1.246-2.493-.577-.45-1.416-.464-2.071-.114-.879.497-1.254 1.47-1.162 2.46zM315.459 380.614l.014.005-.014-.005zM313.475 383.39c.543.188 1.031-.076 1.398-.526-.24.297.095-.059.167-.126-.038.04.039-.039.119-.129.291-.122.541-.416.643-.709.17-.492.005-.982-.352-1.276-.189-.276-.539-.41-.852-.44a1.894 1.894 0 00-.907.185c-.672.331-.894 1.041-1.01 1.735-.072.566.318 1.121.794 1.286zM227.92 403.585c.815.085 1.62 1.165 2.209 1.684.797.71 1.53 1.423 2.474 1.921 1.922 1.008 3.639.171 4.844-1.657.261-.395.008-.811-.378-.879-3.055-.533-6.492-5.835-9.691-2.977-.757.643-.32 1.819.542 1.908zM237.983 404.601c.01.187.022.296.014.32-.005.444.215.953.545 1.146.436.244.835.382 1.346.231.594-.175 1.144-.654 1.23-1.332l.004-.012c.02-.02.039-.039.066-.082.178-.227.2-.469.17-.742-.022-.152-.143-.338-.295-.364l-.3-.065c-.033-.011-.059-.007-.101.005a1.876 1.876 0 00-.587-.309 1.703 1.703 0 00-.792-.077c-.456-.08-.903.172-1.168.723-.075.145-.078.262-.117.445-.012.035-.013.074-.015.113zM240.68 399.103c-.033.776.353 1.488 1.051 1.73.609.211 1.56-.025 1.896-.709l.103-.188c.595-1.002.297-2.326-.767-2.695-1.053-.365-2.128.484-2.269 1.643.001.066-.012.141-.014.219zM222.048 345.831c.127.923.282 1.909.717 2.73.605 1.155 1.557 1.774 2.849 1.591.236-.036.634-.253.818-.425l.233-.208c.277-.298.525-.475.723-.866.099-.216-.018-.453-.17-.585-.281-.228-.349-.212-.351-.134a.167.167 0 00-.032-.051 1.38 1.38 0 00-.139-.245c.125.214-.423-.856-.248-.427-.259-.615-.566-.984-.893-1.794-.297-.72-.587-1.385-1.009-2.03-.197-.292-.489-.524-.782-.718l-.441-.231c-.115-.027-.222-.038-.337-.065-.011-.003-.011-.003-.015.008-1.036-.45-1.732.95-1.291 1.825.116.526.288 1.032.368 1.625z" />
    <path
      d="M226.665 349.519c-.004.011-.021.02-.025.031-.619.671.403-.363.025-.031zM229.271 350.802c.029.023.113.105.28.268.277.201.611.277.951.264.519-.031 1.033-.26 1.347-.702.024-.031.058-.059.081-.09.071-.133.358-.638.211-.466.247-.282.433-.532.422-.93-.013-.32-.164-.53-.472-.571-.108-.011-.227-.026-.343-.014-.228-.236-.542-.371-.901-.443-.208-.046-.42-.08-.649-.028-.445.174-.501.194-.169.06l-.157.024c-.472.073-.903.527-1.061.985-.228.656.025 1.217.46 1.643zM230.776 348.067c.022.008.04.027.062.035.055.019.105-.016.16.003a8.092 8.092 0 01-.222-.038z" />
    <path
      d="M229.418 350.946c-.119-.121-.166-.163-.159-.148.011.004.018.02.025.035.047.043.083.082.134.113zM234.009 349.594c.654.227 1.222-.088 1.67-.629.274-.325.396-.677.446-1.107.209-1.569-1.908-2.302-2.715-.94-.215.372-.348.719-.334 1.145.028.705.268 1.301.933 1.531zM235.492 345.417c.72.25 1.556-.195 1.828-.98.272-.785-.099-1.648-.829-1.902-.72-.249-1.556.196-1.828.981-.272.785.099 1.648.829 1.901zM77.129 5.871c.1-.07.188-.146.276-.22-.15.106-.299.213-.46.316l.184-.096zM79.884 2.675c.025-.07.075-.145.089-.219-.393-.228-.946-.459-1.551-.682-1.368-.316-2.726-.8-4.09-1.272 1.23.426 2.475.883 3.708 1.193.809.28 1.593.63 1.844.98z" />
  </g>
</svg>