<svg version="1.2" baseProfile="tiny-ps" xmlns="http://www.w3.org/2000/svg" viewBox="0 0 1920 499" width="1924" height="500"><style>.s0{opacity:.2;fill:none;stroke:#b063a3}</style><path id="Layer" class="s0" d="M-48.29 368.03s74.75-211.6 191.52-245.4c132.7-38.41 181.14 143.5 318.96 152.96 126.44 8.69 186.45-105.22 312.13-88.86 132.5 17.24 156.36 178.71 289.94 181.64 149.56 3.28 169.13-205.62 318.56-212.75 137.09-6.55 181.7 129.92 317.3 151.11 104.36 16.31 269.88-17.96 269.88-17.96"/><path id="Layer" class="s0" d="M-57.21 408.37S9.41 194.07 124.8 155.84c131.13-43.45 186.49 136.47 324.57 140.67 126.68 3.85 182.3-112.26 308.51-100.71 133.06 12.17 163.07 172.61 296.66 170.44 149.58-2.43 161.16-211.92 310.21-224.76 136.74-11.78 186.52 122.89 322.83 138.88 104.92 12.31 269.01-28.26 269.01-28.26"/></svg>