<svg width="1254" height="829" fill="none" xmlns="http://www.w3.org/2000/svg"><path opacity=".2" d="M1337.93-18.175s-95.26 87.243-170.15 117.357c-97.31 39.129-179.977-33.014-267.415 24.907-95.307 63.134-26.444 207.926-125.914 264.274-88.84 50.326-167.662-46.345-261.389-5.841-88.904 38.421-83.749 136.671-170.153 180.425-94.181 47.692-197.135-52.781-269.224 24.34-63.439 67.867-29.748 236.017-29.748 236.017" stroke="#B063A3"/><path opacity=".2" d="M1314.78-37s-91.86 90.816-165.55 123.769c-95.74 42.816-181.101-26.119-266.264 35.1-92.827 66.726-18.485 208.783-115.731 268.888-86.853 53.682-169.31-39.909-261.421 4.145-87.372 41.787-78.47 139.769-163.14 186.79-92.291 51.253-199.007-45.214-268.098 34.603-60.8 70.24-20.714 236.98-20.714 236.98" stroke="#B063A3"/></svg>