<svg width="28" height="31" fill="none" xmlns="http://www.w3.org/2000/svg"><path fill-rule="evenodd" clip-rule="evenodd" d="M26.554 11.219c-.552.041-.982.674-.828 1.218.268 1.01.408 2.09.408 3.202 0 6.88-5.424 12.424-12.14 12.424-2.623 0-5.037-.846-7.02-2.294l2.589-.31c.45-.065.817-.511.802-.977-.014-.465-.407-.887-.86-.923-1.615.147-3.264.377-4.887.574-.514.061-.911.628-.805 1.147l1.038 4.886c.064.523.616.925 1.12.816.503-.11.848-.706.7-1.21l-.467-2.235a13.688 13.688 0 0 0 7.79 2.438C21.717 29.974 28 23.55 28 15.638c0-1.272-.164-2.519-.478-3.703a.965.965 0 0 0-.968-.717zM21.866.001a.917.917 0 0 0-.69.412.968.968 0 0 0-.126.807l.63 2.425a13.74 13.74 0 0 0-7.686-2.342C6.271 1.303 0 7.727 0 15.64c0 1.259.153 2.497.466 3.68a.968.968 0 0 0 .438.581.922.922 0 0 0 1.279-.355.975.975 0 0 0 .091-.728 12.4 12.4 0 0 1-.408-3.178c0-6.88 5.412-12.424 12.128-12.424 2.727 0 5.242.9 7.265 2.449l-2.938.513a.932.932 0 0 0-.605.391.976.976 0 0 0 .222 1.334.917.917 0 0 0 .698.163l4.85-.848a.92.92 0 0 0 .628-.424.972.972 0 0 0 .12-.759L22.844.718a.958.958 0 0 0-.325-.511.92.92 0 0 0-.56-.206.91.91 0 0 0-.094 0z" fill="#B063A3"/></svg>