<svg width="31" height="31" fill="none" xmlns="http://www.w3.org/2000/svg"><path d="M15.5 0C6.952 0 0 6.952 0 15.5S6.952 31 15.5 31 31 24.048 31 15.5 24.048 0 15.5 0zm0 2.022A13.463 13.463 0 0 1 28.978 15.5 13.463 13.463 0 0 1 15.5 28.978 13.463 13.463 0 0 1 2.022 15.5 13.463 13.463 0 0 1 15.5 2.022zM9.772 9.098a2.359 2.359 0 1 0 0 4.717 2.359 2.359 0 0 0 0-4.717zm11.456 0a2.359 2.359 0 1 0 0 4.717 2.359 2.359 0 0 0 0-4.717zM7.982 18.533a.974.974 0 0 0-.8.526c-.171.326-.148.74.063 1.043 1.807 2.703 4.834 4.496 8.255 4.496 3.421 0 6.448-1.793 8.255-4.496.295-.442.168-1.106-.273-1.4-.441-.296-1.116-.168-1.411.273-1.46 2.183-3.852 3.601-6.571 3.601s-5.111-1.418-6.57-3.601c-.274-.321-.624-.461-.948-.442z" fill="#B063A3"/></svg>