<svg width="140" height="139" viewBox="0 0 140 139" fill="none" xmlns="http://www.w3.org/2000/svg">
    <path d="M70 0L80.1877 22.0708L98.4716 6.05182L98.8015 30.3582L122.02 23.1609L112.435 45.5L136.574 48.3688L118.732 64.8781L139.617 77.317L116.602 85.1418L130.622 105L106.414 102.787L111.145 126.631L89.9301 114.764L84.5538 138.47L70 119L55.4462 138.47L50.0699 114.764L28.855 126.631L33.5859 102.787L9.37822 105L23.3982 85.1418L0.383469 77.317L21.2684 64.8781L3.42604 48.3688L27.5648 45.5L17.9799 23.1609L41.1985 30.3582L41.5284 6.05182L59.8123 22.0708L70 0Z" fill="#F9CA5D"/>
</svg>
