<svg width="698" height="955" viewBox="0 0 698 955" fill="none" xmlns="http://www.w3.org/2000/svg">
<path opacity="0.15" d="M272 16C244.097 38.6426 219 75.5012 219 131C219 188.836 188.019 207.671 157.483 224.521C126.948 241.371 106.942 268.753 84.3039 304.56C61.6657 340.366 74.8274 411.98 69.5627 462.531C64.298 513.082 97.4657 534.145 106.942 555.208C116.419 576.27 106.942 602.072 97.4657 638.932C87.9892 675.792 84.3039 718.971 84.3039 747.933C84.3039 771.102 99.396 794.797 106.942 803.749C109.574 810.419 123.368 827.761 157.483 843.769C200.127 863.778 558.127 852.72 579.712 843.769C601.298 834.817 592.874 803.749 592.874 790.585C592.874 777.421 600.771 747.933 603.404 714.759C606.036 681.585 597.086 663.155 592.874 627.348C588.662 591.541 611.301 594.174 619.198 555.208C627.095 516.241 621.83 434.623 611.301 368.275C600.771 301.927 534.436 279.284 510.745 259.275C487.054 239.265 493.371 203.458 493.371 175.55C493.371 147.641 493.371 46 436.5 16" stroke="#D8399C" stroke-width="3" stroke-dasharray="4 4"/>
<path opacity="0.1" d="M224 1.50049C189.046 29.319 175.5 60.5005 175.5 95.5005C175.5 147 155.752 170.798 117.5 191.5C79.2482 212.203 49.5304 232.741 21.1713 276.733C-7.18777 320.725 9.30006 408.709 2.70493 470.816C-3.8902 532.922 37.6591 558.8 49.5304 584.678C61.4016 610.555 49.5304 642.255 37.6591 687.541C25.7879 732.827 21.1713 785.877 21.1713 821.458C21.1713 849.924 40.0773 879.036 49.5304 890.034C52.8279 898.229 70.1072 919.535 112.844 939.202C166.264 963.786 614.733 950.2 641.773 939.202C668.813 928.204 658.261 890.034 658.261 873.861C658.261 857.687 668.154 821.458 671.451 780.701C674.749 739.944 663.537 717.301 658.261 673.309C652.985 629.317 681.344 632.551 691.237 584.678C701.13 536.804 694.534 436.528 681.344 355.013C668.154 273.499 585.055 245.68 555.377 221.096C525.699 196.513 537 166.788 537 132.5C537 98.2126 533 35.0005 484.5 1.50049" stroke="#D8399C" stroke-width="3" stroke-dasharray="4 4"/>
</svg>
