<svg width="30" height="37" fill="none" xmlns="http://www.w3.org/2000/svg"><path d="M14.71 1.87a1.358 1.358 0 0 1 1.393 1.394v3.689c0 1.968-1.596 3.681-3.577 3.681h-6.75c-1.241 0-1.241 1.87 0 1.87h18.786c1.981 0 3.578 1.716 3.578 3.684 0 1.97-1.596 3.689-3.578 3.689H5.777c-1.266-.023-1.266 1.89 0 1.868h18.785c1.981 0 3.578 1.715 3.578 3.686 0 1.968-1.596 3.684-3.578 3.684h-7.527a.931.931 0 0 0-.932.933v3.688a1.36 1.36 0 0 1-1.355 1.394 1.356 1.356 0 0 1-1.39-1.394v-3.688c0-1.969 1.593-3.682 3.574-3.682h7.294c1.242 0 1.242-1.87 0-1.87H5.438c-1.98 0-3.575-1.716-3.575-3.684 0-1.97 1.595-3.689 3.575-3.689h18.788c1.242 0 1.242-1.87 0-1.87H5.438c-1.98 0-3.575-1.713-3.575-3.683 0-1.968 1.595-3.684 3.575-3.684h6.988a.933.933 0 0 0 .931-.932v-3.69A1.358 1.358 0 0 1 14.71 1.87zM14.68 0c-1.775.026-3.212 1.51-3.186 3.29v2.728H5.438C2.402 6.018 0 8.591 0 11.57c0 1.887.964 3.609 2.44 4.618A5.636 5.636 0 0 0 0 20.812c0 2.978 2.402 5.554 5.438 5.554h7.45a5.61 5.61 0 0 0-1.393 3.681v3.663c-.026 1.819 1.473 3.318 3.285 3.29 1.773-.027 3.21-1.51 3.184-3.29v-2.728h6.598C27.6 30.982 30 28.408 30 25.43c0-1.888-.962-3.61-2.44-4.621A5.633 5.633 0 0 0 30 16.187c0-2.98-2.4-5.554-5.438-5.554H16.57a5.595 5.595 0 0 0 1.393-3.681V3.289C17.99 1.47 16.491-.028 14.681 0z" fill="#B063A3"/></svg>