<svg width="32" height="38" fill="none" xmlns="http://www.w3.org/2000/svg"><path d="M7.179 23.72c-1.547.826-2.956 1.893-4.06 3.266L.28 30.52a1.277 1.277 0 0 0 .183 1.783 1.246 1.246 0 0 0 1.762-.184l3.012-3.75a8.393 8.393 0 0 1 2.433-2.056c2.233-1.25 4.98-4.144 6.004-6.508C16.1 14.21 16.515 9.482 14.906 5.742 13.042 1.41 9.143.113 8.978.06a1.25 1.25 0 0 0-1.573.824 1.27 1.27 0 0 0 .814 1.59c.029.01 2.975.99 4.39 4.278.145.338.256.695.36 1.056-2.952-.058-6.797.49-8.274 3.478a1.273 1.273 0 0 0 .56 1.7 1.244 1.244 0 0 0 1.68-.567c.973-1.969 4.405-2.143 6.403-2.065.074 2.666-.71 5.799-2.386 9.384a8.721 8.721 0 0 1-3.773 3.982zM4.662 36.882a1.248 1.248 0 0 0 1.648-.657c.656-1.53 1.485-3.032 2.214-4.09.546-.793 1.743-.673 2.15.2.138.294.266.58.375.822.997 2.227 2.127 4.75 4.299 4.842l.053.001a1.26 1.26 0 0 0 1.25-1.214 1.261 1.261 0 0 0-1.2-1.318c-.63-.027-1.636-2.276-2.12-3.356-.94-2.097-1.9-4.261-3.813-3.945-2.415.407-4.655 5.066-5.507 7.049a1.272 1.272 0 0 0 .651 1.666zM30.747 21.556c.11 0 .224-.015.335-.046a1.269 1.269 0 0 0 .872-1.56c-1.262-4.594-5.724-7.233-8.27-8.397-.936-.428-1.585-1.242-1.738-2.177-1.116-6.83-5.019-9.12-5.185-9.213a1.239 1.239 0 0 0-1.693.476 1.28 1.28 0 0 0 .456 1.727c.124.073 3.043 1.87 3.95 7.423.29 1.771 1.477 3.294 3.177 4.072 2.148.982 5.9 3.166 6.89 6.767.154.56.657.928 1.206.928zM20.397 18.804h.024c4.905.096 6.261 5.557 6.324 5.825.157.681.83 1.105 1.503.947a1.268 1.268 0 0 0 .937-1.52c-.605-2.646-3.206-7.677-8.715-7.786a3.939 3.939 0 0 0-3.424 1.918c-1.511 2.493-5.651 11.226 4.533 18.876a1.24 1.24 0 0 0 1.752-.261 1.276 1.276 0 0 0-.259-1.773c-3.117-2.342-4.675-4.734-5.316-6.975 3.945.22 6.006 2.151 6.097 2.244a1.246 1.246 0 0 0 1.766 0 1.287 1.287 0 0 0 0-1.799c-.131-.12-2.959-2.908-8.228-3.01-.003-2.412.904-4.513 1.792-5.979.26-.433.735-.707 1.214-.707z" fill="#B063A3"/></svg>