<svg width="33" height="42" fill="none" xmlns="http://www.w3.org/2000/svg"><path d="M20.344 4.849c-1.136-1.325-2.158-2.499-2.953-3.483-.038-.076-.113-.114-.151-.151a.966.966 0 0 0-1.363.151c-.795.984-1.817 2.158-2.953 3.483C7.927 10.64 1 18.666 1 25.366c0 4.315 1.741 8.215 4.58 11.054C8.42 39.22 12.32 41 16.634 41c4.316 0 8.215-1.741 11.054-4.58a15.563 15.563 0 0 0 4.58-11.054c0-6.7-6.927-14.726-11.924-20.517zm5.98 30.17c-2.498 2.498-5.905 4.05-9.69 4.05-3.785 0-7.192-1.552-9.69-4.012a13.706 13.706 0 0 1-4.013-9.691c0-5.981 6.662-13.704 11.47-19.268.795-.947 1.552-1.817 2.233-2.65.681.833 1.439 1.703 2.233 2.612 4.808 5.565 11.47 13.25 11.47 19.268 0 3.786-1.552 7.192-4.012 9.691z" fill="#B063A3"/><path d="M16.71 34.11a8.437 8.437 0 0 1-5.982-2.46 8.438 8.438 0 0 1-2.46-5.981.937.937 0 0 0-.946-.947.937.937 0 0 0-.947.947c0 2.877 1.174 5.45 3.029 7.344 1.817 1.817 4.429 2.99 7.305 2.99.53 0 .947-.416.947-.946a.937.937 0 0 0-.947-.947z" fill="#B063A3"/><path d="M20.344 4.849c-1.136-1.325-2.158-2.499-2.953-3.483-.038-.076-.113-.114-.151-.151a.966.966 0 0 0-1.363.151c-.795.984-1.817 2.158-2.953 3.483C7.927 10.64 1 18.666 1 25.366c0 4.315 1.741 8.215 4.58 11.054C8.42 39.22 12.32 41 16.634 41c4.316 0 8.215-1.741 11.054-4.58a15.563 15.563 0 0 0 4.58-11.054c0-6.7-6.927-14.726-11.924-20.517zm5.98 30.17c-2.498 2.498-5.905 4.05-9.69 4.05-3.785 0-7.192-1.552-9.69-4.012a13.706 13.706 0 0 1-4.013-9.691c0-5.981 6.662-13.704 11.47-19.268.795-.947 1.552-1.817 2.233-2.65.681.833 1.439 1.703 2.233 2.612 4.808 5.565 11.47 13.25 11.47 19.268 0 3.786-1.552 7.192-4.012 9.691z" stroke="#B063A3" stroke-width=".5"/><path d="M16.71 34.11a8.437 8.437 0 0 1-5.982-2.46 8.438 8.438 0 0 1-2.46-5.981.937.937 0 0 0-.946-.947.937.937 0 0 0-.947.947c0 2.877 1.174 5.45 3.029 7.344 1.817 1.817 4.429 2.99 7.305 2.99.53 0 .947-.416.947-.946a.937.937 0 0 0-.947-.947z" stroke="#B063A3" stroke-width=".5"/></svg>