<svg width="37" height="35" fill="none" xmlns="http://www.w3.org/2000/svg"><path d="M11.101 0C8.25 0 5.407 1.172 3.253 3.434c-4.311 4.528-4.363 11.812 0 16.303l14.535 14.967A.992.992 0 0 0 18.5 35a1.007 1.007 0 0 0 .712-.296l5.697-5.865 8.839-9.102c4.36-4.493 4.311-11.775 0-16.303C31.594 1.172 28.751 0 25.9 0c-2.593 0-5.148 1.015-7.4 2.857C16.25 1.015 13.694 0 11.101 0zm0 1.945c2.303 0 4.623.924 6.718 2.856a1 1 0 0 0 1.363 0c2.095-1.932 4.415-2.856 6.718-2.856s4.613.925 6.408 2.81c3.588 3.769 3.613 9.907 0 13.63l-8.838 9.101-4.97 5.136L4.693 18.385a9.106 9.106 0 0 1-.31-.334h6.997c.21 0 .416-.067.586-.19a.973.973 0 0 0 .358-.494l1.347-4.163 3.622 11.259c.064.197.19.368.36.49a1.003 1.003 0 0 0 1.17 0 .974.974 0 0 0 .359-.49l2.058-6.412h8.003a1.008 1.008 0 0 0 .71-.28.973.973 0 0 0 .295-.693.958.958 0 0 0-.295-.692.991.991 0 0 0-.71-.28h-8.73c-.211 0-.417.067-.587.19a.972.972 0 0 0-.357.494l-1.332 4.163-3.622-11.26a.973.973 0 0 0-.377-.507 1.004 1.004 0 0 0-1.172.027.972.972 0 0 0-.34.48l-2.074 6.413h-7.6c-1.848-3.628-1.282-8.28 1.64-11.35 1.796-1.886 4.106-2.811 6.41-2.811z" fill="#B063A3"/></svg>