<svg width="1489" height="774" fill="none" xmlns="http://www.w3.org/2000/svg"><path opacity=".2" d="M1181.1-225.454s-57.64 115.597-116.76 170.563c-76.81 71.418-179.844 33.71-240.7 119.132-66.333 93.109 49.867 203.582-22.785 291.849-64.888 78.834-173.132 16.852-246.103 88.27-69.217 67.743-29.177 157.612-94.148 229.437-70.818 78.29-202.952 21.413-242.595 119.254-34.886 86.1 56.855 230.989 56.855 230.989" stroke="#B063A3"/><path opacity=".2" d="M1152.74-234.726s-53.19 117.714-110.16 174.896c-74.03 74.3-178.428 40.554-235.979 128.237-62.729 95.573 57.605 201.529-11.624 292.505-61.83 81.255-172.362 23.452-242.553 97.604-66.579 70.336-23.137 158.611-85.318 232.865-67.777 80.936-201.986 29.146-237.865 128.43-31.573 87.369 65.634 228.649 65.634 228.649" stroke="#B063A3"/></svg>