<svg width="1332" height="898" viewBox="0 0 1332 898" fill="none" xmlns="http://www.w3.org/2000/svg">
<path opacity="0.2" d="M1312.75 -132.016C1312.75 -132.016 1232.26 -30.985 1162.98 10.4408C1072.97 64.2664 980.063 5.89649 902.728 76.7453C818.433 153.97 909.033 286.251 819.568 357.421C739.663 420.986 646.729 337.79 560.466 392.416C478.641 444.231 499.055 540.475 420.531 597.168C334.941 658.964 217.577 575.776 158.397 663.196C106.319 740.125 165.82 900.964 165.82 900.964" stroke="#B063A3"/>
<path opacity="0.2" d="M1286.95 -147C1286.95 -147 1210.38 -42.9696 1142.73 1.07137C1054.83 58.295 959.769 3.51503 885.195 77.2652C803.911 157.652 899.496 286.377 812.814 360.912C735.394 427.482 639.351 347.895 555.237 405.774C475.45 460.676 499.524 556.07 423.223 615.721C340.054 680.739 219.599 602.094 163.801 691.71C114.698 770.572 180.297 929.021 180.297 929.021" stroke="#B063A3"/>
</svg>
