<svg width="49" height="49" viewBox="0 0 49 49" fill="none" xmlns="http://www.w3.org/2000/svg">
<path d="M4.1684 0C1.88405 0 0 1.88391 0 4.1684V44.8369C0 47.1214 1.88405 49 4.1684 49H44.8316C47.116 49 49 47.1214 49 44.8369V4.1684C49 1.88391 47.116 0 44.8316 0H4.1684ZM4.1684 2.72754H44.8316C45.6548 2.72754 46.2778 3.34493 46.2778 4.1684V44.8369C46.2778 45.6604 45.6548 46.2778 44.8316 46.2778H4.1684C3.34517 46.2778 2.72222 45.6604 2.72222 44.8369V4.1684C2.72222 3.34493 3.34517 2.72754 4.1684 2.72754ZM23.1389 8.16667C22.7779 8.1667 22.4317 8.31012 22.1765 8.56537C21.9212 8.82062 21.7778 9.1668 21.7778 9.52778V17.6944C21.7778 18.0554 21.9212 18.4016 22.1765 18.6569C22.4317 18.9121 22.7779 19.0555 23.1389 19.0556H39.4722C39.8332 19.0555 40.1794 18.9121 40.4346 18.6569C40.6899 18.4016 40.8333 18.0554 40.8333 17.6944V9.52778C40.8333 9.1668 40.6899 8.82062 40.4346 8.56537C40.1794 8.31012 39.8332 8.1667 39.4722 8.16667H23.1389ZM8.16667 10.8889V13.6111H16.3333V10.8889H8.16667ZM24.5 10.8889H38.1111V16.3333H24.5V10.8889ZM23.1389 21.7778C22.7779 21.7778 22.4317 21.9212 22.1765 22.1765C21.9212 22.4317 21.7778 22.7779 21.7778 23.1389V31.3056C21.7778 31.6665 21.9212 32.0127 22.1765 32.268C22.4317 32.5232 22.7779 32.6666 23.1389 32.6667H39.4722C39.8332 32.6666 40.1794 32.5232 40.4346 32.268C40.6899 32.0127 40.8333 31.6665 40.8333 31.3056V23.1389C40.8333 22.7779 40.6899 22.4317 40.4346 22.1765C40.1794 21.9212 39.8332 21.7778 39.4722 21.7778H23.1389ZM8.16667 24.5V27.2222H16.3333V24.5H8.16667ZM24.5 24.5H38.1111V29.9444H24.5V24.5ZM8.16667 38.1111V40.8333H40.5569V38.1111H8.16667Z" fill="#B063A3"/>
</svg>
