<svg width="1255" height="715" fill="none" xmlns="http://www.w3.org/2000/svg"><path opacity=".2" d="M1344.86 8.34s-99.85 81.954-176.27 107.966c-99.28 33.799-177.915-42.718-268.363 10.381-98.588 57.877-37.672 206.187-140.048 257.062-91.437 45.439-164.905-55.361-260.689-19.995-90.855 33.547-91.032 131.932-179.68 170.94-96.626 42.518-193.985-63.385-270.147 9.717C-17.36 608.74 7.17 778.469 7.17 778.469" stroke="#B063A3"/><path opacity=".2" d="M1322.76-11.71s-96.64 85.705-172.01 114.616c-97.92 37.565-179.422-35.893-267.776 20.621-96.306 61.599-29.771 207.475-130.13 262.222-89.635 48.897-166.899-49.024-261.263-10.026-89.508 36.992-85.927 135.312-173.021 177.676-94.932 46.177-196.265-55.931-269.58 20.025-64.516 66.842-33.524 235.51-33.524 235.51" stroke="#B063A3"/></svg>