<svg width="50" height="50" viewBox="0 0 50 50" fill="none" xmlns="http://www.w3.org/2000/svg">
<path d="M45.2273 31.9318C45.4545 29.375 45.4545 26.6477 45.4545 23.8068C45.4545 10.6818 36.3068 0 25 0C13.6932 0 4.54545 10.6818 4.54545 23.8068C4.54545 26.6477 4.54545 29.375 4.77273 31.9318C1.98864 32.7841 0 35.3977 0 38.4659V43.1818C0 45 0.738636 46.7045 1.98864 48.0114C3.29545 49.3182 5 50 6.81818 50H9.65909C12.1591 50 14.2045 47.9545 14.2045 45.4545V36.1932C14.2045 35 13.75 33.8636 12.8409 33.0114C11.9886 32.1591 10.8523 31.7045 9.65909 31.7045H7.10227C6.81818 29.2045 6.81818 26.5909 6.81818 23.8068C6.81818 11.9318 15 2.27273 25 2.27273C35 2.27273 43.1818 11.9318 43.1818 23.8068C43.1818 26.5909 43.1818 29.2045 42.9545 31.6477H40.3409C37.8409 31.6477 35.7955 33.6932 35.7955 36.1932V45.4545C35.7955 47.9545 37.8409 50 40.3409 50H43.1818C46.9318 50 50 46.9318 50 43.1818V38.4659C50 35.3977 47.9545 32.7841 45.2273 31.9318ZM9.65909 33.9205C10.2841 33.9205 10.8523 34.1477 11.25 34.6023C11.7045 35.0568 11.9318 35.625 11.9318 36.1932V45.4545C11.9318 46.7045 10.9091 47.7273 9.65909 47.7273H6.81818C5.625 47.7273 4.48864 47.2727 3.63636 46.4205C2.78409 45.5114 2.27273 44.375 2.27273 43.1818V38.4659C2.27273 35.9659 4.31818 33.9205 6.81818 33.9205H9.65909ZM47.7273 43.1818C47.7273 45.6818 45.6818 47.7273 43.1818 47.7273H40.3409C39.0909 47.7273 38.0682 46.7045 38.0682 45.4545V36.1932C38.0682 34.9432 39.0909 33.9205 40.3409 33.9205H43.1818C45.6818 33.9205 47.7273 35.9659 47.7273 38.4659V43.1818Z" fill="#B063A3"/>
</svg>
