<svg width="46" height="30" fill="none" xmlns="http://www.w3.org/2000/svg"><path d="M45.354 1.596A30.044 30.044 0 0 0 33.06.34c-4.546.487-8.058 2.112-10.158 4.7a10.176 10.176 0 0 0-1.186 10.711c.178.357.38.702.604 1.033a30.97 30.97 0 0 0-1.833 5.314c-.3-.366-.626-.742-.978-1.124.047-.105.093-.212.135-.321 1.081-2.784.407-6.09-1.677-8.23-1.802-1.848-4.614-2.855-8.133-2.912-3.181-.046-6.337.57-9.267 1.808a.931.931 0 0 0-.1 1.665 9.064 9.064 0 0 1 3.896 4.555c.195.51.346 1.042.506 1.606.12.421.243.857.388 1.287.22.7.534 1.367.93 1.985 1.328 2.005 3.522 3.141 5.987 3.141a8.26 8.26 0 0 0 6.311-2.937c.521.59.971 1.158 1.356 1.687 2.185 3.008 2.827 5.47 2.834 5.496l1.807-.453c-.025-.102-.6-2.345-2.517-5.248.366-1.966.936-3.89 1.7-5.737 1.832 1.73 4.36 2.78 7.045 2.825l.178.001c3.554 0 6.619-1.762 8.222-4.739.4-.742.705-1.585.96-2.653.136-.575.247-1.16.353-1.727.145-.768.281-1.493.48-2.2a12.284 12.284 0 0 1 4.7-6.627.931.931 0 0 0-.25-1.65zM18.06 19.524c-2.331-2.16-5.549-4.37-9.913-6.005l-.654 1.746c4.363 1.634 7.494 3.87 9.694 5.998-.988 1.308-2.567 2.205-4.332 2.395-2.142.231-4.007-.596-5.114-2.27a6.533 6.533 0 0 1-.717-1.55c-.13-.387-.243-.783-.362-1.202-.164-.577-.334-1.175-.557-1.761a10.807 10.807 0 0 0-3.188-4.45 21.072 21.072 0 0 1 6.887-1.05c2.104.034 4.996.47 6.83 2.35 1.446 1.485 2.001 3.808 1.426 5.799zM39.11 9.369c-.221.785-.372 1.586-.518 2.36-.107.57-.208 1.107-.335 1.64-.216.905-.466 1.604-.787 2.2-1.294 2.402-3.81 3.804-6.73 3.759-2.45-.04-4.734-1.087-6.245-2.776l.012-.026c1.228-2.433 2.749-4.485 4.519-6.098a16.414 16.414 0 0 1 7.717-3.958l-.39-1.822a18.256 18.256 0 0 0-8.582 4.403c-1.714 1.561-3.207 3.488-4.45 5.735-1.286-2.727-.873-6.23 1.028-8.573 2.253-2.775 6.088-3.718 8.91-4.02a27.692 27.692 0 0 1 2.947-.157c2.32 0 4.631.285 6.88.85a13.989 13.989 0 0 0-3.977 6.483z" fill="#fff"/></svg>