<svg width="432" height="87" viewBox="0 0 432 87" fill="none" xmlns="http://www.w3.org/2000/svg"><path d="M312.317 83.173c5.291-5.237 10.582-11.223 14.361-17.956l15.118-23.194-10.582-17.208c-3.78-6.734-9.071-14.215-17.386-23.193h19.653c.756 4.489 3.78 10.474 8.315 17.208l6.803 11.97 6.803-11.97c3.024-5.238 6.048-11.223 7.559-17.208h18.898c-6.803 8.978-11.339 14.963-15.874 23.193l-10.583 16.46 12.851 21.697c3.023 5.237 7.559 11.97 15.874 20.95h-20.41c-1.512-5.238-3.779-11.224-6.803-16.46l-8.315-13.468-8.315 14.215c-3.023 5.986-5.291 9.727-6.803 16.46h-21.164v-1.496zM387.167 65.337c6.079 7.584 9.878 9.86 16.717 9.86 8.359 0 14.438-6.068 14.438-12.894 0-6.067-5.319-9.86-12.918-15.927-6.079-4.55-17.478-9.86-17.478-23.51 0-12.136 9.119-22.754 26.597-22.754 4.559 0 9.878.759 14.438 3.034v14.41c-6.839-6.826-10.639-7.584-15.198-7.584-6.839 0-12.159 4.55-12.159 11.376 0 7.584 6.84 11.377 15.198 17.444C427.441 46.376 432 52.443 432 62.303c0 6.067-2.279 11.376-6.079 15.169-6.079 6.825-12.918 9.1-23.557 9.1-4.559 0-9.118-.758-15.957-3.791V65.337h.76z" fill="#B763C9"/><path d="M13.378 22.589c-1.115 3.894-2.23 7.232-2.23 15.021v40.057c7.804 0 17.28-2.226 25.084-5.564l-5.017 12.24H0c1.672-4.451 2.23-9.458 2.23-15.022V39.28c0-7.232-1.115-12.24-2.23-16.69h13.378zM42.92 84.342c1.116-4.45 2.23-10.57 2.23-17.246V39.279c0-7.233-.557-12.796-2.23-16.69h13.936c-1.114 3.894-2.23 9.457-2.23 16.69v27.817c0 6.676.558 12.795 2.23 17.246H42.921zM114.828 34.827c-5.574-3.895-11.149-5.564-16.723-5.564-14.493 0-21.74 11.127-21.74 24.48 0 14.464 7.805 23.922 20.625 23.922 5.575 0 11.706-1.669 16.723-5.007l2.787-2.225-.557 10.014c-8.362 3.894-13.936 4.45-18.953 4.45-18.394 0-30.658-12.795-30.658-30.598 0-17.247 11.706-32.824 32.888-32.824 5.017 0 10.591.556 15.608 2.781v10.57zM121.518 53.187c0-21.14 17.28-31.155 32.33-31.155 16.165 0 30.658 11.683 30.658 31.712 0 18.915-13.935 31.711-31.215 31.711-15.051 0-31.773-10.57-31.773-32.268zm52.954 2.226c0-13.352-8.918-26.148-22.296-26.148-8.362 0-20.625 5.563-20.625 22.253 0 15.021 9.476 26.705 22.297 26.705 10.034-.557 20.624-7.79 20.624-22.81zM203.458 22.588c2.229 4.451 5.016 7.233 7.803 11.127l25.642 35.606v-27.26c0-6.677-.558-14.466-2.23-19.473h12.821c-1.673 5.564-2.23 12.24-2.23 21.141v22.81c0 6.676 0 11.127 2.23 17.803h-12.263c-1.673-4.45-4.46-7.788-7.247-11.683L205.13 41.504v26.704c0 6.676.557 11.127 2.23 16.134h-12.821c2.229-6.12 2.229-12.24 2.229-19.472V32.602l-7.803-9.457h14.493v-.557zM292.644 22.588l-4.459 10.014c-5.017-2.781-10.033-3.338-15.05-3.338h-2.787v20.029h20.067l-5.574 10.014c-4.46-2.782-10.034-3.338-14.493-3.338v21.697c3.902 0 18.395-1.113 26.198-5.563l-5.016 12.24h-32.888c1.672-4.452 2.229-11.128 2.229-20.585v-22.81c0-7.79-.557-12.24-2.229-18.36h34.002z" fill="#501688"/></svg>