<svg width="66" height="157" viewBox="0 0 66 157" fill="none" xmlns="http://www.w3.org/2000/svg">
<path d="M32.9883 31.3637C42.1599 31.3637 49.6103 24.3226 49.6103 15.6818C49.6103 7.02895 42.1471 0 32.9883 0C23.8166 0 16.3662 7.04107 16.3662 15.6818C16.3662 24.3347 23.8166 31.3637 32.9883 31.3637ZM32.9883 3.63566C40.0276 3.63566 45.7567 9.04068 45.7567 15.6818C45.7567 22.323 40.0276 27.728 32.9883 27.728C25.9489 27.728 20.2198 22.323 20.2198 15.6818C20.2198 9.04068 25.9489 3.63566 32.9883 3.63566Z" fill="#B6D095"/>
<path d="M34.9137 155.182V92.9396C34.9137 91.9338 34.0531 91.1218 32.9869 91.1218C31.9207 91.1218 31.0601 91.9338 31.0601 92.9396V155.182C31.0601 156.188 31.9207 157 32.9869 157C34.0531 157 34.9137 156.188 34.9137 155.182Z" fill="#B6D095"/>
<path d="M7.11646 96.6722C8.81207 96.6722 9.09467 96.2238 10.4049 95.4604C10.4049 96.4905 10.4049 97.5327 10.4049 98.6234C10.4049 104.259 18.1122 140.543 18.1122 155.17C18.1122 156.176 18.9729 156.988 20.039 156.988C21.1052 156.988 21.9659 156.176 21.9659 155.17C21.9659 140.482 14.2586 104.198 14.2586 98.6234C14.2586 95.0362 14.2714 91.8005 14.2971 88.8677C14.4384 72.4466 21.9659 57.3586 21.9659 54.3168C21.9659 53.3109 21.1052 52.4989 20.039 52.4989C18.9729 52.4989 18.1122 53.3109 18.1122 54.3168C18.1122 57.2495 10.5847 72.3133 10.4434 88.8677C10.4434 91.2066 9.69841 93.0366 7.12931 93.0366C4.61159 93.0366 3.8537 89.8978 3.8537 87.5225C3.8537 50.9356 21.9016 35.7143 24.3551 35.5931C25.4213 35.5446 26.2306 34.6842 26.1792 33.6783C26.1278 32.6725 25.2158 31.909 24.1496 31.9574C16.5065 32.3453 4.94118e-05 54.6076 4.94118e-05 87.5225C-0.0127961 91.8974 2.47923 96.6722 7.11646 96.6722Z" fill="#B6D095"/>
<path d="M39.808 33.6783C39.7566 34.6842 40.5659 35.5325 41.6321 35.5931C44.0984 35.7143 62.1335 50.9356 62.1335 87.5225C62.1335 89.8978 61.3756 93.0366 58.8579 93.0366C56.2759 93.0366 55.5438 91.2066 55.5438 88.8677C55.4025 72.4224 47.875 56.6921 47.875 54.3168C47.875 53.3109 47.0143 52.4989 45.9482 52.4989C44.882 52.4989 44.0213 53.3109 44.0213 54.3168C44.0213 56.8133 51.5488 72.5436 51.6901 88.8677C51.7158 91.8005 51.7286 95.0241 51.7286 98.6234C51.7286 104.198 44.0213 140.482 44.0213 155.17C44.0213 156.176 44.882 156.988 45.9482 156.988C47.0143 156.988 47.875 156.176 47.875 155.17C47.875 140.543 55.5823 104.259 55.5823 98.6234C55.5823 97.5206 55.5823 96.4541 55.5823 95.424C56.9054 96.2117 57.188 96.6722 58.8707 96.6722C63.508 96.6722 66 91.8974 66 87.5225C66 54.6076 49.4807 32.3453 41.8505 31.9574C40.7843 31.909 39.8594 32.6725 39.808 33.6783Z" fill="#B6D095"/>
</svg>
