<svg width="29" height="41" viewBox="0 0 29 41" fill="none" xmlns="http://www.w3.org/2000/svg">
<path d="M24.17 1.34391C24.6721 0.221929 23.0532 -0.582155 22.5511 0.539288C21.5479 2.76828 21.0129 5.88311 21.1168 8.91565C21.3339 15.2431 24.2679 17.2835 25.9603 21.6832C19.074 25.3873 9.96778 25.4328 3.02923 21.8456C4.70897 17.3561 7.71342 15.3318 7.93353 8.91565C8.03801 5.88311 7.50295 2.76828 6.49927 0.539288C5.99717 -0.582155 4.3783 0.221929 4.88039 1.34391C5.76895 3.31698 6.24163 6.1075 6.14729 8.8494C5.92313 15.3782 2.0225 17.5458 0.663805 23.512C-0.421532 28.2772 0.0704212 33.3972 0.420872 38.32C0.508104 39.5568 2.29485 39.4185 2.20762 38.18C2.2061 38.1586 1.82116 32.701 1.9723 28.1998C14.4445 31.7671 12.0669 39.7754 12.0604 39.7994C11.7287 40.9887 13.4454 41.5198 13.7766 40.3305C13.7807 40.3171 14.3877 38.2612 13.6939 35.6422H15.3569C14.6631 38.2612 15.2707 40.3171 15.2743 40.3305C15.606 41.5198 17.3227 40.9887 16.991 39.7994C16.9844 39.7754 14.6068 31.7671 27.0786 28.1998C27.2302 32.701 26.8448 38.1586 26.8438 38.18C26.7565 39.4185 28.5428 39.5568 28.63 38.32C28.946 33.8796 29.375 27.8471 28.3876 23.512C27.006 17.4464 23.1318 15.4872 22.9041 8.8494C22.8097 6.1075 23.2824 3.31698 24.1705 1.34391H24.17ZM26.5369 23.4853C26.7758 24.4155 26.894 25.3184 26.9721 26.2796C20.4768 28.0566 17.4404 31.0101 16.072 33.7519H12.9783C11.61 31.0101 8.57358 28.0566 2.07829 26.2796C2.15031 25.3868 2.25681 24.5202 2.47084 23.6526C9.81056 27.3535 19.2469 27.3006 26.5364 23.4853H26.5369Z" fill="#B063A3"/>
</svg>
