<svg width="31" height="43" viewBox="0 0 31 43" fill="none" xmlns="http://www.w3.org/2000/svg">
<path d="M25.0259 10.6871C24.8697 10.6871 24.72 10.6252 24.6096 10.515C24.4992 10.4048 24.4372 10.2554 24.4372 10.0995V6.04535C24.4372 5.4814 24.2127 4.94055 23.8131 4.54177C23.4136 4.143 22.8717 3.91897 22.3066 3.91897C21.7416 3.91897 21.1996 4.143 20.8001 4.54177C20.4005 4.94055 20.1761 5.4814 20.1761 6.04535V9.03604C20.1761 9.19187 20.114 9.34132 20.0036 9.4515C19.8932 9.56169 19.7435 9.6236 19.5873 9.6236C19.4312 9.6236 19.2815 9.56169 19.1711 9.4515C19.0606 9.34132 18.9986 9.19187 18.9986 9.03604V6.04535C18.9986 5.16974 19.3471 4.32999 19.9675 3.71084C20.5879 3.09169 21.4293 2.74385 22.3066 2.74385C23.1839 2.74385 24.0253 3.09169 24.6457 3.71084C25.2661 4.32999 25.6146 5.16974 25.6146 6.04535V10.0995C25.6146 10.2554 25.5526 10.4048 25.4422 10.515C25.3318 10.6252 25.182 10.6871 25.0259 10.6871Z" fill="#B763C9"/>
<path d="M20.5522 41.9976C18.0854 41.9431 15.6364 41.5656 13.2681 40.8748C12.9798 40.7912 12.715 40.6418 12.4947 40.4383C12.2744 40.2348 12.1046 39.9829 11.9988 39.7026C11.8254 39.2532 11.6052 38.8233 11.3418 38.4199C10.3586 36.9921 9.01414 35.8496 7.44509 35.1085C5.11849 33.9198 3.30113 31.3281 3.2246 31.2182C3.21047 31.1971 3.19751 31.1753 3.18515 31.1524L1.1688 27.2334C1.00404 26.9071 0.958104 26.5339 1.03888 26.1775C1.11965 25.8212 1.3221 25.504 1.61152 25.2803C1.7762 25.152 1.95171 25.0382 2.13606 24.9401C2.00707 24.7783 1.90309 24.598 1.82758 24.4054C1.69916 24.0621 1.65403 23.6933 1.69589 23.3293C1.73774 22.9652 1.86538 22.6162 2.06836 22.3108C3.45959 20.281 5.15139 18.4737 7.08598 16.9505C8.02181 16.1726 9.221 15.7827 10.4364 15.8611C12.0882 16.0379 13.6995 16.486 15.2049 17.1873C15.3526 14.3083 14.7864 11.4375 13.5565 8.82921C12.8891 7.84325 12.3965 6.75015 12.1001 5.59763C11.9478 5.00426 11.925 4.38518 12.0332 3.78226C12.1414 3.17933 12.378 2.60661 12.727 2.10282L12.7859 2.0235C13.0358 1.68934 13.3641 1.42153 13.742 1.24358C14.1198 1.06564 14.5356 0.982991 14.953 1.00291C15.3806 1.02108 15.7974 1.14292 16.1673 1.3579C16.5372 1.57288 16.849 1.87454 17.0759 2.23678C18.4847 4.49067 21.6873 10.3575 20.9908 16.1455C20.9816 16.2221 20.9573 16.2962 20.9194 16.3635C20.8815 16.4307 20.8307 16.4899 20.7699 16.5375C20.709 16.5852 20.6394 16.6204 20.565 16.6412C20.4905 16.662 20.4127 16.668 20.3359 16.6588C20.2591 16.6495 20.1849 16.6253 20.1175 16.5875C20.0501 16.5496 19.9909 16.4989 19.9431 16.4382C19.8954 16.3775 19.8601 16.308 19.8392 16.2337C19.8184 16.1594 19.8124 16.0817 19.8216 16.0051C20.4734 10.5884 17.4203 5.00713 16.0768 2.85842C15.9515 2.65793 15.7791 2.49093 15.5746 2.37187C15.37 2.25281 15.1395 2.18527 14.9029 2.17509C14.6771 2.16454 14.4522 2.20917 14.2476 2.30512C14.043 2.40106 13.865 2.54542 13.729 2.72564L13.689 2.78087C13.4372 3.14744 13.2673 3.56372 13.1907 4.00155C13.1141 4.43937 13.1327 4.8885 13.2451 5.31854C13.5169 6.35642 13.9645 7.34027 14.5685 8.22755C16.064 11.3082 16.6674 14.7445 16.3105 18.1491C16.3006 18.2449 16.2671 18.3367 16.2132 18.4166C16.1593 18.4965 16.0866 18.5619 16.0014 18.6071C15.9162 18.6523 15.8212 18.6759 15.7247 18.6759C15.6282 18.6758 15.5332 18.6521 15.4481 18.6068C13.856 17.7881 12.1321 17.2551 10.3551 17.0321C9.43788 16.9817 8.5354 17.2788 7.82835 17.8641C5.99309 19.3065 4.3868 21.0174 3.06388 22.9389C2.96031 23.0892 2.89371 23.2617 2.86947 23.4425C2.84522 23.6233 2.86403 23.8073 2.92435 23.9795C2.98492 24.1257 3.07969 24.2554 3.20076 24.3576C3.32182 24.4598 3.46565 24.5316 3.62021 24.567C3.70929 24.5904 3.80073 24.6036 3.89279 24.6064C4.27273 24.6038 4.63738 24.4567 4.91244 24.1951L8.51126 21.0182C8.77076 20.7819 9.0753 20.6003 9.40669 20.4841C10.1473 20.2344 11.3824 20.1415 13.0408 21.1233C13.0962 21.1533 14.7522 22.0952 15.0954 24.748C15.1696 25.0941 15.6636 27.7522 13.6348 28.9197L12.0088 30.2029C11.6093 30.5196 11.1106 30.6852 10.6007 30.6706C10.0908 30.656 9.60243 30.462 9.22184 30.123L8.10799 29.1512C7.49945 28.6293 6.92432 28.0698 6.38599 27.476C5.51529 26.503 3.83215 25.0459 2.33505 26.2104C2.26148 26.2658 2.20949 26.3449 2.18801 26.4343C2.16652 26.5238 2.17688 26.6178 2.2173 26.7005L4.21422 30.5784C4.41615 30.8604 6.04513 33.0731 7.982 34.0638C9.73636 34.8974 11.2372 36.1813 12.3308 37.7842C12.64 38.2564 12.8979 38.76 13.1003 39.2866C13.1411 39.3954 13.2067 39.4932 13.2919 39.5724C13.3771 39.6515 13.4796 39.7098 13.5913 39.7425C15.1808 40.195 20.6423 41.571 24.2335 40.2713C24.2693 40.2587 24.3061 40.2493 24.3436 40.2431C24.4566 40.2238 27.2124 39.6991 27.0717 35.2489L27.9595 19.2749L28.8149 10.1583C28.8345 9.94958 28.8128 9.73907 28.7508 9.53878C28.6889 9.33849 28.5879 9.15238 28.4538 8.99109C28.3196 8.82981 28.1549 8.69652 27.9691 8.59887C27.7832 8.50122 27.5799 8.44113 27.3707 8.42204C26.9499 8.38599 26.5318 8.51676 26.2069 8.78606C25.882 9.05536 25.6764 9.44152 25.6346 9.86097L24.9017 17.6062C24.8959 17.6835 24.8746 17.7589 24.8389 17.8278C24.8032 17.8966 24.7539 17.9576 24.6941 18.007C24.6342 18.0564 24.5649 18.0932 24.4904 18.1152C24.4159 18.1372 24.3377 18.1439 24.2606 18.135C24.1053 18.1201 23.9624 18.0444 23.863 17.9244C23.7637 17.8045 23.7161 17.6501 23.7307 17.4951L24.4625 9.74698C24.5137 9.2018 24.7257 8.684 25.0717 8.25905C25.4177 7.83409 25.8822 7.52106 26.4064 7.35951C26.9306 7.19795 27.4911 7.19514 28.0169 7.35143C28.5427 7.50771 29.0103 7.81608 29.3606 8.23754C29.5944 8.51711 29.7702 8.8403 29.8778 9.1883C29.9853 9.5363 30.0224 9.90217 29.987 10.2646L29.1333 19.3612L28.2473 35.2647C28.4104 40.3178 25.1348 41.2696 24.5973 41.3912C23.2929 41.8198 21.9252 42.0249 20.5522 41.9976ZM5.53177 25.2081C6.17964 25.615 6.76351 26.1156 7.26436 26.6934C7.77075 27.2509 8.31145 27.7765 8.88332 28.2669L10.0019 29.2417C10.1757 29.398 10.3994 29.4878 10.6333 29.4951C10.8672 29.5024 11.0961 29.4268 11.2794 29.2816L12.9413 27.9702C12.9661 27.9501 12.9927 27.9324 13.0208 27.9173C14.419 27.1417 13.9474 25.0036 13.9427 24.9824C13.938 24.9613 13.9345 24.9419 13.9321 24.9237C13.6743 22.8672 12.4698 22.1522 12.4604 22.1457C11.1028 21.3431 10.2038 21.46 9.787 21.6004C9.60489 21.6665 9.43793 21.7684 9.29601 21.9001L5.6919 25.0764C5.6395 25.1229 5.58593 25.1663 5.53177 25.2081Z" fill="#B763C9"/>
<path d="M25.0259 10.6871C24.8697 10.6871 24.72 10.6252 24.6096 10.515C24.4992 10.4048 24.4372 10.2554 24.4372 10.0995V6.04535C24.4372 5.4814 24.2127 4.94055 23.8131 4.54177C23.4136 4.143 22.8717 3.91897 22.3066 3.91897C21.7416 3.91897 21.1996 4.143 20.8001 4.54177C20.4005 4.94055 20.1761 5.4814 20.1761 6.04535V9.03604C20.1761 9.19187 20.114 9.34132 20.0036 9.4515C19.8932 9.56169 19.7435 9.6236 19.5873 9.6236C19.4312 9.6236 19.2815 9.56169 19.1711 9.4515C19.0606 9.34132 18.9986 9.19187 18.9986 9.03604V6.04535C18.9986 5.16974 19.3471 4.32999 19.9675 3.71084C20.5879 3.09169 21.4293 2.74385 22.3066 2.74385C23.1839 2.74385 24.0253 3.09169 24.6457 3.71084C25.2661 4.32999 25.6146 5.16974 25.6146 6.04535V10.0995C25.6146 10.2554 25.5526 10.4048 25.4422 10.515C25.3318 10.6252 25.182 10.6871 25.0259 10.6871Z" stroke="#B763C9" stroke-width="0.8"/>
<path d="M20.5522 41.9976C18.0854 41.9431 15.6364 41.5656 13.2681 40.8748C12.9798 40.7912 12.715 40.6418 12.4947 40.4383C12.2744 40.2348 12.1046 39.9829 11.9988 39.7026C11.8254 39.2532 11.6052 38.8233 11.3418 38.4199C10.3586 36.9921 9.01414 35.8496 7.44509 35.1085C5.11849 33.9198 3.30113 31.3281 3.2246 31.2182C3.21047 31.1971 3.19751 31.1753 3.18515 31.1524L1.1688 27.2334C1.00404 26.9071 0.958104 26.5339 1.03888 26.1775C1.11965 25.8212 1.3221 25.504 1.61152 25.2803C1.7762 25.152 1.95171 25.0382 2.13606 24.9401C2.00707 24.7783 1.90309 24.598 1.82758 24.4054C1.69916 24.0621 1.65403 23.6933 1.69589 23.3293C1.73774 22.9652 1.86538 22.6162 2.06836 22.3108C3.45959 20.281 5.15139 18.4737 7.08598 16.9505C8.02181 16.1726 9.221 15.7827 10.4364 15.8611C12.0882 16.0379 13.6995 16.486 15.2049 17.1873C15.3526 14.3083 14.7864 11.4375 13.5565 8.82921C12.8891 7.84325 12.3965 6.75015 12.1001 5.59763C11.9478 5.00426 11.925 4.38518 12.0332 3.78226C12.1414 3.17933 12.378 2.60661 12.727 2.10282L12.7859 2.0235C13.0358 1.68934 13.3641 1.42153 13.742 1.24358C14.1198 1.06564 14.5356 0.982991 14.953 1.00291C15.3806 1.02108 15.7974 1.14292 16.1673 1.3579C16.5372 1.57288 16.849 1.87454 17.0759 2.23678C18.4847 4.49067 21.6873 10.3575 20.9908 16.1455C20.9816 16.2221 20.9573 16.2962 20.9194 16.3635C20.8815 16.4307 20.8307 16.4899 20.7699 16.5375C20.709 16.5852 20.6394 16.6204 20.565 16.6412C20.4905 16.662 20.4127 16.668 20.3359 16.6588C20.2591 16.6495 20.1849 16.6253 20.1175 16.5875C20.0501 16.5496 19.9909 16.4989 19.9431 16.4382C19.8954 16.3775 19.8601 16.308 19.8392 16.2337C19.8184 16.1594 19.8124 16.0817 19.8216 16.0051C20.4734 10.5884 17.4203 5.00713 16.0768 2.85842C15.9515 2.65793 15.7791 2.49093 15.5746 2.37187C15.37 2.25281 15.1395 2.18527 14.9029 2.17509C14.6771 2.16454 14.4522 2.20917 14.2476 2.30512C14.043 2.40106 13.865 2.54542 13.729 2.72564L13.689 2.78087C13.4372 3.14744 13.2673 3.56372 13.1907 4.00155C13.1141 4.43937 13.1327 4.8885 13.2451 5.31854C13.5169 6.35642 13.9645 7.34027 14.5685 8.22755C16.064 11.3082 16.6674 14.7445 16.3105 18.1491C16.3006 18.2449 16.2671 18.3367 16.2132 18.4166C16.1593 18.4965 16.0866 18.5619 16.0014 18.6071C15.9162 18.6523 15.8212 18.6759 15.7247 18.6759C15.6282 18.6758 15.5332 18.6521 15.4481 18.6068C13.856 17.7881 12.1321 17.2551 10.3551 17.0321C9.43788 16.9817 8.5354 17.2788 7.82835 17.8641C5.99309 19.3065 4.3868 21.0174 3.06388 22.9389C2.96031 23.0892 2.89371 23.2617 2.86947 23.4425C2.84522 23.6233 2.86403 23.8073 2.92435 23.9795C2.98492 24.1257 3.07969 24.2554 3.20076 24.3576C3.32182 24.4598 3.46565 24.5316 3.62021 24.567C3.70929 24.5904 3.80073 24.6036 3.89279 24.6064C4.27273 24.6038 4.63738 24.4567 4.91244 24.1951L8.51126 21.0182C8.77076 20.7819 9.0753 20.6003 9.40669 20.4841C10.1473 20.2344 11.3824 20.1415 13.0408 21.1233C13.0962 21.1533 14.7522 22.0952 15.0954 24.748C15.1696 25.0941 15.6636 27.7522 13.6348 28.9197L12.0088 30.2029C11.6093 30.5196 11.1106 30.6852 10.6007 30.6706C10.0908 30.656 9.60243 30.462 9.22184 30.123L8.10799 29.1512C7.49945 28.6293 6.92432 28.0698 6.38599 27.476C5.51529 26.503 3.83215 25.0459 2.33505 26.2104C2.26148 26.2658 2.20949 26.3449 2.18801 26.4343C2.16652 26.5238 2.17688 26.6178 2.2173 26.7005L4.21422 30.5784C4.41615 30.8604 6.04513 33.0731 7.982 34.0638C9.73636 34.8974 11.2372 36.1813 12.3308 37.7842C12.64 38.2564 12.8979 38.76 13.1003 39.2866C13.1411 39.3954 13.2067 39.4932 13.2919 39.5724C13.3771 39.6515 13.4796 39.7098 13.5913 39.7425C15.1808 40.195 20.6423 41.571 24.2335 40.2713C24.2693 40.2587 24.3061 40.2493 24.3436 40.2431C24.4566 40.2238 27.2124 39.6991 27.0717 35.2489L27.9595 19.2749L28.8149 10.1583C28.8345 9.94958 28.8128 9.73907 28.7508 9.53878C28.6889 9.33849 28.5879 9.15238 28.4538 8.99109C28.3196 8.82981 28.1549 8.69652 27.9691 8.59887C27.7832 8.50122 27.5799 8.44113 27.3707 8.42204C26.9499 8.38599 26.5318 8.51676 26.2069 8.78606C25.882 9.05536 25.6764 9.44152 25.6346 9.86097L24.9017 17.6062C24.8959 17.6835 24.8746 17.7589 24.8389 17.8278C24.8032 17.8966 24.7539 17.9576 24.6941 18.007C24.6342 18.0564 24.5649 18.0932 24.4904 18.1152C24.4159 18.1372 24.3377 18.1439 24.2606 18.135C24.1053 18.1201 23.9624 18.0444 23.863 17.9244C23.7637 17.8045 23.7161 17.6501 23.7307 17.4951L24.4625 9.74698C24.5137 9.2018 24.7257 8.684 25.0717 8.25905C25.4177 7.83409 25.8822 7.52106 26.4064 7.35951C26.9306 7.19795 27.4911 7.19514 28.0169 7.35143C28.5427 7.50771 29.0103 7.81608 29.3606 8.23754C29.5944 8.51711 29.7702 8.8403 29.8778 9.1883C29.9853 9.5363 30.0224 9.90217 29.987 10.2646L29.1333 19.3612L28.2473 35.2647C28.4104 40.3178 25.1348 41.2696 24.5973 41.3912C23.2929 41.8198 21.9252 42.0249 20.5522 41.9976ZM5.53177 25.2081C6.17964 25.615 6.76351 26.1156 7.26436 26.6934C7.77075 27.2509 8.31145 27.7765 8.88332 28.2669L10.0019 29.2417C10.1757 29.398 10.3994 29.4878 10.6333 29.4951C10.8672 29.5024 11.0961 29.4268 11.2794 29.2816L12.9413 27.9702C12.9661 27.9501 12.9927 27.9324 13.0208 27.9173C14.419 27.1417 13.9474 25.0036 13.9427 24.9824C13.938 24.9613 13.9345 24.9419 13.9321 24.9237C13.6743 22.8672 12.4698 22.1522 12.4604 22.1457C11.1028 21.3431 10.2038 21.46 9.787 21.6004C9.60489 21.6665 9.43793 21.7684 9.29601 21.9001L5.6919 25.0764C5.6395 25.1229 5.58593 25.1663 5.53177 25.2081Z" stroke="#B763C9" stroke-width="0.8"/>
</svg>
