<svg width="41" height="31" viewBox="0 0 41 31" fill="none" xmlns="http://www.w3.org/2000/svg">
<path d="M18.7188 27.4181C18.8093 27.6441 18.854 27.8857 18.8503 28.129C18.8518 28.6261 18.6559 29.1035 18.3054 29.4574C17.9451 29.799 17.4688 29.9927 16.9713 30C16.4741 29.9966 15.9981 29.7983 15.6465 29.4482C15.2949 29.0981 15.0958 28.6242 15.0924 28.129C15.0953 27.8845 15.1464 27.643 15.2427 27.4181C15.3333 27.1845 15.4744 26.9737 15.6561 26.8006C15.8288 26.6319 16.0331 26.4984 16.2573 26.4077C16.6002 26.2686 16.9764 26.2317 17.34 26.3014C17.7035 26.3712 18.039 26.5446 18.3054 26.8006C18.481 26.9787 18.6212 27.1882 18.7188 27.4181ZM33.3373 26.8006C33.248 26.7202 33.1539 26.6452 33.0554 26.5761C32.8489 26.4426 32.6197 26.3475 32.379 26.2955C32.138 26.2393 31.8872 26.2393 31.6462 26.2955C31.5217 26.3128 31.4011 26.3508 31.2892 26.4077C31.1737 26.445 31.0656 26.5019 30.9697 26.5761C30.8645 26.6357 30.7693 26.7114 30.6879 26.8006C30.5062 26.9737 30.3651 27.1845 30.2745 27.4181C30.1782 27.643 30.1272 27.8845 30.1242 28.129C30.1298 28.6283 30.3322 29.1054 30.6879 29.4574C30.7743 29.5412 30.8687 29.6164 30.9697 29.6819C31.0656 29.7561 31.1737 29.8131 31.2892 29.8503C31.4011 29.9073 31.5217 29.9452 31.6462 29.9626C31.764 29.9843 31.8834 29.9968 32.0032 30C32.1292 29.9968 32.2548 29.9843 32.379 29.9626C32.6197 29.9106 32.8489 29.8155 33.0554 29.6819L33.3373 29.4574C33.6878 29.1035 33.8836 28.6261 33.8822 28.129C33.8858 27.8857 33.8411 27.6441 33.7506 27.4181C33.6531 27.1882 33.5128 26.9787 33.3373 26.8006ZM39.9325 10.0368L37.0201 23.1335C36.876 23.7556 36.5245 24.3107 36.0229 24.7083C35.5212 25.1059 34.8991 25.3224 34.258 25.3226H14.679C14.0542 25.3188 13.4483 25.1094 12.9555 24.727C12.4627 24.3446 12.1107 23.8107 11.9545 23.2084L6.84363 2.87097H1.93949C1.69032 2.87097 1.45136 2.77241 1.27517 2.59697C1.09898 2.42153 1 2.18359 1 1.93548C1 1.68738 1.09898 1.44943 1.27517 1.274C1.45136 1.09856 1.69032 1 1.93949 1H7.57643C7.78524 0.999947 7.98794 1.07014 8.15165 1.19919C8.31536 1.32825 8.43048 1.50859 8.47834 1.71097L13.7771 22.7406C13.8249 22.943 13.9401 23.1234 14.1038 23.2524C14.2675 23.3815 14.4702 23.4517 14.679 23.4516H34.258C34.4725 23.4547 34.6814 23.3836 34.8493 23.2506C35.0171 23.1176 35.1335 22.9308 35.1787 22.7219L38.0911 9.62516C38.1253 9.48702 38.1279 9.34298 38.0986 9.20372C38.0693 9.06445 38.009 8.93353 37.922 8.82065C37.8303 8.71651 37.7178 8.63272 37.5915 8.57471C37.4653 8.51669 37.3282 8.48574 37.1892 8.48387H30.7631C30.526 10.0316 29.7399 11.4436 28.5472 12.4639C27.3545 13.4841 25.8342 14.0451 24.2618 14.0451C22.6894 14.0451 21.1691 13.4841 19.9764 12.4639C18.7837 11.4436 17.9975 10.0316 17.7605 8.48387H13.2134C12.9642 8.48387 12.7252 8.38531 12.5491 8.20987C12.3729 8.03444 12.2739 7.79649 12.2739 7.54839C12.2739 7.30028 12.3729 7.06234 12.5491 6.8869C12.7252 6.71146 12.9642 6.6129 13.2134 6.6129H17.7605C17.9975 5.06513 18.7837 3.65315 19.9764 2.63291C21.1691 1.61267 22.6894 1.05171 24.2618 1.05171C25.8342 1.05171 27.3545 1.61267 28.5472 2.63291C29.7399 3.65315 30.526 5.06513 30.7631 6.6129H37.1892C37.6114 6.61029 38.0287 6.70325 38.4095 6.88475C38.7904 7.06626 39.1248 7.33157 39.3876 7.66065C39.6493 7.99187 39.834 8.37682 39.9282 8.78773C40.0225 9.19863 40.0239 9.62524 39.9325 10.0368ZM28.9592 7.54839C28.9592 6.62328 28.6837 5.71895 28.1676 4.94975C27.6514 4.18055 26.9178 3.58104 26.0594 3.22701C25.2011 2.87299 24.2566 2.78036 23.3454 2.96084C22.4341 3.14132 21.5971 3.5868 20.9402 4.24095C20.2832 4.8951 19.8358 5.72854 19.6546 6.63587C19.4733 7.5432 19.5664 8.48367 19.9219 9.33836C20.2774 10.193 20.8795 10.9236 21.652 11.4375C22.4245 11.9515 23.3327 12.2258 24.2618 12.2258C25.5076 12.2258 26.7024 11.733 27.5834 10.8558C28.4643 9.97864 28.9592 8.78892 28.9592 7.54839ZM26.1408 6.6129H25.2013V5.67742C25.2013 5.42931 25.1023 5.19137 24.9261 5.01593C24.7499 4.8405 24.511 4.74194 24.2618 4.74194C24.0126 4.74194 23.7736 4.8405 23.5975 5.01593C23.4213 5.19137 23.3223 5.42931 23.3223 5.67742V6.6129H22.3828C22.1336 6.6129 21.8947 6.71146 21.7185 6.8869C21.5423 7.06234 21.4433 7.30028 21.4433 7.54839C21.4433 7.79649 21.5423 8.03444 21.7185 8.20987C21.8947 8.38531 22.1336 8.48387 22.3828 8.48387H23.3223V9.41935C23.3223 9.66746 23.4213 9.90541 23.5975 10.0808C23.7736 10.2563 24.0126 10.3548 24.2618 10.3548C24.511 10.3548 24.7499 10.2563 24.9261 10.0808C25.1023 9.90541 25.2013 9.66746 25.2013 9.41935V8.48387H26.1408C26.3899 8.48387 26.6289 8.38531 26.8051 8.20987C26.9813 8.03444 27.0803 7.79649 27.0803 7.54839C27.0803 7.30028 26.9813 7.06234 26.8051 6.8869C26.6289 6.71146 26.3899 6.6129 26.1408 6.6129Z" fill="#F480A7" stroke="#F480A7" stroke-width="0.7"/>
</svg>
