<svg width="31" height="31" viewBox="0 0 31 31" fill="none" xmlns="http://www.w3.org/2000/svg">
<path d="M15.5 0C6.95158 0 0 6.95161 0 15.5C0 24.0484 6.95158 31 15.5 31C24.0484 31 31 24.0484 31 15.5C31 6.95161 24.0484 0 15.5 0ZM15.5 2.02174C22.9558 2.02174 28.9783 8.04423 28.9783 15.5C28.9783 22.9558 22.9558 28.9783 15.5 28.9783C8.0442 28.9783 2.02174 22.9558 2.02174 15.5C2.02174 8.04423 8.0442 2.02174 15.5 2.02174ZM9.77174 9.09783C8.46903 9.09783 7.41304 10.1538 7.41304 11.4565C7.41304 12.7592 8.46903 13.8152 9.77174 13.8152C11.0744 13.8152 12.1304 12.7592 12.1304 11.4565C12.1304 10.1538 11.0744 9.09783 9.77174 9.09783ZM21.2283 9.09783C19.9256 9.09783 18.8696 10.1538 18.8696 11.4565C18.8696 12.7592 19.9256 13.8152 21.2283 13.8152C22.531 13.8152 23.587 12.7592 23.587 11.4565C23.587 10.1538 22.531 9.09783 21.2283 9.09783ZM7.98166 18.5326C7.65687 18.5515 7.36034 18.7349 7.18139 19.0591C7.01079 19.3851 7.0338 19.7999 7.24457 20.1015C9.05153 22.8045 12.0787 24.5978 15.5 24.5978C18.9213 24.5978 21.9485 22.8045 23.7554 20.1015C24.0504 19.6605 23.9227 18.9961 23.4817 18.7011C23.0406 18.4061 22.3656 18.5338 22.0707 18.9749C20.6112 21.158 18.2187 22.5761 15.5 22.5761C12.7813 22.5761 10.3888 21.158 8.92935 18.9749C8.65567 18.6538 8.30645 18.5136 7.98166 18.5326Z" fill="#501688"/>
</svg>
