<svg width="91" height="15" viewBox="0 0 91 15" fill="none" xmlns="http://www.w3.org/2000/svg">
<path d="M7.5 0L9.18386 5.18237H14.6329L10.2245 8.38525L11.9084 13.5676L7.5 10.3647L3.09161 13.5676L4.77547 8.38525L0.367076 5.18237H5.81614L7.5 0Z" fill="#F8A288"/>
<path d="M26.5 0L28.1839 5.18237H33.6329L29.2245 8.38525L30.9084 13.5676L26.5 10.3647L22.0916 13.5676L23.7755 8.38525L19.3671 5.18237H24.8161L26.5 0Z" fill="#F8A288"/>
<path d="M44.5 0L46.1839 5.18237H51.6329L47.2245 8.38525L48.9084 13.5676L44.5 10.3647L40.0916 13.5676L41.7755 8.38525L37.3671 5.18237H42.8161L44.5 0Z" fill="#F8A288"/>
<path d="M64.5 0L66.1839 5.18237H71.6329L67.2245 8.38525L68.9084 13.5676L64.5 10.3647L60.0916 13.5676L61.7755 8.38525L57.3671 5.18237H62.8161L64.5 0Z" fill="#F8A288"/>
<path d="M83.5 0L85.1839 5.18237H90.6329L86.2245 8.38525L87.9084 13.5676L83.5 10.3647L79.0916 13.5676L80.7755 8.38525L76.3671 5.18237H81.8161L83.5 0Z" fill="#F8A288"/>
</svg>
