<svg version="1.2" baseProfile="tiny-ps" xmlns="http://www.w3.org/2000/svg" width="1772" height="575"><style>.s0{opacity:.2;fill:none;stroke:#b063a3}</style><path id="Layer" class="s0" d="M10.01 578.75s32.74-222.01 140.85-277.6c122.85-63.17 205.32 106.05 342.39 88.89 125.76-15.75 162.79-139.05 289.27-147.13 133.34-8.51 187.75 145.38 319.42 122.61 147.41-25.49 126.51-234.26 271.79-269.95 133.29-32.74 203.26 92.63 340.41 87.39 105.55-4.03 261.42-69.44 261.42-69.44"/><path id="Layer" class="s0" d="M9 620.05s24.24-223.09 130.15-282.77c120.35-67.82 209.22 98.14 345.53 75.75 125.06-20.54 157.36-145.17 283.44-158.07 132.92-13.6 193.17 138.1 323.86 110.32 146.33-31.1 117.48-238.92 261.29-280.13 131.94-37.81 206.65 84.8 343.49 74.33 105.33-8.06 258.58-79.37 258.58-79.37"/></svg>