<svg width="25" height="69" viewBox="0 0 25 69" fill="none" xmlns="http://www.w3.org/2000/svg">
<path d="M12.7511 67.4817C12.7131 67.5343 12.6752 67.5869 12.6373 67.6394L12.5 67.4168L12.3627 67.6394C12.3233 67.5847 12.2837 67.5299 12.2442 67.4751C9.73863 64.0031 7.04081 60.2647 4.88086 56.3171C2.52737 52.0159 0.849352 47.5295 0.752073 42.9573L0.752071 42.9572C0.717052 41.3184 1.12855 39.615 1.77069 37.8354C2.27135 36.448 2.89555 35.0561 3.53429 33.6318C3.71806 33.222 3.90304 32.8096 4.08662 32.3937C5.69482 28.7511 7.21472 24.8378 6.12593 21.0001L6.1256 20.9989C5.85044 20.0349 5.41687 19.3442 5.06363 18.7815C4.99416 18.6708 4.9278 18.5651 4.86636 18.4632C4.49994 17.8556 4.23518 17.2937 4.23518 16.3534C4.23518 14.1487 6.01348 12.3677 8.20277 12.3677C9.8076 12.3677 11.1925 13.3264 11.8162 14.7108L12.5 16.2285L13.1838 14.7108C13.8076 13.3262 15.1902 12.3677 16.7972 12.3677C18.9865 12.3677 20.7648 14.1487 20.7648 16.3534C20.7648 17.2938 20.5 17.8557 20.134 18.4636C20.073 18.5649 20.0072 18.6699 19.9383 18.7798C19.5855 19.3431 19.1525 20.0343 18.879 20.9995C17.7875 24.8363 19.3063 28.7498 20.9139 32.3927C21.0978 32.8094 21.2831 33.2226 21.4671 33.6332C22.1053 35.0569 22.729 36.4482 23.2294 37.8351C23.8714 39.6147 24.2829 41.3183 24.2479 42.9571C24.1495 47.5294 22.4714 52.016 20.1182 56.3172C17.9572 60.2672 15.2578 64.0079 12.7511 67.4817ZM16.5326 4.80316C16.5326 7.04436 14.7234 8.85631 12.4977 8.85631C10.2721 8.85631 8.4629 7.04436 8.4629 4.80316C8.4629 2.56196 10.2721 0.75 12.4977 0.75C14.7234 0.75 16.5326 2.56196 16.5326 4.80316Z" stroke="#B063A3" stroke-width="1.5"/>
</svg>
