<svg width="1350" height="887" fill="none" xmlns="http://www.w3.org/2000/svg"><path opacity=".2" d="M1228.72-169.728S1171.07-54.13 1111.96.835c-76.81 71.419-179.845 33.711-240.702 119.133-66.332 93.108 49.868 203.582-22.784 291.848-64.888 78.834-173.132 16.853-246.103 88.27-69.217 67.744-29.177 157.612-94.148 229.438-70.818 78.289-202.952 21.412-242.595 119.253-34.887 86.101 56.855 230.993 56.855 230.993" stroke="#B063A3"/><path opacity=".2" d="M1200.36-179S1147.17-61.286 1090.2-4.103c-74.03 74.299-178.43 40.553-235.98 128.236-62.729 95.574 57.604 201.53-11.624 292.506-61.831 81.254-172.362 23.451-242.553 97.603-66.58 70.337-23.137 158.611-85.318 232.865-67.777 80.937-201.986 29.147-237.865 128.43-31.573 87.37 65.634 228.653 65.634 228.653" stroke="#B063A3"/></svg>