<svg width="49" height="44" viewBox="0 0 49 44" fill="none" xmlns="http://www.w3.org/2000/svg">
<mask id="path-1-inside-1_176_15867" fill="white">
<path d="M48.8433 21.9085C48.7471 21.1954 48.3307 20.5935 47.7276 20.2067C47.3281 19.9501 46.8325 19.9482 46.4141 20.1275C46.4084 18.5879 46.4141 17.0484 46.3745 15.5107C46.3349 13.7843 46.4292 12.0599 46.4932 10.3373C46.5158 9.76941 46.1521 9.27887 45.664 9.03737C45.6207 8.38834 45.5755 7.73931 45.5189 7.09216C45.4831 6.70539 45.4511 6.31861 45.3964 5.93561C45.3851 5.86014 45.3757 5.78467 45.3644 5.7092C45.3361 5.50921 45.2457 5.16394 45.1326 5.01112C44.9686 4.79603 44.8292 4.55642 44.5748 4.43378C44.3882 4.34511 44.2092 4.25832 44.0056 4.23002C43.8078 4.19983 43.6042 4.19983 43.4045 4.17719C43.3611 3.54136 43.3272 2.90554 43.2989 2.26972C43.3706 2.10557 43.4101 1.92822 43.4101 1.74332C43.4101 0.998072 42.7901 0.388663 42.0533 0.381116C40.5362 0.369796 39.0192 0.392437 37.5021 0.328288C36.1377 0.271687 34.7752 0.192445 33.4051 0.164145C30.5274 0.111316 27.6441 0.13207 24.7626 0.111316C21.9358 0.0924489 19.1128 0.0358477 16.2804 0.0283009C14.899 0.0264141 13.5176 0 12.1381 0C10.8077 0 9.4753 0.0245271 8.1467 0.116976C6.68053 0.220746 5.19552 0.556581 3.84619 1.14524C2.5289 1.71502 1.34541 2.85083 0.936467 4.25077C0.825279 4.63377 0.768743 5.02432 0.717861 5.42242C0.674516 5.74505 0.636825 6.07522 0.674516 6.39974C0.72163 6.80538 0.787589 7.19782 0.895007 7.58648C0.452141 7.811 0.141193 8.26381 0.135539 8.78643C0.116694 10.292 0.124232 11.7957 0.0959641 13.2976C0.0714652 14.6636 0.039428 16.0276 0.0243517 17.3899C-0.000147245 20.1482 -0.0152235 22.9028 0.0243517 25.6631C0.0526198 27.58 0.0959638 29.4969 0.103502 31.4138C0.114809 33.3383 0.139308 35.2646 0.0959641 37.1928C0.0903105 37.4324 0.175114 37.6475 0.291955 37.8437C0.57652 38.5796 0.874277 39.3191 1.26061 40.0059C1.41891 40.2851 1.61867 40.5436 1.81089 40.8021C1.98992 41.0379 2.17272 41.2719 2.35552 41.504C2.63443 41.8587 3.0528 42.1379 3.42594 42.3775C4.2589 42.9228 5.22944 43.2699 6.20751 43.4416C7.05555 43.5888 7.91113 43.7322 8.77048 43.785C10.3309 43.8775 11.8988 43.8888 13.4649 43.9171C14.9536 43.9416 16.4424 43.9699 17.9274 43.968C19.4445 43.968 20.9578 43.951 22.4729 43.9605C23.9938 43.9756 25.5108 44.0208 27.0316 43.9888C28.5996 43.9605 30.1637 43.8963 31.7298 43.8737C33.2355 43.8491 34.7507 43.8567 36.2564 43.8567C37.6943 43.8567 39.1341 43.8567 40.5683 43.8378C41.241 43.8303 41.9138 43.8378 42.5904 43.8454C43.2989 43.8529 44.0075 43.8605 44.7199 43.8491C45.2042 43.8435 45.6263 43.602 45.9128 43.2473C46.2765 42.9869 46.5347 42.585 46.5253 42.1153C46.4932 40.4927 46.5102 38.8701 46.4932 37.2456C46.4687 35.3816 46.497 33.5213 46.529 31.6591C46.9757 31.5912 47.3752 31.461 47.7464 31.1497C48.5738 30.4554 48.7697 29.2648 48.8564 28.2479C48.9111 27.6177 48.9111 26.9838 48.9356 26.3499C48.9752 25.382 49.0223 24.4047 48.9884 23.433C48.9695 22.9236 48.9111 22.4142 48.8433 21.9085ZM8.86282 8.48079C8.86848 8.34305 8.87602 8.20344 8.84586 8.06193C8.83832 8.02609 8.83267 7.98835 8.82513 7.95251C8.78744 7.37517 8.80629 6.79406 8.81194 6.21295C11.569 6.2922 14.328 6.29408 17.0888 6.30729C18.5098 6.31484 19.9307 6.35068 21.3516 6.38653C22.6689 6.42238 23.9825 6.5186 25.2997 6.562C26.6698 6.60916 28.0436 6.62992 29.4193 6.65822C30.7932 6.68652 32.1708 6.71482 33.5446 6.72614C34.9429 6.73746 36.3431 6.75067 37.7396 6.75444C38.9702 6.75821 40.2027 6.81104 41.4333 6.81859C41.8893 6.82048 42.3435 6.83746 42.7958 6.87142C42.8712 7.53743 42.9202 8.20533 42.9409 8.877C42.2078 8.89209 41.4728 8.88454 40.7435 8.877C39.3735 8.85813 38.0015 8.81662 36.6315 8.80907C33.88 8.79398 31.1343 8.70153 28.3828 8.68078C25.4562 8.66002 22.5314 8.68455 19.6047 8.58078C17.722 8.51663 15.8356 8.52041 13.9548 8.52418C12.9485 8.52418 11.944 8.52795 10.9415 8.51663C10.248 8.5072 9.55445 8.49777 8.86282 8.48079ZM46.0164 28.7422C46.0183 28.7403 46.0221 28.7366 46.0259 28.7328C46.024 28.7366 46.0202 28.7403 46.0164 28.7422ZM45.6508 22.801C45.7488 22.8085 45.845 22.8028 45.9373 22.7877C45.9938 23.616 45.9844 24.4462 45.9693 25.2782C45.9618 25.8046 45.9524 26.331 45.9411 26.8612C45.9354 27.3762 45.9429 27.8913 45.8958 28.4026C45.8732 28.5215 45.8468 28.6385 45.8148 28.7554C45.2928 28.7818 44.7651 28.7649 44.245 28.7517C43.6118 28.7366 42.9786 28.7309 42.3454 28.7309C40.9414 28.7309 39.5318 28.7347 38.1391 28.5762C37.7151 28.5007 37.3042 28.3932 36.9009 28.2441C36.4958 28.0517 36.1245 27.8291 35.7646 27.5687C35.6289 27.4498 35.4989 27.3272 35.3745 27.197C35.2991 27.08 35.2331 26.9612 35.1691 26.8385C35.1031 26.6612 35.0428 26.4819 34.9938 26.2952C34.9636 25.8744 34.9768 25.4631 35.0221 25.0443C35.0974 24.5952 35.1898 24.15 35.3443 23.7198C35.3952 23.6198 35.4499 23.5255 35.5083 23.433C35.5799 23.3613 35.6515 23.2915 35.7269 23.2274C35.8701 23.1387 36.0171 23.0575 36.1697 22.9821C36.541 22.8481 36.9179 22.7462 37.3099 22.6764C37.9224 22.6142 38.533 22.601 39.1492 22.5859C39.8069 22.567 40.4665 22.5425 41.1242 22.5425C42.6356 22.5349 44.1489 22.6859 45.6508 22.801ZM3.57105 5.58468C3.61439 5.35072 3.66716 5.12243 3.74254 4.89791C3.79531 4.79226 3.85373 4.69226 3.91592 4.59415C4.07987 4.40925 4.25513 4.23568 4.4417 4.07342C4.68104 3.90927 4.9298 3.77343 5.19363 3.64702C6.08879 3.30553 7.02917 3.09233 7.97144 2.94894C9.25858 2.81121 10.5401 2.74894 11.8329 2.73951C13.1991 2.73196 14.5673 2.71876 15.9336 2.71498C17.2075 2.71498 18.4815 2.72253 19.7592 2.73008C21.2876 2.73762 22.8197 2.74706 24.3499 2.73762C27.2201 2.72064 30.0902 2.7131 32.9604 2.7697C34.3342 2.798 35.7043 2.8263 37.08 2.91686C38.2126 2.9961 39.3471 3.02252 40.4816 3.05271C40.5079 3.38665 40.5306 3.72249 40.5683 4.05832C40.442 4.05832 40.3157 4.05455 40.1895 4.05644C37.5059 4.07342 34.8223 4.11304 32.1368 4.07342C30.7159 4.05644 29.295 4.02625 27.8778 3.98097C26.536 3.94135 25.198 3.93003 23.8581 3.8772C22.488 3.82249 21.1198 3.76588 19.7498 3.7489C18.3797 3.72815 17.0078 3.73004 15.6377 3.71306C13.0823 3.67343 10.5269 3.58099 7.97521 3.47344C7.95825 3.47344 7.94129 3.47156 7.92432 3.47156C7.26474 3.47156 6.73518 4.03002 6.64661 4.66207C6.24897 4.91678 5.96629 5.3394 5.96818 5.8375C5.97195 6.66765 5.98702 7.50347 6.09256 8.32985C6.03602 8.31853 5.97572 8.32041 5.91541 8.31287C5.4782 8.24495 5.04475 8.17136 4.6245 8.03175C4.48882 7.96194 4.36067 7.88458 4.23252 7.79779C4.16468 7.73742 4.10249 7.67516 4.04218 7.60724C3.94042 7.44309 3.85561 7.27517 3.77646 7.1016C3.68224 6.85255 3.60874 6.6035 3.55409 6.34314C3.53713 6.08843 3.54655 5.83938 3.57105 5.58468ZM40.442 40.8097C38.9777 40.8455 37.5115 40.8417 36.0473 40.8738C32.9152 40.9342 29.7849 41.0417 26.6491 41.0644C25.1961 41.0719 23.7393 41.104 22.2864 41.0927C20.7411 41.0851 19.1976 41.0644 17.6561 41.0606C16.1993 41.0568 14.7426 41.0757 13.2858 41.0813C11.7179 41.0851 10.1405 41.0927 8.58014 40.938C8.45576 40.9247 8.33138 40.9134 8.20701 40.9002C7.35708 40.7795 6.5015 40.6285 5.69869 40.3304C5.37832 40.1719 5.06925 39.9965 4.77527 39.7946C4.57174 39.6154 4.39271 39.421 4.22121 39.2135C4.07045 39.0135 3.92346 38.8078 3.78589 38.5946C3.63701 38.3569 3.52017 38.0947 3.40709 37.8362C3.27706 37.5154 3.15268 37.1909 3.03019 36.8645C2.95669 36.6702 2.86623 36.4985 2.75127 36.3457C2.73243 33.9156 2.73243 31.4874 2.70039 29.0611C2.67966 27.714 2.65328 26.3631 2.63632 25.016C2.61559 23.633 2.63255 22.2463 2.62878 20.8633C2.62878 18.8841 2.62501 16.905 2.67589 14.9239C2.71358 13.3844 2.7607 11.8467 2.80216 10.3071C2.89261 10.3637 2.98119 10.426 3.07165 10.4769C3.82358 10.892 4.66408 10.9958 5.50081 11.0977C6.20186 11.1844 6.90668 11.2222 7.61526 11.2486C9.02112 11.2995 10.4326 11.2807 11.8423 11.2807C13.3273 11.2807 14.8085 11.2637 16.2935 11.2561C17.7541 11.2448 19.207 11.3127 20.6657 11.3599C22.0715 11.4033 23.4793 11.4033 24.8889 11.4033C26.3494 11.3995 27.8118 11.3882 29.2723 11.392C30.7046 11.3958 32.135 11.4807 33.5634 11.5675C36.247 11.7259 38.9419 11.7354 41.6292 11.7674C42.2643 11.775 42.9088 11.7674 43.5515 11.741C43.5119 14.4334 43.5477 17.1276 43.559 19.8199C42.6789 19.7784 41.7989 19.7162 40.9169 19.7067C40.2403 19.6992 39.5638 19.6784 38.891 19.6671C38.8232 19.6652 38.7572 19.6652 38.6894 19.6652C37.9393 19.6652 37.1987 19.7369 36.4543 19.835C35.6458 19.9464 34.8223 20.2765 34.1288 20.7029C33.6105 21.0218 33.2449 21.4482 32.8793 21.9255C32.6494 22.2255 32.5137 22.65 32.3856 22.9934C32.2461 23.3632 32.1708 23.7594 32.0954 24.1481C31.9013 25.1443 31.8089 26.1536 32.0162 27.1574C32.0671 27.4083 32.167 27.6517 32.2593 27.8913C32.4892 28.4894 32.8002 28.9837 33.2299 29.4611C33.5691 29.8403 34.0251 30.1346 34.4397 30.4252C34.7073 30.612 35.0013 30.7648 35.2991 30.9025C35.7212 31.0931 36.1584 31.2931 36.6126 31.4044C37.4173 31.6044 38.2578 31.6704 39.0851 31.7157C40.0123 31.7666 40.9452 31.7591 41.8799 31.7515C42.2738 31.7478 42.6714 31.744 43.0671 31.744C43.233 31.744 43.3969 31.7459 43.5628 31.7478C43.542 34.7514 43.6382 37.7532 43.6627 40.7549C42.5904 40.7663 41.5162 40.7851 40.442 40.8097ZM39.8239 25.5178C39.8239 26.331 39.1473 27.0102 38.3332 27.0102C37.521 27.0102 36.8425 26.3329 36.8425 25.5178C36.8425 24.7046 37.5191 24.0254 38.3332 24.0254C39.1454 24.0254 39.8239 24.7046 39.8239 25.5178Z"/>
</mask>
<path d="M48.8433 21.9085C48.7471 21.1954 48.3307 20.5935 47.7276 20.2067C47.3281 19.9501 46.8325 19.9482 46.4141 20.1275C46.4084 18.5879 46.4141 17.0484 46.3745 15.5107C46.3349 13.7843 46.4292 12.0599 46.4932 10.3373C46.5158 9.76941 46.1521 9.27887 45.664 9.03737C45.6207 8.38834 45.5755 7.73931 45.5189 7.09216C45.4831 6.70539 45.4511 6.31861 45.3964 5.93561C45.3851 5.86014 45.3757 5.78467 45.3644 5.7092C45.3361 5.50921 45.2457 5.16394 45.1326 5.01112C44.9686 4.79603 44.8292 4.55642 44.5748 4.43378C44.3882 4.34511 44.2092 4.25832 44.0056 4.23002C43.8078 4.19983 43.6042 4.19983 43.4045 4.17719C43.3611 3.54136 43.3272 2.90554 43.2989 2.26972C43.3706 2.10557 43.4101 1.92822 43.4101 1.74332C43.4101 0.998072 42.7901 0.388663 42.0533 0.381116C40.5362 0.369796 39.0192 0.392437 37.5021 0.328288C36.1377 0.271687 34.7752 0.192445 33.4051 0.164145C30.5274 0.111316 27.6441 0.13207 24.7626 0.111316C21.9358 0.0924489 19.1128 0.0358477 16.2804 0.0283009C14.899 0.0264141 13.5176 0 12.1381 0C10.8077 0 9.4753 0.0245271 8.1467 0.116976C6.68053 0.220746 5.19552 0.556581 3.84619 1.14524C2.5289 1.71502 1.34541 2.85083 0.936467 4.25077C0.825279 4.63377 0.768743 5.02432 0.717861 5.42242C0.674516 5.74505 0.636825 6.07522 0.674516 6.39974C0.72163 6.80538 0.787589 7.19782 0.895007 7.58648C0.452141 7.811 0.141193 8.26381 0.135539 8.78643C0.116694 10.292 0.124232 11.7957 0.0959641 13.2976C0.0714652 14.6636 0.039428 16.0276 0.0243517 17.3899C-0.000147245 20.1482 -0.0152235 22.9028 0.0243517 25.6631C0.0526198 27.58 0.0959638 29.4969 0.103502 31.4138C0.114809 33.3383 0.139308 35.2646 0.0959641 37.1928C0.0903105 37.4324 0.175114 37.6475 0.291955 37.8437C0.57652 38.5796 0.874277 39.3191 1.26061 40.0059C1.41891 40.2851 1.61867 40.5436 1.81089 40.8021C1.98992 41.0379 2.17272 41.2719 2.35552 41.504C2.63443 41.8587 3.0528 42.1379 3.42594 42.3775C4.2589 42.9228 5.22944 43.2699 6.20751 43.4416C7.05555 43.5888 7.91113 43.7322 8.77048 43.785C10.3309 43.8775 11.8988 43.8888 13.4649 43.9171C14.9536 43.9416 16.4424 43.9699 17.9274 43.968C19.4445 43.968 20.9578 43.951 22.4729 43.9605C23.9938 43.9756 25.5108 44.0208 27.0316 43.9888C28.5996 43.9605 30.1637 43.8963 31.7298 43.8737C33.2355 43.8491 34.7507 43.8567 36.2564 43.8567C37.6943 43.8567 39.1341 43.8567 40.5683 43.8378C41.241 43.8303 41.9138 43.8378 42.5904 43.8454C43.2989 43.8529 44.0075 43.8605 44.7199 43.8491C45.2042 43.8435 45.6263 43.602 45.9128 43.2473C46.2765 42.9869 46.5347 42.585 46.5253 42.1153C46.4932 40.4927 46.5102 38.8701 46.4932 37.2456C46.4687 35.3816 46.497 33.5213 46.529 31.6591C46.9757 31.5912 47.3752 31.461 47.7464 31.1497C48.5738 30.4554 48.7697 29.2648 48.8564 28.2479C48.9111 27.6177 48.9111 26.9838 48.9356 26.3499C48.9752 25.382 49.0223 24.4047 48.9884 23.433C48.9695 22.9236 48.9111 22.4142 48.8433 21.9085ZM8.86282 8.48079C8.86848 8.34305 8.87602 8.20344 8.84586 8.06193C8.83832 8.02609 8.83267 7.98835 8.82513 7.95251C8.78744 7.37517 8.80629 6.79406 8.81194 6.21295C11.569 6.2922 14.328 6.29408 17.0888 6.30729C18.5098 6.31484 19.9307 6.35068 21.3516 6.38653C22.6689 6.42238 23.9825 6.5186 25.2997 6.562C26.6698 6.60916 28.0436 6.62992 29.4193 6.65822C30.7932 6.68652 32.1708 6.71482 33.5446 6.72614C34.9429 6.73746 36.3431 6.75067 37.7396 6.75444C38.9702 6.75821 40.2027 6.81104 41.4333 6.81859C41.8893 6.82048 42.3435 6.83746 42.7958 6.87142C42.8712 7.53743 42.9202 8.20533 42.9409 8.877C42.2078 8.89209 41.4728 8.88454 40.7435 8.877C39.3735 8.85813 38.0015 8.81662 36.6315 8.80907C33.88 8.79398 31.1343 8.70153 28.3828 8.68078C25.4562 8.66002 22.5314 8.68455 19.6047 8.58078C17.722 8.51663 15.8356 8.52041 13.9548 8.52418C12.9485 8.52418 11.944 8.52795 10.9415 8.51663C10.248 8.5072 9.55445 8.49777 8.86282 8.48079ZM46.0164 28.7422C46.0183 28.7403 46.0221 28.7366 46.0259 28.7328C46.024 28.7366 46.0202 28.7403 46.0164 28.7422ZM45.6508 22.801C45.7488 22.8085 45.845 22.8028 45.9373 22.7877C45.9938 23.616 45.9844 24.4462 45.9693 25.2782C45.9618 25.8046 45.9524 26.331 45.9411 26.8612C45.9354 27.3762 45.9429 27.8913 45.8958 28.4026C45.8732 28.5215 45.8468 28.6385 45.8148 28.7554C45.2928 28.7818 44.7651 28.7649 44.245 28.7517C43.6118 28.7366 42.9786 28.7309 42.3454 28.7309C40.9414 28.7309 39.5318 28.7347 38.1391 28.5762C37.7151 28.5007 37.3042 28.3932 36.9009 28.2441C36.4958 28.0517 36.1245 27.8291 35.7646 27.5687C35.6289 27.4498 35.4989 27.3272 35.3745 27.197C35.2991 27.08 35.2331 26.9612 35.1691 26.8385C35.1031 26.6612 35.0428 26.4819 34.9938 26.2952C34.9636 25.8744 34.9768 25.4631 35.0221 25.0443C35.0974 24.5952 35.1898 24.15 35.3443 23.7198C35.3952 23.6198 35.4499 23.5255 35.5083 23.433C35.5799 23.3613 35.6515 23.2915 35.7269 23.2274C35.8701 23.1387 36.0171 23.0575 36.1697 22.9821C36.541 22.8481 36.9179 22.7462 37.3099 22.6764C37.9224 22.6142 38.533 22.601 39.1492 22.5859C39.8069 22.567 40.4665 22.5425 41.1242 22.5425C42.6356 22.5349 44.1489 22.6859 45.6508 22.801ZM3.57105 5.58468C3.61439 5.35072 3.66716 5.12243 3.74254 4.89791C3.79531 4.79226 3.85373 4.69226 3.91592 4.59415C4.07987 4.40925 4.25513 4.23568 4.4417 4.07342C4.68104 3.90927 4.9298 3.77343 5.19363 3.64702C6.08879 3.30553 7.02917 3.09233 7.97144 2.94894C9.25858 2.81121 10.5401 2.74894 11.8329 2.73951C13.1991 2.73196 14.5673 2.71876 15.9336 2.71498C17.2075 2.71498 18.4815 2.72253 19.7592 2.73008C21.2876 2.73762 22.8197 2.74706 24.3499 2.73762C27.2201 2.72064 30.0902 2.7131 32.9604 2.7697C34.3342 2.798 35.7043 2.8263 37.08 2.91686C38.2126 2.9961 39.3471 3.02252 40.4816 3.05271C40.5079 3.38665 40.5306 3.72249 40.5683 4.05832C40.442 4.05832 40.3157 4.05455 40.1895 4.05644C37.5059 4.07342 34.8223 4.11304 32.1368 4.07342C30.7159 4.05644 29.295 4.02625 27.8778 3.98097C26.536 3.94135 25.198 3.93003 23.8581 3.8772C22.488 3.82249 21.1198 3.76588 19.7498 3.7489C18.3797 3.72815 17.0078 3.73004 15.6377 3.71306C13.0823 3.67343 10.5269 3.58099 7.97521 3.47344C7.95825 3.47344 7.94129 3.47156 7.92432 3.47156C7.26474 3.47156 6.73518 4.03002 6.64661 4.66207C6.24897 4.91678 5.96629 5.3394 5.96818 5.8375C5.97195 6.66765 5.98702 7.50347 6.09256 8.32985C6.03602 8.31853 5.97572 8.32041 5.91541 8.31287C5.4782 8.24495 5.04475 8.17136 4.6245 8.03175C4.48882 7.96194 4.36067 7.88458 4.23252 7.79779C4.16468 7.73742 4.10249 7.67516 4.04218 7.60724C3.94042 7.44309 3.85561 7.27517 3.77646 7.1016C3.68224 6.85255 3.60874 6.6035 3.55409 6.34314C3.53713 6.08843 3.54655 5.83938 3.57105 5.58468ZM40.442 40.8097C38.9777 40.8455 37.5115 40.8417 36.0473 40.8738C32.9152 40.9342 29.7849 41.0417 26.6491 41.0644C25.1961 41.0719 23.7393 41.104 22.2864 41.0927C20.7411 41.0851 19.1976 41.0644 17.6561 41.0606C16.1993 41.0568 14.7426 41.0757 13.2858 41.0813C11.7179 41.0851 10.1405 41.0927 8.58014 40.938C8.45576 40.9247 8.33138 40.9134 8.20701 40.9002C7.35708 40.7795 6.5015 40.6285 5.69869 40.3304C5.37832 40.1719 5.06925 39.9965 4.77527 39.7946C4.57174 39.6154 4.39271 39.421 4.22121 39.2135C4.07045 39.0135 3.92346 38.8078 3.78589 38.5946C3.63701 38.3569 3.52017 38.0947 3.40709 37.8362C3.27706 37.5154 3.15268 37.1909 3.03019 36.8645C2.95669 36.6702 2.86623 36.4985 2.75127 36.3457C2.73243 33.9156 2.73243 31.4874 2.70039 29.0611C2.67966 27.714 2.65328 26.3631 2.63632 25.016C2.61559 23.633 2.63255 22.2463 2.62878 20.8633C2.62878 18.8841 2.62501 16.905 2.67589 14.9239C2.71358 13.3844 2.7607 11.8467 2.80216 10.3071C2.89261 10.3637 2.98119 10.426 3.07165 10.4769C3.82358 10.892 4.66408 10.9958 5.50081 11.0977C6.20186 11.1844 6.90668 11.2222 7.61526 11.2486C9.02112 11.2995 10.4326 11.2807 11.8423 11.2807C13.3273 11.2807 14.8085 11.2637 16.2935 11.2561C17.7541 11.2448 19.207 11.3127 20.6657 11.3599C22.0715 11.4033 23.4793 11.4033 24.8889 11.4033C26.3494 11.3995 27.8118 11.3882 29.2723 11.392C30.7046 11.3958 32.135 11.4807 33.5634 11.5675C36.247 11.7259 38.9419 11.7354 41.6292 11.7674C42.2643 11.775 42.9088 11.7674 43.5515 11.741C43.5119 14.4334 43.5477 17.1276 43.559 19.8199C42.6789 19.7784 41.7989 19.7162 40.9169 19.7067C40.2403 19.6992 39.5638 19.6784 38.891 19.6671C38.8232 19.6652 38.7572 19.6652 38.6894 19.6652C37.9393 19.6652 37.1987 19.7369 36.4543 19.835C35.6458 19.9464 34.8223 20.2765 34.1288 20.7029C33.6105 21.0218 33.2449 21.4482 32.8793 21.9255C32.6494 22.2255 32.5137 22.65 32.3856 22.9934C32.2461 23.3632 32.1708 23.7594 32.0954 24.1481C31.9013 25.1443 31.8089 26.1536 32.0162 27.1574C32.0671 27.4083 32.167 27.6517 32.2593 27.8913C32.4892 28.4894 32.8002 28.9837 33.2299 29.4611C33.5691 29.8403 34.0251 30.1346 34.4397 30.4252C34.7073 30.612 35.0013 30.7648 35.2991 30.9025C35.7212 31.0931 36.1584 31.2931 36.6126 31.4044C37.4173 31.6044 38.2578 31.6704 39.0851 31.7157C40.0123 31.7666 40.9452 31.7591 41.8799 31.7515C42.2738 31.7478 42.6714 31.744 43.0671 31.744C43.233 31.744 43.3969 31.7459 43.5628 31.7478C43.542 34.7514 43.6382 37.7532 43.6627 40.7549C42.5904 40.7663 41.5162 40.7851 40.442 40.8097ZM39.8239 25.5178C39.8239 26.331 39.1473 27.0102 38.3332 27.0102C37.521 27.0102 36.8425 26.3329 36.8425 25.5178C36.8425 24.7046 37.5191 24.0254 38.3332 24.0254C39.1454 24.0254 39.8239 24.7046 39.8239 25.5178Z" fill="#B063A3" stroke="white" mask="url(#path-1-inside-1_176_15867)"/>
</svg>
